SplineFontDB: 1.0
FontName: DejaVuSansMono-Oblique
FullName: DejaVu Sans Mono Oblique
FamilyName: DejaVu Sans Mono
Weight: Book
Copyright: Copyright (c) 2003 by Bitstream, Inc. All Rights Reserved.\nDejaVu changes are in public domain\n
Version: 1.13
ItalicAngle: -11
UnderlinePosition: -213
UnderlineWidth: 141
Ascent: 1556
Descent: 492
Order2: 1
NeedsXUIDChange: 1
FSType: 0
PfmFamily: 17
TTFWeight: 400
TTFWidth: 5
Panose: 2 11 6 9 3 3 4 11 2 4
LineGap: 410
VLineGap: 0
OS2TypoAscent: 1556
OS2TypoDescent: -492
OS2TypoLinegap: 0
OS2WinAscent: 1901
OS2WinAOffset: 0
OS2WinDescent: 483
OS2WinDOffset: 0
HheadAscent: 1901
HheadAOffset: 0
HheadDescent: -483
HheadDOffset: 0
ScriptLang: 2
 1 DFLT 1 dflt 
 1 latn 1 dflt 
TtfTable: prep 1262
\,q1GOk]j;gAV3-&d-ec"5!MSesZ]krWCZW7g7Cj"4JOudP:pPQ35M5"4-rKc40s$rWCCD"3^ZG
b5ML`rWC/g"3(6A`;TkV1'>D*"2TBf^qYg3_#=GO^]_Ed=TuR!"2B?h^:bis^0(QP5QnbI"2)6!
"ha[6].X8trWB\d"1T$I\!@-)rWBR87g6=""1>Z=d6R^7Zpt5)Z=F-FQ34F'"0qh-YceuLYl4a.
)[!8B"0H>@XSr=&]*#(4)$R&:"0!.?W0RO`&d,$1"/Ve."f;2#U_O!,Q33kT'a:?2"//j*"ecY5
TR?p73WksV$O*+_".fDnS=9ihSGiV[$3Qar".B,jQrXe&QlH3p('Bm%"-o/SPl:cKQ33;-%0_mn
"-EKaO(Jh)O8]6ArWA/Z"-!3]Mi%rIMuEg9%0MGh5m<,A",I?fLK>c*LL^LAKt@MCrW@k->m5qo
",27.KS(QSKO"\55Ql]c"+pLSJX-Cg=@!+?rW@UO5m;`:"+C.NHt3>+A-7,f"*m03I04`n"*a_H
G5_SdrW@7`%L$r0"*4qSEY8IoE"N7n-j+E#")n/@DZ0`TrW?tP)$Ohe")DW_"`"tXC(LJ]$3Ou@
"(u3T"_J2GAj?K1A1e$srW?[`"(PG!"_3i#@Ta'B@MJuR@(QSNrW?P8>m4WJ"(6W^?X"f[?X3b@
5QkEm"'tm.>[&KX>e:)B,m.=R$O']J"'H!6=B?dP=@!$j<Y5L:,m.0["',=&<;ltu;@s(2rW?%1
"&]%";#UPmrW>n-63U+_"&8as9R$Y48ppk9rW>c@"%`t)8<s?JrW>Rf"%3%i68AX/5XGW?7KYn?
/HnC+"$\t7rt#>u/H\0J"$QVc4T5FErW>2A;[#4J"$&=h"Z]K`3%+kfrW>(X"#]oW1qNiGrW=qT
"#9cW0`D/-.glM6%Ke=o""hRr/1V)3///1:$NhmX""=od./j;r">'d)Q3/K5"!nEp"XPo+,lRlj
rW=AD"!Ie!"X,T&+<L\-*Y&>qA-3k_"!&?g"W]?#*!ucf5Qi#E'EoEq!u_jU)$N&))3t@A(F95%
rW<rB('PL#!uCk<(&e:L&-ERL3X$2r!tl24"VUe:&HjZh&OHR2Q3.X-)$LQM!tGDE"V)CP%K6G<
rW<N33X#nW!t,#0#m_:M$2t#4('=dE5U7ob#Q=f/">'c\3WfKe&-W1g!s9):!ZV:C!"&l1(]saF

StartChar: .notdef
Encoding: 0 -1 0
AltUni: 0
Width: 1233
Flags: W
Fore
104 -362 m 1,0,-1
 104 1444 l 1,1,-1
 1128 1444 l 1,2,-1
 1128 -362 l 1,3,-1
 104 -362 l 1,0,-1
219 -248 m 1,4,-1
 1014 -248 l 1,5,-1
 1014 1329 l 1,6,-1
 219 1329 l 1,7,-1
 219 -248 l 1,4,-1
EndSplineSet
EndChar
StartChar: exclam
Encoding: 33 33 33
Width: 1233
Flags: W
Fore
662 1493 m 1,0,-1
 864 1493 l 1,1,-1
 735 838 l 1,2,-1
 647 481 l 1,3,-1
 485 481 l 1,4,-1
 535 838 l 1,5,-1
 662 1493 l 1,0,-1
420 254 m 1,6,-1
 623 254 l 1,7,-1
 573 0 l 1,8,-1
 371 0 l 1,9,-1
 420 254 l 1,6,-1
EndSplineSet
EndChar
StartChar: quotedbl
Encoding: 34 34 34
Width: 1233
Flags: W
Fore
895 1493 m 1,0,-1
 895 938 l 1,1,-1
 721 938 l 1,2,-1
 721 1493 l 1,3,-1
 895 1493 l 1,0,-1
512 1493 m 1,4,-1
 512 938 l 1,5,-1
 338 938 l 1,6,-1
 338 1493 l 1,7,-1
 512 1493 l 1,4,-1
EndSplineSet
EndChar
StartChar: numbersign
Encoding: 35 35 35
Width: 1233
Flags: W
Fore
778 901 m 1,0,-1
 532 901 l 1,1,-1
 449 567 l 1,2,-1
 694 567 l 1,3,-1
 778 901 l 1,0,-1
676 1470 m 1,4,-1
 571 1055 l 1,5,-1
 817 1055 l 1,6,-1
 922 1470 l 1,7,-1
 1081 1470 l 1,8,-1
 977 1055 l 1,9,-1
 1233 1055 l 1,10,-1
 1194 901 l 1,11,-1
 938 901 l 1,12,-1
 854 567 l 1,13,-1
 1112 567 l 1,14,-1
 1073 414 l 1,15,-1
 815 414 l 1,16,-1
 711 0 l 1,17,-1
 551 0 l 1,18,-1
 655 414 l 1,19,-1
 410 414 l 1,20,-1
 305 0 l 1,21,-1
 145 0 l 1,22,-1
 250 414 l 1,23,-1
 -6 414 l 1,24,-1
 33 567 l 1,25,-1
 289 567 l 1,26,-1
 373 901 l 1,27,-1
 115 901 l 1,28,-1
 154 1055 l 1,29,-1
 412 1055 l 1,30,-1
 516 1470 l 1,31,-1
 676 1470 l 1,4,-1
EndSplineSet
EndChar
StartChar: dollar
Encoding: 36 36 36
Width: 1233
Flags: W
Fore
629 588 m 1,0,-1
 543 145 l 1,1,2
 672 145 672 145 751.5 217.5 c 128,-1,3
 831 290 831 290 831 406 c 0,4,5
 831 484 831 484 784 526.5 c 128,-1,6
 737 569 737 569 629 588 c 1,0,-1
563 774 m 1,7,-1
 643 1184 l 1,8,9
 524 1176 524 1176 448.5 1107.5 c 128,-1,10
 373 1039 373 1039 373 940 c 0,11,12
 373 871 373 871 415 834 c 128,-1,13
 457 797 457 797 563 774 c 1,7,-1
455 -301 m 1,14,-1
 354 -301 l 1,15,-1
 413 0 l 1,16,17
 318 3 318 3 222 26 c 128,-1,18
 126 49 126 49 31 92 c 1,19,-1
 66 272 l 1,20,21
 147 212 147 212 241.5 179 c 128,-1,22
 336 146 336 146 440 141 c 1,23,-1
 530 606 l 1,24,25
 354 641 354 641 274.5 713.5 c 128,-1,26
 195 786 195 786 195 911 c 0,27,28
 195 1084 195 1084 327.5 1199 c 128,-1,29
 460 1314 460 1314 669 1321 c 1,30,-1
 717 1556 l 1,31,-1
 817 1556 l 1,32,-1
 770 1321 l 1,33,34
 855 1315 855 1315 933 1299.5 c 128,-1,35
 1011 1284 1011 1284 1083 1260 c 1,36,-1
 1051 1087 l 1,37,38
 986 1127 986 1127 909 1150.5 c 128,-1,39
 832 1174 832 1174 743 1182 c 1,40,-1
 662 756 l 1,41,42
 836 722 836 722 925 639 c 128,-1,43
 1014 556 1014 556 1014 426 c 0,44,45
 1014 242 1014 242 877 122 c 128,-1,46
 740 2 740 2 524 2 c 2,47,-1
 514 2 l 1,48,-1
 455 -301 l 1,14,-1
EndSplineSet
EndChar
StartChar: percent
Encoding: 37 37 37
Width: 1233
Flags: W
Fore
696 319 m 0,0,1
 696 241 696 241 748.5 188 c 128,-1,2
 801 135 801 135 879 135 c 0,3,4
 956 135 956 135 1009.5 188.5 c 128,-1,5
 1063 242 1063 242 1063 319 c 0,6,7
 1063 396 1063 396 1009 450 c 128,-1,8
 955 504 955 504 879 504 c 0,9,10
 801 504 801 504 748.5 451 c 128,-1,11
 696 398 696 398 696 319 c 0,0,1
561 319 m 0,12,13
 561 454 561 454 653 546.5 c 128,-1,14
 745 639 745 639 879 639 c 0,15,16
 943 639 943 639 1000.5 615 c 128,-1,17
 1058 591 1058 591 1104 545 c 0,18,19
 1150 498 1150 498 1175 440 c 128,-1,20
 1200 382 1200 382 1200 319 c 0,21,22
 1200 186 1200 186 1107 93 c 128,-1,23
 1014 0 1014 0 879 0 c 0,24,25
 743 0 743 0 652 91.5 c 128,-1,26
 561 183 561 183 561 319 c 0,12,13
121 465 m 1,27,-1
 86 561 l 1,28,-1
 1128 979 l 1,29,-1
 1169 883 l 1,30,-1
 121 465 l 1,27,-1
168 1112 m 0,31,32
 168 1033 168 1033 220.5 980.5 c 128,-1,33
 273 928 273 928 352 928 c 0,34,35
 429 928 429 928 483 981.5 c 128,-1,36
 537 1035 537 1035 537 1112 c 0,37,38
 537 1189 537 1189 483 1242.5 c 128,-1,39
 429 1296 429 1296 352 1296 c 0,40,41
 275 1296 275 1296 221.5 1243 c 128,-1,42
 168 1190 168 1190 168 1112 c 0,31,32
33 1112 m 0,43,44
 33 1247 33 1247 125 1339.5 c 128,-1,45
 217 1432 217 1432 352 1432 c 0,46,47
 416 1432 416 1432 474.5 1408 c 128,-1,48
 533 1384 533 1384 578 1339 c 0,49,50
 623 1294 623 1294 647.5 1235.5 c 128,-1,51
 672 1177 672 1177 672 1112 c 0,52,53
 672 978 672 978 579 885.5 c 128,-1,54
 486 793 486 793 352 793 c 0,55,56
 217 793 217 793 125 885 c 128,-1,57
 33 977 33 977 33 1112 c 0,43,44
EndSplineSet
EndChar
StartChar: ampersand
Encoding: 38 38 38
Width: 1233
Flags: W
Fore
567 907 m 2,0,-1
 874 350 l 1,1,2
 936 416 936 416 973 518.5 c 128,-1,3
 1010 621 1010 621 1022 760 c 1,4,-1
 1190 760 l 1,5,6
 1173 592 1173 592 1112 457.5 c 128,-1,7
 1051 323 1051 323 944 221 c 1,8,-1
 1067 0 l 1,9,-1
 868 0 l 1,10,-1
 809 113 l 1,11,12
 714 42 714 42 614 6.5 c 128,-1,13
 514 -29 514 -29 410 -29 c 0,14,15
 215 -29 215 -29 97.5 78 c 128,-1,16
 -20 185 -20 185 -20 360 c 0,17,18
 -20 528 -20 528 79.5 672.5 c 128,-1,19
 179 817 179 817 367 920 c 1,20,21
 338 972 338 972 323.5 1026 c 128,-1,22
 309 1080 309 1080 309 1135 c 0,23,24
 309 1309 309 1309 432 1414.5 c 128,-1,25
 555 1520 555 1520 762 1520 c 0,26,27
 827 1520 827 1520 889 1508 c 128,-1,28
 951 1496 951 1496 1008 1473 c 1,29,-1
 973 1290 l 1,30,31
 931 1328 931 1328 870 1347 c 128,-1,32
 809 1366 809 1366 733 1366 c 0,33,34
 620 1366 620 1366 551.5 1308.5 c 128,-1,35
 483 1251 483 1251 483 1157 c 0,36,37
 483 1110 483 1110 505 1044.5 c 128,-1,38
 527 979 527 979 567 907 c 2,0,-1
432 795 m 1,39,40
 297 722 297 722 227.5 623.5 c 128,-1,41
 158 525 158 525 158 408 c 0,42,43
 158 289 158 289 244 209 c 128,-1,44
 330 129 330 129 459 129 c 0,45,46
 524 129 524 129 597 157.5 c 128,-1,47
 670 186 670 186 741 240 c 1,48,-1
 432 795 l 1,39,40
EndSplineSet
EndChar
StartChar: quotesingle
Encoding: 39 39 39
Width: 1233
Flags: W
Fore
702 1493 m 1,0,-1
 702 938 l 1,1,-1
 528 938 l 1,2,-1
 528 1493 l 1,3,-1
 702 1493 l 1,0,-1
EndSplineSet
EndChar
StartChar: parenleft
Encoding: 40 40 40
Width: 1233
Flags: W
Fore
1042 1554 m 1,0,1
 806 1253 806 1253 686.5 947.5 c 128,-1,2
 567 642 567 642 567 340 c 0,3,4
 567 194 567 194 596.5 43 c 128,-1,5
 626 -108 626 -108 686 -270 c 1,6,-1
 526 -270 l 1,7,8
 447 -81 447 -81 410 76 c 128,-1,9
 373 233 373 233 373 375 c 0,10,11
 373 678 373 678 502 977.5 c 128,-1,12
 631 1277 631 1277 883 1554 c 1,13,-1
 1042 1554 l 1,0,1
EndSplineSet
EndChar
StartChar: parenright
Encoding: 41 41 41
Width: 1233
Flags: W
Fore
150 -270 m 1,0,1
 386 30 386 30 505.5 335.5 c 128,-1,2
 625 641 625 641 625 944 c 0,3,4
 625 1090 625 1090 595.5 1241 c 128,-1,5
 566 1392 566 1392 506 1554 c 1,6,-1
 666 1554 l 1,7,8
 744 1366 744 1366 781.5 1208.5 c 128,-1,9
 819 1051 819 1051 819 909 c 0,10,11
 819 606 819 606 690 306.5 c 128,-1,12
 561 7 561 7 309 -270 c 1,13,-1
 150 -270 l 1,0,1
EndSplineSet
EndChar
StartChar: asterisk
Encoding: 42 42 42
Width: 1233
Flags: W
Fore
1067 1247 m 1,0,-1
 709 1053 l 1,1,-1
 1067 858 l 1,2,-1
 1010 760 l 1,3,-1
 674 963 l 1,4,-1
 674 586 l 1,5,-1
 559 586 l 1,6,-1
 559 963 l 1,7,-1
 223 760 l 1,8,-1
 166 858 l 1,9,-1
 524 1053 l 1,10,-1
 166 1247 l 1,11,-1
 223 1346 l 1,12,-1
 559 1143 l 1,13,-1
 559 1520 l 1,14,-1
 674 1520 l 1,15,-1
 674 1143 l 1,16,-1
 1010 1346 l 1,17,-1
 1067 1247 l 1,0,-1
EndSplineSet
EndChar
StartChar: plus
Encoding: 43 43 43
Width: 1233
Flags: W
Fore
700 1171 m 1,0,-1
 700 727 l 1,1,-1
 1145 727 l 1,2,-1
 1145 557 l 1,3,-1
 700 557 l 1,4,-1
 700 113 l 1,5,-1
 532 113 l 1,6,-1
 532 557 l 1,7,-1
 88 557 l 1,8,-1
 88 727 l 1,9,-1
 532 727 l 1,10,-1
 532 1171 l 1,11,-1
 700 1171 l 1,0,-1
EndSplineSet
EndChar
StartChar: comma
Encoding: 44 44 44
Width: 1233
Flags: W
Fore
416 303 m 1,0,-1
 668 303 l 1,1,-1
 627 96 l 1,2,-1
 356 -287 l 1,3,-1
 203 -287 l 1,4,-1
 375 96 l 1,5,-1
 416 303 l 1,0,-1
EndSplineSet
EndChar
StartChar: hyphen
Encoding: 45 45 45
Width: 1233
Flags: W
Fore
336 643 m 1,0,-1
 858 643 l 1,1,-1
 825 479 l 1,2,-1
 303 479 l 1,3,-1
 336 643 l 1,0,-1
EndSplineSet
EndChar
StartChar: period
Encoding: 46 46 46
Width: 1233
Flags: W
Fore
414 303 m 1,0,-1
 666 303 l 1,1,-1
 606 0 l 1,2,-1
 354 0 l 1,3,-1
 414 303 l 1,0,-1
EndSplineSet
EndChar
StartChar: slash
Encoding: 47 47 47
Width: 1233
Flags: W
Fore
16 -190 m 1,0,-1
 868 1493 l 1,1,-1
 1059 1493 l 1,2,-1
 205 -190 l 1,3,-1
 16 -190 l 1,0,-1
EndSplineSet
EndChar
StartChar: zero
Encoding: 48 48 48
Width: 1233
Flags: W
Fore
481 750 m 0,0,1
 481 805 481 805 521 845 c 128,-1,2
 561 885 561 885 616 885 c 0,3,4
 671 885 671 885 710.5 845 c 128,-1,5
 750 805 750 805 750 750 c 0,6,7
 750 694 750 694 711 655 c 128,-1,8
 672 616 672 616 616 616 c 0,9,10
 561 616 561 616 521 655.5 c 128,-1,11
 481 695 481 695 481 750 c 0,0,1
1135 1020 m 0,12,13
 1135 829 1135 829 1077.5 607.5 c 128,-1,14
 1020 386 1020 386 936 248 c 0,15,16
 852 107 852 107 740.5 39 c 128,-1,17
 629 -29 629 -29 481 -29 c 0,18,19
 286 -29 286 -29 192 94 c 128,-1,20
 98 217 98 217 98 473 c 0,21,22
 98 665 98 665 155 884.5 c 128,-1,23
 212 1104 212 1104 297 1245 c 0,24,25
 382 1386 382 1386 492.5 1453 c 128,-1,26
 603 1520 603 1520 750 1520 c 0,27,28
 945 1520 945 1520 1040 1397 c 128,-1,29
 1135 1274 1135 1274 1135 1020 c 0,12,13
506 135 m 0,30,31
 586 135 586 135 654.5 186.5 c 128,-1,32
 723 238 723 238 770 334 c 0,33,34
 839 474 839 474 885.5 680.5 c 128,-1,35
 932 887 932 887 932 1063 c 0,36,37
 932 1217 932 1217 883 1286.5 c 128,-1,38
 834 1356 834 1356 727 1356 c 0,39,40
 647 1356 647 1356 578 1305 c 128,-1,41
 509 1254 509 1254 461 1159 c 0,42,43
 391 1020 391 1020 345 811.5 c 128,-1,44
 299 603 299 603 299 414 c 0,45,46
 299 273 299 273 350.5 204 c 128,-1,47
 402 135 402 135 506 135 c 0,30,31
EndSplineSet
EndChar
StartChar: one
Encoding: 49 49 49
Width: 1233
Flags: W
Fore
156 170 m 1,0,-1
 469 170 l 1,1,-1
 690 1311 l 1,2,-1
 338 1235 l 1,3,-1
 373 1419 l 1,4,-1
 725 1493 l 1,5,-1
 928 1493 l 1,6,-1
 670 170 l 1,7,-1
 979 170 l 1,8,-1
 946 0 l 1,9,-1
 123 0 l 1,10,-1
 156 170 l 1,0,-1
EndSplineSet
EndChar
StartChar: two
Encoding: 50 50 50
Width: 1233
Flags: W
Fore
268 170 m 1,0,-1
 952 170 l 1,1,-1
 920 0 l 1,2,-1
 6 0 l 1,3,-1
 39 170 l 1,4,-1
 350 444 l 1,5,-1
 389 479 l 2,6,7
 926 950 926 950 926 1153 c 0,8,9
 926 1246 926 1246 862 1299 c 128,-1,10
 798 1352 798 1352 684 1352 c 0,11,12
 592 1352 592 1352 486 1318.5 c 128,-1,13
 380 1285 380 1285 254 1217 c 1,14,-1
 295 1421 l 1,15,16
 407 1470 407 1470 511.5 1495 c 128,-1,17
 616 1520 616 1520 713 1520 c 0,18,19
 898 1520 898 1520 1012 1423 c 128,-1,20
 1126 1326 1126 1326 1126 1171 c 0,21,22
 1126 1075 1126 1075 1090.5 988.5 c 128,-1,23
 1055 902 1055 902 973 799 c 0,24,25
 940 757 940 757 854 678 c 128,-1,26
 768 599 768 599 588 444 c 2,27,-1
 268 170 l 1,0,-1
EndSplineSet
EndChar
StartChar: three
Encoding: 51 51 51
Width: 1233
Flags: W
Fore
762 799 m 1,0,1
 876 779 876 779 940 697 c 128,-1,2
 1004 615 1004 615 1004 489 c 0,3,4
 1004 255 1004 255 836.5 113 c 128,-1,5
 669 -29 669 -29 389 -29 c 0,6,7
 281 -29 281 -29 178.5 -10.5 c 128,-1,8
 76 8 76 8 -18 45 c 1,9,-1
 20 246 l 1,10,11
 111 194 111 194 206 167.5 c 128,-1,12
 301 141 301 141 399 141 c 0,13,14
 581 141 581 141 693 234.5 c 128,-1,15
 805 328 805 328 805 477 c 0,16,17
 805 594 805 594 733.5 654.5 c 128,-1,18
 662 715 662 715 524 715 c 2,19,-1
 371 715 l 1,20,-1
 403 881 l 1,21,-1
 557 881 l 2,22,23
 715 881 715 881 808 956 c 128,-1,24
 901 1031 901 1031 901 1155 c 0,25,26
 901 1255 901 1255 839.5 1302.5 c 128,-1,27
 778 1350 778 1350 649 1350 c 0,28,29
 567 1350 567 1350 470 1330 c 128,-1,30
 373 1310 373 1310 260 1270 c 1,31,-1
 297 1456 l 1,32,33
 420 1489 420 1489 517 1504.5 c 128,-1,34
 614 1520 614 1520 698 1520 c 0,35,36
 886 1520 886 1520 994 1432 c 128,-1,37
 1102 1344 1102 1344 1102 1192 c 0,38,39
 1102 1039 1102 1039 1012.5 935.5 c 128,-1,40
 923 832 923 832 762 799 c 1,0,1
EndSplineSet
EndChar
StartChar: four
Encoding: 52 52 52
Width: 1233
Flags: W
Fore
842 1282 m 1,0,-1
 217 520 l 1,1,-1
 690 520 l 1,2,-1
 842 1282 l 1,0,-1
846 1493 m 1,3,-1
 1079 1493 l 1,4,-1
 889 520 l 1,5,-1
 1087 520 l 1,6,-1
 1057 356 l 1,7,-1
 858 356 l 1,8,-1
 788 0 l 1,9,-1
 590 0 l 1,10,-1
 659 356 l 1,11,-1
 25 356 l 1,12,-1
 61 547 l 1,13,-1
 846 1493 l 1,3,-1
EndSplineSet
EndChar
StartChar: five
Encoding: 53 53 53
Width: 1233
Flags: W
Fore
352 1493 m 1,0,-1
 1108 1493 l 1,1,-1
 1075 1323 l 1,2,-1
 504 1323 l 1,3,-1
 432 956 l 1,4,5
 479 972 479 972 523.5 979.5 c 128,-1,6
 568 987 568 987 612 987 c 0,7,8
 800 987 800 987 915 873.5 c 128,-1,9
 1030 760 1030 760 1030 575 c 0,10,11
 1030 451 1030 451 977.5 334 c 128,-1,12
 925 217 925 217 829 131 c 0,13,14
 741 51 741 51 627.5 11 c 128,-1,15
 514 -29 514 -29 371 -29 c 0,16,17
 263 -29 263 -29 169.5 -12.5 c 128,-1,18
 76 4 76 4 4 35 c 1,19,-1
 45 240 l 1,20,21
 129 189 129 189 217 164 c 128,-1,22
 305 139 305 139 399 139 c 0,23,24
 585 139 585 139 707 256 c 128,-1,25
 829 373 829 373 829 547 c 0,26,27
 829 675 829 675 748.5 748 c 128,-1,28
 668 821 668 821 526 821 c 0,29,30
 447 821 447 821 364.5 801 c 128,-1,31
 282 781 282 781 207 743 c 1,32,-1
 352 1493 l 1,0,-1
EndSplineSet
EndChar
StartChar: six
Encoding: 54 54 54
Width: 1233
Flags: W
Fore
860 594 m 0,0,1
 860 707 860 707 802 768 c 128,-1,2
 744 829 744 829 637 829 c 0,3,4
 491 829 491 829 392 703 c 128,-1,5
 293 577 293 577 293 387 c 0,6,7
 293 266 293 266 354 197.5 c 128,-1,8
 415 129 415 129 522 129 c 0,9,10
 666 129 666 129 763 263 c 128,-1,11
 860 397 860 397 860 594 c 0,0,1
1128 1460 m 1,12,-1
 1092 1274 l 1,13,14
 1034 1311 1034 1311 966 1330.5 c 128,-1,15
 898 1350 898 1350 823 1350 c 0,16,17
 630 1350 630 1350 504.5 1206.5 c 128,-1,18
 379 1063 379 1063 324 780 c 1,19,20
 392 882 392 882 485.5 934.5 c 128,-1,21
 579 987 579 987 692 987 c 0,22,23
 870 987 870 987 966.5 887.5 c 128,-1,24
 1063 788 1063 788 1063 604 c 0,25,26
 1063 485 1063 485 1023 366 c 128,-1,27
 983 247 983 247 915 164 c 0,28,29
 837 67 837 67 737.5 19 c 128,-1,30
 638 -29 638 -29 516 -29 c 0,31,32
 313 -29 313 -29 202.5 88 c 128,-1,33
 92 205 92 205 92 420 c 0,34,35
 92 586 92 586 131 765 c 128,-1,36
 170 944 170 944 238 1090 c 0,37,38
 336 1305 336 1305 488.5 1412.5 c 128,-1,39
 641 1520 641 1520 848 1520 c 0,40,41
 923 1520 923 1520 994 1504.5 c 128,-1,42
 1065 1489 1065 1489 1128 1460 c 1,12,-1
EndSplineSet
EndChar
StartChar: seven
Encoding: 55 55 55
Width: 1233
Flags: W
Fore
276 1493 m 1,0,-1
 1212 1493 l 1,1,-1
 1196 1399 l 1,2,-1
 391 0 l 1,3,-1
 174 0 l 1,4,-1
 952 1323 l 1,5,-1
 244 1323 l 1,6,-1
 276 1493 l 1,0,-1
EndSplineSet
EndChar
StartChar: eight
Encoding: 56 56 56
Width: 1233
Flags: W
Fore
821 461 m 0,0,1
 821 577 821 577 755 643 c 128,-1,2
 689 709 689 709 571 709 c 0,3,4
 429 709 429 709 337.5 610.5 c 128,-1,5
 246 512 246 512 246 358 c 0,6,7
 246 253 246 253 313 190 c 128,-1,8
 380 127 380 127 492 127 c 0,9,10
 640 127 640 127 730.5 219 c 128,-1,11
 821 311 821 311 821 461 c 0,0,1
430 793 m 1,12,13
 323 831 323 831 269 903.5 c 128,-1,14
 215 976 215 976 215 1081 c 0,15,16
 215 1263 215 1263 363 1391.5 c 128,-1,17
 511 1520 511 1520 725 1520 c 0,18,19
 903 1520 903 1520 1014.5 1429 c 128,-1,20
 1126 1338 1126 1338 1126 1194 c 0,21,22
 1126 1050 1126 1050 1029 936.5 c 128,-1,23
 932 823 932 823 772 782 c 1,24,25
 898 752 898 752 962 669 c 128,-1,26
 1026 586 1026 586 1026 453 c 0,27,28
 1026 244 1026 244 874 107.5 c 128,-1,29
 722 -29 722 -29 485 -29 c 0,30,31
 278 -29 278 -29 159.5 73 c 128,-1,32
 41 175 41 175 41 354 c 0,33,34
 41 520 41 520 145.5 638 c 128,-1,35
 250 756 250 756 430 793 c 1,12,13
707 1364 m 0,36,37
 580 1364 580 1364 498 1283.5 c 128,-1,38
 416 1203 416 1203 416 1079 c 0,39,40
 416 980 416 980 474.5 923 c 128,-1,41
 533 866 533 866 635 866 c 0,42,43
 758 866 758 866 842 953 c 128,-1,44
 926 1040 926 1040 926 1165 c 0,45,46
 926 1256 926 1256 866 1310 c 128,-1,47
 806 1364 806 1364 707 1364 c 0,36,37
EndSplineSet
EndChar
StartChar: nine
Encoding: 57 57 57
Width: 1233
Flags: W
Fore
330 897 m 0,0,1
 330 784 330 784 388 723 c 128,-1,2
 446 662 446 662 553 662 c 0,3,4
 699 662 699 662 798 788 c 128,-1,5
 897 914 897 914 897 1104 c 0,6,7
 897 1226 897 1226 837 1294 c 128,-1,8
 777 1362 777 1362 670 1362 c 0,9,10
 526 1362 526 1362 428 1228 c 128,-1,11
 330 1094 330 1094 330 897 c 0,0,1
63 31 m 1,12,-1
 98 217 l 1,13,14
 156 180 156 180 224 160.5 c 128,-1,15
 292 141 292 141 367 141 c 0,16,17
 560 141 560 141 685.5 284.5 c 128,-1,18
 811 428 811 428 866 711 c 1,19,20
 798 609 798 609 704.5 556.5 c 128,-1,21
 611 504 611 504 498 504 c 0,22,23
 320 504 320 504 223.5 604 c 128,-1,24
 127 704 127 704 127 889 c 0,25,26
 127 1007 127 1007 167 1125.5 c 128,-1,27
 207 1244 207 1244 274 1327 c 0,28,29
 352 1423 352 1423 452 1471.5 c 128,-1,30
 552 1520 552 1520 674 1520 c 0,31,32
 877 1520 877 1520 988.5 1402.5 c 128,-1,33
 1100 1285 1100 1285 1100 1071 c 0,34,35
 1100 905 1100 905 1061 726 c 128,-1,36
 1022 547 1022 547 954 401 c 0,37,38
 856 187 856 187 703 79 c 128,-1,39
 550 -29 550 -29 342 -29 c 0,40,41
 267 -29 267 -29 197 -14 c 128,-1,42
 127 1 127 1 63 31 c 1,12,-1
EndSplineSet
EndChar
StartChar: colon
Encoding: 58 58 58
Width: 1233
Flags: W
Fore
551 1061 m 1,0,-1
 803 1061 l 1,1,-1
 743 758 l 1,2,-1
 492 758 l 1,3,-1
 551 1061 l 1,0,-1
403 303 m 1,4,-1
 655 303 l 1,5,-1
 596 0 l 1,6,-1
 344 0 l 1,7,-1
 403 303 l 1,4,-1
EndSplineSet
EndChar
StartChar: semicolon
Encoding: 59 59 59
Width: 1233
Flags: W
Fore
403 303 m 1,0,-1
 655 303 l 1,1,-1
 614 96 l 1,2,-1
 356 -287 l 1,3,-1
 203 -287 l 1,4,-1
 362 96 l 1,5,-1
 403 303 l 1,0,-1
551 1063 m 1,6,-1
 803 1063 l 1,7,-1
 743 760 l 1,8,-1
 492 760 l 1,9,-1
 551 1063 l 1,6,-1
EndSplineSet
EndChar
StartChar: less
Encoding: 60 60 60
Width: 1233
Flags: W
Fore
1145 961 m 1,0,-1
 295 641 l 1,1,-1
 1145 324 l 1,2,-1
 1145 141 l 1,3,-1
 88 559 l 1,4,-1
 88 725 l 1,5,-1
 1145 1143 l 1,6,-1
 1145 961 l 1,0,-1
EndSplineSet
EndChar
StartChar: equal
Encoding: 61 61 61
Width: 1233
Flags: W
Fore
88 524 m 1,0,-1
 1145 524 l 1,1,-1
 1145 352 l 1,2,-1
 88 352 l 1,3,-1
 88 524 l 1,0,-1
88 930 m 1,4,-1
 1145 930 l 1,5,-1
 1145 760 l 1,6,-1
 88 760 l 1,7,-1
 88 930 l 1,4,-1
EndSplineSet
EndChar
StartChar: greater
Encoding: 62 62 62
Width: 1233
Flags: W
Fore
88 961 m 1,0,-1
 88 1143 l 1,1,-1
 1145 725 l 1,2,-1
 1145 559 l 1,3,-1
 88 141 l 1,4,-1
 88 324 l 1,5,-1
 938 641 l 1,6,-1
 88 961 l 1,0,-1
EndSplineSet
EndChar
StartChar: question
Encoding: 63 63 63
Width: 1233
Flags: W
Fore
608 401 m 1,0,-1
 418 401 l 1,1,-1
 446 555 l 1,2,3
 465 646 465 646 503.5 711 c 128,-1,4
 542 776 542 776 655 870 c 1,5,-1
 762 961 l 2,6,7
 847 1033 847 1033 882.5 1088.5 c 128,-1,8
 918 1144 918 1144 918 1200 c 0,9,10
 918 1274 918 1274 862 1315 c 128,-1,11
 806 1356 806 1356 707 1356 c 0,12,13
 628 1356 628 1356 529.5 1320.5 c 128,-1,14
 431 1285 431 1285 326 1219 c 1,15,-1
 362 1407 l 1,16,17
 471 1464 471 1464 572 1492 c 128,-1,18
 673 1520 673 1520 774 1520 c 0,19,20
 927 1520 927 1520 1023.5 1438.5 c 128,-1,21
 1120 1357 1120 1357 1120 1231 c 0,22,23
 1120 1137 1120 1137 1071.5 1056.5 c 128,-1,24
 1023 976 1023 976 893 868 c 2,25,-1
 788 782 l 2,26,27
 704 712 704 712 674 661 c 128,-1,28
 644 610 644 610 629 524 c 1,29,-1
 608 401 l 1,0,-1
383 254 m 1,30,-1
 586 254 l 1,31,-1
 537 0 l 1,32,-1
 332 0 l 1,33,-1
 383 254 l 1,30,-1
EndSplineSet
EndChar
StartChar: at
Encoding: 64 64 64
Width: 1233
Flags: W
Fore
709 260 m 0,0,1
 834 260 834 260 921 365.5 c 128,-1,2
 1008 471 1008 471 1008 623 c 0,3,4
 1008 719 1008 719 957.5 774 c 128,-1,5
 907 829 907 829 819 829 c 0,6,7
 696 829 696 829 610 724.5 c 128,-1,8
 524 620 524 620 524 469 c 0,9,10
 524 372 524 372 573.5 316 c 128,-1,11
 623 260 623 260 709 260 c 0,0,1
1059 135 m 1,12,-1
 915 135 l 1,13,-1
 936 246 l 1,14,15
 885 183 885 183 814 149 c 128,-1,16
 743 115 743 115 662 115 c 0,17,18
 531 115 531 115 448 207 c 128,-1,19
 365 299 365 299 365 444 c 0,20,21
 365 664 365 664 497 820.5 c 128,-1,22
 629 977 629 977 811 977 c 0,23,24
 895 977 895 977 959.5 941 c 128,-1,25
 1024 905 1024 905 1053 844 c 1,26,-1
 1061 887 l 1,27,28
 1067 922 1067 922 1070 948 c 128,-1,29
 1073 974 1073 974 1073 989 c 0,30,31
 1073 1115 1073 1115 1000 1185 c 128,-1,32
 927 1255 927 1255 797 1255 c 0,33,34
 655 1255 655 1255 523.5 1177 c 128,-1,35
 392 1099 392 1099 297 956 c 0,36,37
 213 831 213 831 169 681.5 c 128,-1,38
 125 532 125 532 125 375 c 0,39,40
 125 118 125 118 254 -29 c 128,-1,41
 383 -176 383 -176 608 -176 c 0,42,43
 665 -176 665 -176 725 -163.5 c 128,-1,44
 785 -151 785 -151 852 -125 c 1,45,-1
 897 -256 l 1,46,47
 831 -287 831 -287 760 -302 c 128,-1,48
 689 -317 689 -317 606 -317 c 0,49,50
 318 -317 318 -317 144.5 -127.5 c 128,-1,51
 -29 62 -29 62 -29 379 c 0,52,53
 -29 580 -29 580 42.5 779.5 c 128,-1,54
 114 979 114 979 238 1124 c 1,55,56
 348 1255 348 1255 495 1326 c 128,-1,57
 642 1397 642 1397 801 1397 c 0,58,59
 990 1397 990 1397 1102 1292.5 c 128,-1,60
 1214 1188 1214 1188 1214 1012 c 0,61,62
 1214 982 1214 982 1209.5 943.5 c 128,-1,63
 1205 905 1205 905 1196 858 c 2,64,-1
 1059 135 l 1,12,-1
EndSplineSet
EndChar
StartChar: A
Encoding: 65 65 65
Width: 1233
Flags: W
Fore
735 1325 m 1,0,-1
 371 551 l 1,1,-1
 801 551 l 1,2,-1
 735 1325 l 1,0,-1
639 1493 m 1,3,-1
 885 1493 l 1,4,-1
 1051 0 l 1,5,-1
 850 0 l 1,6,-1
 815 389 l 1,7,-1
 295 389 l 1,8,-1
 111 0 l 1,9,-1
 -106 0 l 1,10,-1
 639 1493 l 1,3,-1
EndSplineSet
EndChar
StartChar: B
Encoding: 66 66 66
Width: 1233
Flags: W
Fore
365 713 m 1,0,-1
 258 166 l 1,1,-1
 506 166 l 2,2,3
 690 166 690 166 787.5 253 c 128,-1,4
 885 340 885 340 885 504 c 0,5,6
 885 611 885 611 817 662 c 128,-1,7
 749 713 749 713 606 713 c 2,8,-1
 365 713 l 1,0,-1
483 1327 m 1,9,-1
 395 877 l 1,10,-1
 639 877 l 2,11,12
 790 877 790 877 876.5 949.5 c 128,-1,13
 963 1022 963 1022 963 1149 c 0,14,15
 963 1243 963 1243 907.5 1285 c 128,-1,16
 852 1327 852 1327 727 1327 c 2,17,-1
 483 1327 l 1,9,-1
313 1493 m 1,18,-1
 756 1493 l 2,19,20
 959 1493 959 1493 1063 1413.5 c 128,-1,21
 1167 1334 1167 1334 1167 1180 c 0,22,23
 1167 1026 1167 1026 1075 922.5 c 128,-1,24
 983 819 983 819 827 799 c 1,25,26
 952 776 952 776 1018.5 697 c 128,-1,27
 1085 618 1085 618 1085 494 c 0,28,29
 1085 260 1085 260 925.5 130 c 128,-1,30
 766 0 766 0 475 0 c 2,31,-1
 23 0 l 1,32,-1
 313 1493 l 1,18,-1
EndSplineSet
EndChar
StartChar: C
Encoding: 67 67 67
Width: 1233
Flags: W
Fore
944 53 m 1,0,1
 860 12 860 12 774.5 -8.5 c 128,-1,2
 689 -29 689 -29 598 -29 c 0,3,4
 368 -29 368 -29 241.5 104 c 128,-1,5
 115 237 115 237 115 477 c 0,6,7
 115 697 115 697 185 913 c 128,-1,8
 255 1129 255 1129 369 1266 c 0,9,10
 476 1396 476 1396 605 1458 c 128,-1,11
 734 1520 734 1520 899 1520 c 0,12,13
 979 1520 979 1520 1058 1499 c 128,-1,14
 1137 1478 1137 1478 1212 1438 c 1,15,-1
 1171 1231 l 1,16,17
 1107 1294 1107 1294 1036 1325 c 128,-1,18
 965 1356 965 1356 885 1356 c 0,19,20
 790 1356 790 1356 709 1315.5 c 128,-1,21
 628 1275 628 1275 557 1192 c 0,22,23
 453 1069 453 1069 389.5 877 c 128,-1,24
 326 685 326 685 326 492 c 0,25,26
 326 319 326 319 404 227 c 128,-1,27
 482 135 482 135 629 135 c 0,28,29
 714 135 714 135 804.5 167 c 128,-1,30
 895 199 895 199 983 260 c 1,31,-1
 944 53 l 1,0,1
EndSplineSet
EndChar
StartChar: D
Encoding: 68 68 68
Width: 1233
Flags: W
Fore
324 166 m 2,0,1
 509 166 509 166 621 228.5 c 128,-1,2
 733 291 733 291 801 432 c 0,3,4
 855 547 855 547 889.5 706.5 c 128,-1,5
 924 866 924 866 924 999 c 0,6,7
 924 1175 924 1175 842 1251 c 128,-1,8
 760 1327 760 1327 567 1327 c 2,9,-1
 453 1327 l 1,10,-1
 227 166 l 1,11,-1
 324 166 l 2,0,1
586 1493 m 2,12,13
 859 1493 859 1493 994.5 1369 c 128,-1,14
 1130 1245 1130 1245 1130 993 c 0,15,16
 1130 831 1130 831 1088 659 c 128,-1,17
 1046 487 1046 487 975 354 c 0,18,19
 871 163 871 163 715.5 81.5 c 128,-1,20
 560 0 560 0 295 0 c 2,21,-1
 -8 0 l 1,22,-1
 283 1493 l 1,23,-1
 586 1493 l 2,12,13
EndSplineSet
EndChar
StartChar: E
Encoding: 69 69 69
Width: 1233
Flags: W
Fore
344 1493 m 1,0,-1
 1229 1493 l 1,1,-1
 1196 1323 l 1,2,-1
 512 1323 l 1,3,-1
 426 881 l 1,4,-1
 1079 881 l 1,5,-1
 1047 711 l 1,6,-1
 393 711 l 1,7,-1
 289 170 l 1,8,-1
 991 170 l 1,9,-1
 958 0 l 1,10,-1
 53 0 l 1,11,-1
 344 1493 l 1,0,-1
EndSplineSet
EndChar
StartChar: F
Encoding: 70 70 70
Width: 1233
Flags: W
Fore
383 1493 m 1,0,-1
 1262 1493 l 1,1,-1
 1229 1323 l 1,2,-1
 553 1323 l 1,3,-1
 467 883 l 1,4,-1
 1079 883 l 1,5,-1
 1047 713 l 1,6,-1
 434 713 l 1,7,-1
 295 0 l 1,8,-1
 92 0 l 1,9,-1
 383 1493 l 1,0,-1
EndSplineSet
EndChar
StartChar: G
Encoding: 71 71 71
Width: 1233
Flags: W
Fore
969 96 m 1,0,1
 882 34 882 34 779 2.5 c 128,-1,2
 676 -29 676 -29 559 -29 c 0,3,4
 327 -29 327 -29 202.5 105.5 c 128,-1,5
 78 240 78 240 78 489 c 0,6,7
 78 579 78 579 94.5 680.5 c 128,-1,8
 111 782 111 782 143 893 c 0,9,10
 178 1010 178 1010 225 1104.5 c 128,-1,11
 272 1199 272 1199 328 1266 c 0,12,13
 435 1396 435 1396 564.5 1458 c 128,-1,14
 694 1520 694 1520 860 1520 c 0,15,16
 940 1520 940 1520 1019.5 1499 c 128,-1,17
 1099 1478 1099 1478 1176 1438 c 1,18,-1
 1135 1231 l 1,19,20
 1070 1294 1070 1294 998.5 1325 c 128,-1,21
 927 1356 927 1356 846 1356 c 0,22,23
 748 1356 748 1356 662 1314.5 c 128,-1,24
 576 1273 576 1273 508 1192 c 0,25,26
 464 1140 464 1140 425 1062 c 128,-1,27
 386 984 386 984 356 887 c 0,28,29
 322 773 322 773 304.5 673 c 128,-1,30
 287 573 287 573 287 492 c 0,31,32
 287 321 287 321 366 228 c 128,-1,33
 445 135 445 135 590 135 c 0,34,35
 658 135 658 135 712 153.5 c 128,-1,36
 766 172 766 172 803 207 c 1,37,-1
 879 600 l 1,38,-1
 662 600 l 1,39,-1
 692 766 l 1,40,-1
 1102 766 l 1,41,-1
 969 96 l 1,0,1
EndSplineSet
EndChar
StartChar: H
Encoding: 72 72 72
Width: 1233
Flags: W
Fore
283 1493 m 1,0,-1
 485 1493 l 1,1,-1
 367 881 l 1,2,-1
 920 881 l 1,3,-1
 1038 1493 l 1,4,-1
 1241 1493 l 1,5,-1
 950 0 l 1,6,-1
 748 0 l 1,7,-1
 887 711 l 1,8,-1
 332 711 l 1,9,-1
 195 0 l 1,10,-1
 -8 0 l 1,11,-1
 283 1493 l 1,0,-1
EndSplineSet
EndChar
StartChar: I
Encoding: 73 73 73
Width: 1233
Flags: W
Fore
346 1493 m 1,0,-1
 1176 1493 l 1,1,-1
 1143 1323 l 1,2,-1
 829 1323 l 1,3,-1
 606 170 l 1,4,-1
 920 170 l 1,5,-1
 887 0 l 1,6,-1
 57 0 l 1,7,-1
 90 170 l 1,8,-1
 403 170 l 1,9,-1
 627 1323 l 1,10,-1
 313 1323 l 1,11,-1
 346 1493 l 1,0,-1
EndSplineSet
EndChar
StartChar: J
Encoding: 74 74 74
Width: 1233
Flags: W
Fore
-25 61 m 1,0,-1
 20 297 l 1,1,2
 92 218 92 218 184 176.5 c 128,-1,3
 276 135 276 135 379 135 c 0,4,5
 521 135 521 135 591.5 208 c 128,-1,6
 662 281 662 281 702 487 c 1,7,-1
 866 1323 l 1,8,-1
 485 1323 l 1,9,-1
 518 1493 l 1,10,-1
 1102 1493 l 1,11,-1
 905 487 l 1,12,13
 849 198 849 198 729 84.5 c 128,-1,14
 609 -29 609 -29 371 -29 c 0,15,16
 274 -29 274 -29 174 -6 c 128,-1,17
 74 17 74 17 -25 61 c 1,0,-1
EndSplineSet
EndChar
StartChar: K
Encoding: 75 75 75
Width: 1233
Flags: W
Fore
283 1493 m 1,0,-1
 485 1493 l 1,1,-1
 358 846 l 1,2,-1
 1100 1493 l 1,3,-1
 1354 1493 l 1,4,-1
 651 874 l 1,5,-1
 1079 0 l 1,6,-1
 860 0 l 1,7,-1
 500 741 l 1,8,-1
 307 573 l 1,9,-1
 195 0 l 1,10,-1
 -8 0 l 1,11,-1
 283 1493 l 1,0,-1
EndSplineSet
EndChar
StartChar: L
Encoding: 76 76 76
Width: 1233
Flags: W
Fore
369 1493 m 1,0,-1
 571 1493 l 1,1,-1
 313 170 l 1,2,-1
 1034 170 l 1,3,-1
 1001 0 l 1,4,-1
 78 0 l 1,5,-1
 369 1493 l 1,0,-1
EndSplineSet
EndChar
StartChar: M
Encoding: 77 77 77
Width: 1233
Flags: W
Fore
229 1493 m 1,0,-1
 498 1493 l 1,1,-1
 608 737 l 1,2,-1
 1022 1493 l 1,3,-1
 1292 1493 l 1,4,-1
 1001 0 l 1,5,-1
 815 0 l 1,6,-1
 1073 1327 l 1,7,-1
 639 532 l 1,8,-1
 498 532 l 1,9,-1
 383 1327 l 1,10,-1
 127 0 l 1,11,-1
 -59 0 l 1,12,-1
 229 1493 l 1,0,-1
EndSplineSet
EndChar
StartChar: N
Encoding: 78 78 78
Width: 1233
Flags: W
Fore
285 1493 m 1,0,-1
 541 1493 l 1,1,-1
 805 264 l 1,2,-1
 1044 1493 l 1,3,-1
 1239 1493 l 1,4,-1
 948 0 l 1,5,-1
 692 0 l 1,6,-1
 428 1229 l 1,7,-1
 188 0 l 1,8,-1
 -6 0 l 1,9,-1
 285 1493 l 1,0,-1
EndSplineSet
EndChar
StartChar: O
Encoding: 79 79 79
Width: 1233
Flags: W
Fore
502 135 m 0,0,1
 587 135 587 135 659 186 c 128,-1,2
 731 237 731 237 778 332 c 0,3,4
 852 477 852 477 898 683 c 128,-1,5
 944 889 944 889 944 1079 c 0,6,7
 944 1221 944 1221 891.5 1288.5 c 128,-1,8
 839 1356 839 1356 729 1356 c 0,9,10
 644 1356 644 1356 573 1305 c 128,-1,11
 502 1254 502 1254 455 1159 c 1,12,13
 379 1012 379 1012 333 808 c 128,-1,14
 287 604 287 604 287 414 c 0,15,16
 287 271 287 271 339.5 203 c 128,-1,17
 392 135 392 135 502 135 c 0,0,1
1151 1020 m 0,18,19
 1151 910 1151 910 1128.5 781 c 128,-1,20
 1106 652 1106 652 1063 516 c 0,21,22
 1034 424 1034 424 1000.5 351 c 128,-1,23
 967 278 967 278 928 219 c 1,24,25
 840 92 840 92 731 31.5 c 128,-1,26
 622 -29 622 -29 477 -29 c 0,27,28
 276 -29 276 -29 179 94 c 128,-1,29
 82 217 82 217 82 473 c 0,30,31
 82 584 82 584 103.5 711.5 c 128,-1,32
 125 839 125 839 168 975 c 0,33,34
 197 1067 197 1067 230.5 1140 c 128,-1,35
 264 1213 264 1213 303 1272 c 1,36,37
 391 1399 391 1399 500 1459.5 c 128,-1,38
 609 1520 609 1520 754 1520 c 0,39,40
 956 1520 956 1520 1053.5 1397.5 c 128,-1,41
 1151 1275 1151 1275 1151 1020 c 0,18,19
EndSplineSet
EndChar
StartChar: P
Encoding: 80 80 80
Width: 1233
Flags: W
Fore
512 1327 m 1,0,-1
 403 766 l 1,1,-1
 637 766 l 2,2,3
 802 766 802 766 900.5 861.5 c 128,-1,4
 999 957 999 957 999 1116 c 0,5,6
 999 1224 999 1224 937 1275.5 c 128,-1,7
 875 1327 875 1327 745 1327 c 2,8,-1
 512 1327 l 1,0,-1
342 1493 m 1,9,-1
 782 1493 l 2,10,11
 988 1493 988 1493 1096 1401 c 128,-1,12
 1204 1309 1204 1309 1204 1135 c 0,13,14
 1204 886 1204 886 1044 743 c 128,-1,15
 884 600 884 600 604 600 c 2,16,-1
 371 600 l 1,17,-1
 254 0 l 1,18,-1
 51 0 l 1,19,-1
 342 1493 l 1,9,-1
EndSplineSet
EndChar
StartChar: Q
Encoding: 81 81 81
Width: 1233
Flags: W
Fore
504 -27 m 1,0,-1
 494 -27 l 2,1,2
 279 -27 279 -27 180.5 92 c 128,-1,3
 82 211 82 211 82 473 c 0,4,5
 82 584 82 584 103.5 711.5 c 128,-1,6
 125 839 125 839 168 975 c 0,7,8
 197 1067 197 1067 230.5 1140 c 128,-1,9
 264 1213 264 1213 303 1272 c 1,10,11
 391 1399 391 1399 500 1459.5 c 128,-1,12
 609 1520 609 1520 754 1520 c 0,13,14
 956 1520 956 1520 1053.5 1397.5 c 128,-1,15
 1151 1275 1151 1275 1151 1020 c 0,16,17
 1151 937 1151 937 1136.5 838.5 c 128,-1,18
 1122 740 1122 740 1094 629 c 0,19,20
 1064 513 1064 513 1032 427 c 128,-1,21
 1000 341 1000 341 963 274 c 0,22,23
 909 179 909 179 839 111 c 128,-1,24
 769 43 769 43 690 10 c 1,25,-1
 844 -178 l 1,26,-1
 690 -270 l 1,27,-1
 504 -27 l 1,0,-1
502 135 m 0,28,29
 587 135 587 135 659 186 c 128,-1,30
 731 237 731 237 778 332 c 0,31,32
 852 477 852 477 898 683 c 128,-1,33
 944 889 944 889 944 1079 c 0,34,35
 944 1221 944 1221 891.5 1288.5 c 128,-1,36
 839 1356 839 1356 729 1356 c 0,37,38
 644 1356 644 1356 573 1305 c 128,-1,39
 502 1254 502 1254 455 1159 c 1,40,41
 379 1012 379 1012 333 808 c 128,-1,42
 287 604 287 604 287 414 c 0,43,44
 287 271 287 271 339.5 203 c 128,-1,45
 392 135 392 135 502 135 c 0,28,29
EndSplineSet
EndChar
StartChar: R
Encoding: 82 82 82
Width: 1233
Flags: W
Fore
766 705 m 1,0,1
 838 691 838 691 881.5 638 c 128,-1,2
 925 585 925 585 979 408 c 1,3,-1
 1100 0 l 1,4,-1
 899 0 l 1,5,-1
 793 377 l 2,6,7
 749 533 749 533 694.5 582 c 128,-1,8
 640 631 640 631 530 631 c 2,9,-1
 338 631 l 1,10,-1
 215 0 l 1,11,-1
 12 0 l 1,12,-1
 301 1493 l 1,13,-1
 717 1493 l 2,14,15
 924 1493 924 1493 1037.5 1403.5 c 128,-1,16
 1151 1314 1151 1314 1151 1151 c 0,17,18
 1151 968 1151 968 1047.5 848 c 128,-1,19
 944 728 944 728 766 705 c 1,0,1
473 1327 m 1,20,-1
 371 797 l 1,21,-1
 590 797 l 2,22,23
 753 797 753 797 850.5 882.5 c 128,-1,24
 948 968 948 968 948 1110 c 0,25,26
 948 1222 948 1222 885 1274.5 c 128,-1,27
 822 1327 822 1327 686 1327 c 2,28,-1
 473 1327 l 1,20,-1
EndSplineSet
EndChar
StartChar: S
Encoding: 83 83 83
Width: 1233
Flags: W
Fore
1147 1442 m 1,0,-1
 1108 1237 l 1,1,2
 1027 1296 1027 1296 940 1326 c 128,-1,3
 853 1356 853 1356 760 1356 c 0,4,5
 595 1356 595 1356 491 1274 c 128,-1,6
 387 1192 387 1192 387 1065 c 0,7,8
 387 994 387 994 436 950 c 128,-1,9
 485 906 485 906 614 866 c 2,10,-1
 735 827 l 1,11,12
 898 777 898 777 973.5 693.5 c 128,-1,13
 1049 610 1049 610 1049 481 c 0,14,15
 1049 246 1049 246 883 108.5 c 128,-1,16
 717 -29 717 -29 430 -29 c 0,17,18
 326 -29 326 -29 225.5 -6.5 c 128,-1,19
 125 16 125 16 25 61 c 1,20,-1
 66 270 l 1,21,22
 164 201 164 201 264.5 168 c 128,-1,23
 365 135 365 135 477 135 c 0,24,25
 642 135 642 135 745 223 c 128,-1,26
 848 311 848 311 848 446 c 0,27,28
 848 528 848 528 804 573 c 128,-1,29
 760 618 760 618 627 659 c 1,30,-1
 526 692 l 2,31,32
 342 750 342 750 268.5 823.5 c 128,-1,33
 195 897 195 897 195 1018 c 0,34,35
 195 1239 195 1239 360 1379.5 c 128,-1,36
 525 1520 525 1520 791 1520 c 0,37,38
 871 1520 871 1520 961.5 1500 c 128,-1,39
 1052 1480 1052 1480 1147 1442 c 1,0,-1
EndSplineSet
EndChar
StartChar: T
Encoding: 84 84 84
Width: 1233
Flags: W
Fore
193 1493 m 1,0,-1
 1333 1493 l 1,1,-1
 1300 1323 l 1,2,-1
 831 1323 l 1,3,-1
 575 0 l 1,4,-1
 371 0 l 1,5,-1
 629 1323 l 1,6,-1
 160 1323 l 1,7,-1
 193 1493 l 1,0,-1
EndSplineSet
EndChar
StartChar: U
Encoding: 85 85 85
Width: 1233
Flags: W
Fore
115 573 m 2,0,-1
 293 1493 l 1,1,-1
 496 1493 l 1,2,-1
 317 573 l 1,3,4
 315 560 315 560 309 532 c 0,5,6
 279 378 279 378 279 319 c 0,7,8
 279 227 279 227 333.5 181 c 128,-1,9
 388 135 388 135 498 135 c 0,10,11
 587 135 587 135 649 163.5 c 128,-1,12
 711 192 711 192 756 254 c 0,13,14
 778 285 778 285 800.5 360.5 c 128,-1,15
 823 436 823 436 850 573 c 1,16,-1
 1028 1493 l 1,17,-1
 1231 1493 l 1,18,-1
 1053 573 l 1,19,20
 1011 354 1011 354 963.5 251.5 c 128,-1,21
 916 149 916 149 838 86 c 0,22,23
 767 30 767 30 676 0.5 c 128,-1,24
 585 -29 585 -29 479 -29 c 0,25,26
 287 -29 287 -29 183.5 61 c 128,-1,27
 80 151 80 151 80 317 c 0,28,29
 80 354 80 354 88.5 417 c 128,-1,30
 97 480 97 480 115 573 c 2,0,-1
EndSplineSet
EndChar
StartChar: V
Encoding: 86 86 86
Width: 1233
Flags: W
Fore
510 190 m 1,0,-1
 1108 1493 l 1,1,-1
 1323 1493 l 1,2,-1
 604 0 l 1,3,-1
 346 0 l 1,4,-1
 199 1493 l 1,5,-1
 397 1493 l 1,6,-1
 510 190 l 1,0,-1
EndSplineSet
EndChar
StartChar: W
Encoding: 87 87 87
Width: 1233
Flags: W
Fore
145 1493 m 1,0,-1
 336 1493 l 1,1,-1
 246 283 l 1,2,-1
 575 1083 l 1,3,-1
 786 1083 l 1,4,-1
 801 281 l 1,5,-1
 1178 1493 l 1,6,-1
 1376 1493 l 1,7,-1
 866 0 l 1,8,-1
 672 0 l 1,9,-1
 641 870 l 1,10,-1
 270 0 l 1,11,-1
 82 0 l 1,12,-1
 145 1493 l 1,0,-1
EndSplineSet
EndChar
StartChar: X
Encoding: 88 88 88
Width: 1233
Flags: W
Fore
242 1493 m 1,0,-1
 442 1493 l 1,1,-1
 666 961 l 1,2,-1
 1106 1493 l 1,3,-1
 1337 1493 l 1,4,-1
 741 774 l 1,5,-1
 1065 0 l 1,6,-1
 864 0 l 1,7,-1
 610 612 l 1,8,-1
 104 0 l 1,9,-1
 -127 0 l 1,10,-1
 530 797 l 1,11,-1
 242 1493 l 1,0,-1
EndSplineSet
EndChar
StartChar: Y
Encoding: 89 89 89
Width: 1233
Flags: W
Fore
195 1493 m 1,0,-1
 397 1493 l 1,1,-1
 633 842 l 1,2,-1
 1130 1493 l 1,3,-1
 1348 1493 l 1,4,-1
 713 670 l 1,5,-1
 584 0 l 1,6,-1
 377 0 l 1,7,-1
 508 670 l 1,8,-1
 195 1493 l 1,0,-1
EndSplineSet
EndChar
StartChar: Z
Encoding: 90 90 90
Width: 1233
Flags: W
Fore
305 1493 m 1,0,-1
 1274 1493 l 1,1,-1
 1245 1339 l 1,2,-1
 266 170 l 1,3,-1
 1040 170 l 1,4,-1
 1006 0 l 1,5,-1
 -6 0 l 1,6,-1
 23 154 l 1,7,-1
 999 1323 l 1,8,-1
 272 1323 l 1,9,-1
 305 1493 l 1,0,-1
EndSplineSet
EndChar
StartChar: bracketleft
Encoding: 91 91 91
Width: 1233
Flags: W
Fore
621 1556 m 1,0,-1
 1044 1556 l 1,1,-1
 1016 1413 l 1,2,-1
 776 1413 l 1,3,-1
 477 -127 l 1,4,-1
 717 -127 l 1,5,-1
 690 -270 l 1,6,-1
 264 -270 l 1,7,-1
 621 1556 l 1,0,-1
EndSplineSet
EndChar
StartChar: backslash
Encoding: 92 92 92
Width: 1233
Flags: W
Fore
725 -190 m 1,0,-1
 555 -190 l 1,1,-1
 356 1493 l 1,2,-1
 526 1493 l 1,3,-1
 725 -190 l 1,0,-1
EndSplineSet
EndChar
StartChar: bracketright
Encoding: 93 93 93
Width: 1233
Flags: W
Fore
928 1556 m 1,0,-1
 571 -270 l 1,1,-1
 147 -270 l 1,2,-1
 176 -127 l 1,3,-1
 416 -127 l 1,4,-1
 715 1413 l 1,5,-1
 475 1413 l 1,6,-1
 504 1556 l 1,7,-1
 928 1556 l 1,0,-1
EndSplineSet
EndChar
StartChar: asciicircum
Encoding: 94 94 94
Width: 1233
Flags: W
Fore
705 1493 m 1,0,-1
 1161 936 l 1,1,-1
 983 936 l 1,2,-1
 616 1331 l 1,3,-1
 250 936 l 1,4,-1
 72 936 l 1,5,-1
 528 1493 l 1,6,-1
 705 1493 l 1,0,-1
EndSplineSet
EndChar
StartChar: underscore
Encoding: 95 95 95
Width: 1233
Flags: W
Fore
1024 -403 m 1,0,-1
 1024 -483 l 1,1,-1
 0 -483 l 1,2,-1
 0 -403 l 1,3,-1
 1024 -403 l 1,0,-1
EndSplineSet
EndChar
StartChar: grave
Encoding: 96 96 96
Width: 1233
Flags: W
Fore
651 1638 m 1,0,-1
 848 1262 l 1,1,-1
 705 1262 l 1,2,-1
 453 1638 l 1,3,-1
 651 1638 l 1,0,-1
EndSplineSet
EndChar
StartChar: a
Encoding: 97 97 97
Width: 1233
Flags: W
Fore
692 563 m 2,0,1
 573 563 573 563 515 555.5 c 128,-1,2
 457 548 457 548 414 530 c 0,3,4
 346 503 346 503 305 441.5 c 128,-1,5
 264 380 264 380 264 307 c 0,6,7
 264 224 264 224 315.5 174.5 c 128,-1,8
 367 125 367 125 455 125 c 0,9,10
 603 125 603 125 710.5 231 c 128,-1,11
 818 337 818 337 856 522 c 1,12,-1
 864 563 l 1,13,-1
 692 563 l 2,0,1
1063 639 m 1,14,-1
 938 0 l 1,15,-1
 754 0 l 1,16,-1
 786 166 l 1,17,18
 714 72 714 72 616 21.5 c 128,-1,19
 518 -29 518 -29 408 -29 c 0,20,21
 255 -29 255 -29 163.5 54.5 c 128,-1,22
 72 138 72 138 72 276 c 0,23,24
 72 472 72 472 226.5 589.5 c 128,-1,25
 381 707 381 707 645 707 c 2,26,-1
 891 707 l 1,27,-1
 903 768 l 1,28,29
 905 777 905 777 906 787 c 128,-1,30
 907 797 907 797 907 815 c 0,31,32
 907 900 907 900 844 945.5 c 128,-1,33
 781 991 781 991 664 991 c 0,34,35
 578 991 578 991 478.5 965.5 c 128,-1,36
 379 940 379 940 268 889 c 1,37,-1
 303 1069 l 1,38,39
 411 1108 411 1108 508 1127.5 c 128,-1,40
 605 1147 605 1147 694 1147 c 0,41,42
 880 1147 880 1147 983.5 1065 c 128,-1,43
 1087 983 1087 983 1087 838 c 0,44,45
 1087 806 1087 806 1081 754 c 128,-1,46
 1075 702 1075 702 1063 639 c 1,14,-1
EndSplineSet
EndChar
StartChar: b
Encoding: 98 98 98
Width: 1233
Flags: W
Fore
539 127 m 0,0,1
 623 127 623 127 691 172 c 128,-1,2
 759 217 759 217 805 303 c 0,3,4
 854 397 854 397 882.5 513 c 128,-1,5
 911 629 911 629 911 737 c 0,6,7
 911 865 911 865 860.5 929 c 128,-1,8
 810 993 810 993 709 993 c 0,9,10
 626 993 626 993 557.5 947 c 128,-1,11
 489 901 489 901 438 813 c 0,12,13
 390 727 390 727 361 610.5 c 128,-1,14
 332 494 332 494 332 383 c 0,15,16
 332 260 332 260 385.5 193.5 c 128,-1,17
 439 127 439 127 539 127 c 0,0,1
434 977 m 1,18,19
 496 1061 496 1061 578 1104 c 128,-1,20
 660 1147 660 1147 762 1147 c 0,21,22
 926 1147 926 1147 1017 1043.5 c 128,-1,23
 1108 940 1108 940 1108 754 c 0,24,25
 1108 609 1108 609 1067 465 c 128,-1,26
 1026 321 1026 321 954 213 c 0,27,28
 878 98 878 98 768.5 34.5 c 128,-1,29
 659 -29 659 -29 535 -29 c 0,30,31
 437 -29 437 -29 370.5 14 c 128,-1,32
 304 57 304 57 270 141 c 1,33,-1
 244 0 l 1,34,-1
 59 0 l 1,35,-1
 362 1556 l 1,36,-1
 547 1556 l 1,37,-1
 434 977 l 1,18,19
EndSplineSet
EndChar
StartChar: c
Encoding: 99 99 99
Width: 1233
Flags: W
Fore
940 51 m 1,0,1
 867 12 867 12 783.5 -8.5 c 128,-1,2
 700 -29 700 -29 610 -29 c 0,3,4
 386 -29 386 -29 271 83.5 c 128,-1,5
 156 196 156 196 156 416 c 0,6,7
 156 565 156 565 209.5 708.5 c 128,-1,8
 263 852 263 852 354 950 c 0,9,10
 447 1049 447 1049 558.5 1098 c 128,-1,11
 670 1147 670 1147 803 1147 c 0,12,13
 892 1147 892 1147 975 1125.5 c 128,-1,14
 1058 1104 1058 1104 1137 1061 c 1,15,-1
 1100 879 l 1,16,17
 1034 937 1034 937 964 964 c 128,-1,18
 894 991 894 991 809 991 c 0,19,20
 699 991 699 991 614 946.5 c 128,-1,21
 529 902 529 902 469 813 c 0,22,23
 413 731 413 731 381.5 625.5 c 128,-1,24
 350 520 350 520 350 416 c 0,25,26
 350 272 350 272 418.5 199.5 c 128,-1,27
 487 127 487 127 623 127 c 0,28,29
 719 127 719 127 807.5 158 c 128,-1,30
 896 189 896 189 979 252 c 1,31,-1
 940 51 l 1,0,1
EndSplineSet
EndChar
StartChar: d
Encoding: 100 100 100
Width: 1233
Flags: W
Fore
686 991 m 0,0,1
 598 991 598 991 531 947.5 c 128,-1,2
 464 904 464 904 418 817 c 0,3,4
 369 727 369 727 342 612.5 c 128,-1,5
 315 498 315 498 315 383 c 0,6,7
 315 255 315 255 366 191 c 128,-1,8
 417 127 417 127 518 127 c 0,9,10
 603 127 603 127 671.5 172 c 128,-1,11
 740 217 740 217 788 305 c 0,12,13
 837 392 837 392 865 507.5 c 128,-1,14
 893 623 893 623 893 737 c 0,15,16
 893 857 893 857 838.5 924 c 128,-1,17
 784 991 784 991 686 991 c 0,0,1
954 977 m 1,18,-1
 1069 1556 l 1,19,-1
 1253 1556 l 1,20,-1
 950 0 l 1,21,-1
 766 0 l 1,22,-1
 793 141 l 1,23,24
 728 57 728 57 645.5 14 c 128,-1,25
 563 -29 563 -29 463 -29 c 0,26,27
 300 -29 300 -29 209.5 76 c 128,-1,28
 119 181 119 181 119 369 c 0,29,30
 119 512 119 512 159 656.5 c 128,-1,31
 199 801 199 801 268 909 c 0,32,33
 343 1027 343 1027 444.5 1087 c 128,-1,34
 546 1147 546 1147 670 1147 c 0,35,36
 767 1147 767 1147 840 1103.5 c 128,-1,37
 913 1060 913 1060 954 977 c 1,18,-1
EndSplineSet
EndChar
StartChar: e
Encoding: 101 101 101
Width: 1233
Flags: W
Fore
938 659 m 1,0,1
 944 686 944 686 946 703.5 c 128,-1,2
 948 721 948 721 948 737 c 0,3,4
 948 857 948 857 883 924 c 128,-1,5
 818 991 818 991 702 991 c 0,6,7
 579 991 579 991 477.5 901 c 128,-1,8
 376 811 376 811 332 659 c 1,9,-1
 938 659 l 1,0,1
961 57 m 1,10,11
 856 14 856 14 756 -7.5 c 128,-1,12
 656 -29 656 -29 553 -29 c 0,13,14
 330 -29 330 -29 214 82.5 c 128,-1,15
 98 194 98 194 98 408 c 0,16,17
 98 564 98 564 158 714 c 128,-1,18
 218 864 218 864 324 973 c 0,19,20
 407 1059 407 1059 507.5 1104 c 128,-1,21
 608 1149 608 1149 717 1149 c 0,22,23
 903 1149 903 1149 1014.5 1034.5 c 128,-1,24
 1126 920 1126 920 1126 729 c 0,25,26
 1126 695 1126 695 1121 644.5 c 128,-1,27
 1116 594 1116 594 1104 516 c 1,28,-1
 297 516 l 1,29,30
 291 484 291 484 288 458 c 128,-1,31
 285 432 285 432 285 412 c 0,32,33
 285 273 285 273 362 200 c 128,-1,34
 439 127 439 127 586 127 c 0,35,36
 674 127 674 127 778.5 155.5 c 128,-1,37
 883 184 883 184 997 240 c 1,38,-1
 961 57 l 1,10,11
EndSplineSet
EndChar
StartChar: f
Encoding: 102 102 102
Width: 1233
Flags: W
Fore
1245 1556 m 1,0,-1
 1214 1403 l 1,1,-1
 1006 1403 l 2,2,3
 911 1403 911 1403 863 1361.5 c 128,-1,4
 815 1320 815 1320 795 1219 c 1,5,-1
 774 1120 l 1,6,-1
 1159 1120 l 1,7,-1
 1133 977 l 1,8,-1
 748 977 l 1,9,-1
 557 0 l 1,10,-1
 373 0 l 1,11,-1
 563 977 l 1,12,-1
 264 977 l 1,13,-1
 293 1120 l 1,14,-1
 590 1120 l 1,15,-1
 606 1198 l 1,16,17
 644 1391 644 1391 740.5 1473.5 c 128,-1,18
 837 1556 837 1556 1024 1556 c 2,19,-1
 1245 1556 l 1,0,-1
EndSplineSet
EndChar
StartChar: g
Encoding: 103 103 103
Width: 1233
Flags: W
Fore
512 145 m 0,0,1
 591 145 591 145 657.5 190 c 128,-1,2
 724 235 724 235 770 319 c 0,3,4
 819 409 819 409 846.5 521 c 128,-1,5
 874 633 874 633 874 739 c 0,6,7
 874 858 874 858 818 924.5 c 128,-1,8
 762 991 762 991 662 991 c 0,9,10
 508 991 508 991 402.5 822.5 c 128,-1,11
 297 654 297 654 297 399 c 0,12,13
 297 280 297 280 354 212.5 c 128,-1,14
 411 145 411 145 512 145 c 0,0,1
942 72 m 1,15,16
 889 -199 889 -199 755.5 -319.5 c 128,-1,17
 622 -440 622 -440 375 -440 c 0,18,19
 293 -440 293 -440 213.5 -426 c 128,-1,20
 134 -412 134 -412 59 -385 c 1,21,-1
 96 -203 l 1,22,23
 169 -247 169 -247 247.5 -270 c 128,-1,24
 326 -293 326 -293 406 -293 c 0,25,26
 555 -293 555 -293 637 -213 c 128,-1,27
 719 -133 719 -133 756 53 c 1,28,-1
 780 170 l 1,29,30
 722 83 722 83 635 37.5 c 128,-1,31
 548 -8 548 -8 438 -8 c 0,32,33
 284 -8 284 -8 193 99.5 c 128,-1,34
 102 207 102 207 102 391 c 0,35,36
 102 530 102 530 142 667.5 c 128,-1,37
 182 805 182 805 254 911 c 1,38,39
 328 1023 328 1023 432 1085 c 128,-1,40
 536 1147 536 1147 647 1147 c 0,41,42
 748 1147 748 1147 824 1098.5 c 128,-1,43
 900 1050 900 1050 934 965 c 1,44,-1
 961 1116 l 1,45,-1
 1145 1116 l 1,46,-1
 942 72 l 1,15,16
EndSplineSet
EndChar
StartChar: h
Encoding: 104 104 104
Width: 1233
Flags: W
Fore
1075 694 m 2,0,-1
 940 0 l 1,1,-1
 756 0 l 1,2,-1
 891 695 l 1,3,4
 892 699 892 699 894 709 c 0,5,6
 909 780 909 780 909 819 c 0,7,8
 909 900 909 900 862.5 943.5 c 128,-1,9
 816 987 816 987 729 987 c 0,10,11
 602 987 602 987 513 894 c 128,-1,12
 424 801 424 801 391 633 c 1,13,-1
 268 0 l 1,14,-1
 84 0 l 1,15,-1
 387 1556 l 1,16,-1
 571 1556 l 1,17,-1
 455 952 l 1,18,19
 530 1049 530 1049 617.5 1098 c 128,-1,20
 705 1147 705 1147 803 1147 c 0,21,22
 942 1147 942 1147 1019 1074.5 c 128,-1,23
 1096 1002 1096 1002 1096 872 c 0,24,25
 1096 840 1096 840 1090.5 793 c 128,-1,26
 1085 746 1085 746 1075 694 c 2,0,-1
EndSplineSet
EndChar
StartChar: i
Encoding: 105 105 105
Width: 1233
Flags: W
Fore
358 1120 m 1,0,-1
 829 1120 l 1,1,-1
 639 143 l 1,2,-1
 1004 143 l 1,3,-1
 975 0 l 1,4,-1
 61 0 l 1,5,-1
 90 143 l 1,6,-1
 455 143 l 1,7,-1
 616 977 l 1,8,-1
 330 977 l 1,9,-1
 358 1120 l 1,0,-1
729 1556 m 1,10,-1
 913 1556 l 1,11,-1
 868 1323 l 1,12,-1
 684 1323 l 1,13,-1
 729 1556 l 1,10,-1
EndSplineSet
EndChar
StartChar: j
Encoding: 106 106 106
Width: 1233
Flags: W
Fore
498 -20 m 1,0,-1
 690 977 l 1,1,-1
 373 977 l 1,2,-1
 401 1120 l 1,3,-1
 903 1120 l 1,4,-1
 682 -20 l 1,5,6
 641 -233 641 -233 540 -329.5 c 128,-1,7
 439 -426 439 -426 258 -426 c 2,8,-1
 4 -426 l 1,9,-1
 35 -270 l 1,10,-1
 268 -270 l 2,11,12
 363 -270 363 -270 418 -210.5 c 128,-1,13
 473 -151 473 -151 498 -20 c 1,0,-1
803 1556 m 1,14,-1
 987 1556 l 1,15,-1
 942 1323 l 1,16,-1
 758 1323 l 1,17,-1
 803 1556 l 1,14,-1
EndSplineSet
EndChar
StartChar: k
Encoding: 107 107 107
Width: 1233
Flags: W
Fore
393 1556 m 1,0,-1
 584 1556 l 1,1,-1
 414 682 l 1,2,-1
 963 1120 l 1,3,-1
 1204 1120 l 1,4,-1
 684 698 l 1,5,-1
 1057 0 l 1,6,-1
 844 0 l 1,7,-1
 537 582 l 1,8,-1
 369 449 l 1,9,-1
 281 0 l 1,10,-1
 90 0 l 1,11,-1
 393 1556 l 1,0,-1
EndSplineSet
EndChar
StartChar: l
Encoding: 108 108 108
Width: 1233
Flags: W
Fore
600 408 m 1,0,1
 593 373 593 373 589.5 346 c 128,-1,2
 586 319 586 319 586 301 c 0,3,4
 586 228 586 228 630.5 192 c 128,-1,5
 675 156 675 156 766 156 c 2,6,-1
 977 156 l 1,7,-1
 946 0 l 1,8,-1
 739 0 l 2,9,10
 566 0 566 0 481.5 63.5 c 128,-1,11
 397 127 397 127 397 258 c 0,12,13
 397 286 397 286 402 326 c 128,-1,14
 407 366 407 366 416 412 c 1,15,-1
 627 1423 l 1,16,-1
 311 1423 l 1,17,-1
 340 1567 l 1,18,-1
 840 1567 l 1,19,-1
 600 408 l 1,0,1
EndSplineSet
EndChar
StartChar: m
Encoding: 109 109 109
Width: 1233
Flags: W
Fore
748 1006 m 1,0,1
 787 1074 787 1074 849.5 1110.5 c 128,-1,2
 912 1147 912 1147 989 1147 c 0,3,4
 1075 1147 1075 1147 1126.5 1092.5 c 128,-1,5
 1178 1038 1178 1038 1178 946 c 0,6,7
 1178 892 1178 892 1169 824 c 128,-1,8
 1160 756 1160 756 1139 649 c 2,9,-1
 1012 0 l 1,10,-1
 844 0 l 1,11,-1
 969 641 l 2,12,13
 987 733 987 733 996.5 791.5 c 128,-1,14
 1006 850 1006 850 1006 874 c 0,15,16
 1006 937 1006 937 983 965 c 128,-1,17
 960 993 960 993 909 993 c 0,18,19
 834 993 834 993 792 928.5 c 128,-1,20
 750 864 750 864 707 641 c 1,21,-1
 582 0 l 1,22,-1
 414 0 l 1,23,-1
 539 641 l 2,24,25
 558 738 558 738 566.5 794.5 c 128,-1,26
 575 851 575 851 575 874 c 0,27,28
 575 935 575 935 551.5 964 c 128,-1,29
 528 993 528 993 479 993 c 0,30,31
 405 993 405 993 364.5 933.5 c 128,-1,32
 324 874 324 874 279 641 c 1,33,-1
 154 0 l 1,34,-1
 -14 0 l 1,35,-1
 203 1120 l 1,36,-1
 371 1120 l 1,37,-1
 352 1024 l 1,38,39
 396 1084 396 1084 451.5 1115.5 c 128,-1,40
 507 1147 507 1147 571 1147 c 0,41,42
 646 1147 646 1147 692 1109.5 c 128,-1,43
 738 1072 738 1072 748 1006 c 1,0,1
EndSplineSet
EndChar
StartChar: n
Encoding: 110 110 110
Width: 1233
Flags: W
Fore
1075 694 m 2,0,-1
 940 0 l 1,1,-1
 756 0 l 1,2,-1
 891 695 l 1,3,4
 892 699 892 699 894 709 c 0,5,6
 909 780 909 780 909 819 c 0,7,8
 909 900 909 900 862.5 943.5 c 128,-1,9
 816 987 816 987 729 987 c 0,10,11
 602 987 602 987 513 894 c 128,-1,12
 424 801 424 801 391 633 c 1,13,-1
 268 0 l 1,14,-1
 84 0 l 1,15,-1
 303 1120 l 1,16,-1
 487 1120 l 1,17,-1
 455 952 l 1,18,19
 530 1049 530 1049 617.5 1098 c 128,-1,20
 705 1147 705 1147 803 1147 c 0,21,22
 942 1147 942 1147 1019 1074.5 c 128,-1,23
 1096 1002 1096 1002 1096 872 c 0,24,25
 1096 840 1096 840 1090.5 793 c 128,-1,26
 1085 746 1085 746 1075 694 c 2,0,-1
EndSplineSet
EndChar
StartChar: o
Encoding: 111 111 111
Width: 1233
Flags: W
Fore
696 991 m 0,0,1
 532 991 532 991 422.5 820 c 128,-1,2
 313 649 313 649 313 385 c 0,3,4
 313 256 313 256 369 191.5 c 128,-1,5
 425 127 425 127 537 127 c 0,6,7
 701 127 701 127 810.5 298 c 128,-1,8
 920 469 920 469 920 733 c 0,9,10
 920 862 920 862 864 926.5 c 128,-1,11
 808 991 808 991 696 991 c 0,0,1
713 1147 m 0,12,13
 909 1147 909 1147 1011.5 1040 c 128,-1,14
 1114 933 1114 933 1114 727 c 0,15,16
 1114 589 1114 589 1073 452.5 c 128,-1,17
 1032 316 1032 316 958 207 c 0,18,19
 879 89 879 89 766 30 c 128,-1,20
 653 -29 653 -29 506 -29 c 0,21,22
 319 -29 319 -29 218 80.5 c 128,-1,23
 117 190 117 190 117 393 c 0,24,25
 117 528 117 528 158 663 c 128,-1,26
 199 798 199 798 274 911 c 0,27,28
 353 1027 353 1027 464.5 1087 c 128,-1,29
 576 1147 576 1147 713 1147 c 0,12,13
EndSplineSet
EndChar
StartChar: p
Encoding: 112 112 112
Width: 1233
Flags: W
Fore
293 141 m 1,0,-1
 182 -426 l 1,1,-1
 -2 -426 l 1,2,-1
 299 1120 l 1,3,-1
 483 1120 l 1,4,-1
 455 977 l 1,5,6
 516 1059 516 1059 602 1103 c 128,-1,7
 688 1147 688 1147 788 1147 c 0,8,9
 950 1147 950 1147 1039 1043 c 128,-1,10
 1128 939 1128 939 1128 752 c 0,11,12
 1128 609 1128 609 1088.5 465 c 128,-1,13
 1049 321 1049 321 979 211 c 0,14,15
 904 93 904 93 802 32 c 128,-1,16
 700 -29 700 -29 578 -29 c 0,17,18
 478 -29 478 -29 407.5 13 c 128,-1,19
 337 55 337 55 293 141 c 1,0,-1
569 127 m 0,20,21
 650 127 650 127 717 171.5 c 128,-1,22
 784 216 784 216 829 301 c 0,23,24
 878 393 878 393 906 508.5 c 128,-1,25
 934 624 934 624 934 737 c 0,26,27
 934 864 934 864 882.5 927.5 c 128,-1,28
 831 991 831 991 729 991 c 0,29,30
 644 991 644 991 575.5 946 c 128,-1,31
 507 901 507 901 459 813 c 0,32,33
 410 725 410 725 382 611 c 128,-1,34
 354 497 354 497 354 383 c 0,35,36
 354 260 354 260 410 193.5 c 128,-1,37
 466 127 466 127 569 127 c 0,20,21
EndSplineSet
EndChar
StartChar: q
Encoding: 113 113 113
Width: 1233
Flags: W
Fore
774 141 m 1,0,1
 713 57 713 57 630.5 14 c 128,-1,2
 548 -29 548 -29 446 -29 c 0,3,4
 282 -29 282 -29 190 74.5 c 128,-1,5
 98 178 98 178 98 365 c 0,6,7
 98 507 98 507 139 652 c 128,-1,8
 180 797 180 797 252 909 c 0,9,10
 327 1027 327 1027 431.5 1087 c 128,-1,11
 536 1147 536 1147 666 1147 c 0,12,13
 766 1147 766 1147 833.5 1104.5 c 128,-1,14
 901 1062 901 1062 936 977 c 1,15,-1
 963 1120 l 1,16,-1
 1147 1120 l 1,17,-1
 848 -426 l 1,18,-1
 664 -426 l 1,19,-1
 774 141 l 1,0,1
668 991 m 0,20,21
 583 991 583 991 515 947 c 128,-1,22
 447 903 447 903 401 817 c 0,23,24
 352 723 352 723 323.5 607 c 128,-1,25
 295 491 295 491 295 383 c 0,26,27
 295 255 295 255 345.5 191 c 128,-1,28
 396 127 396 127 498 127 c 0,29,30
 580 127 580 127 649 172.5 c 128,-1,31
 718 218 718 218 768 305 c 0,32,33
 816 390 816 390 845 507.5 c 128,-1,34
 874 625 874 625 874 737 c 0,35,36
 874 860 874 860 820.5 925.5 c 128,-1,37
 767 991 767 991 668 991 c 0,20,21
EndSplineSet
EndChar
StartChar: r
Encoding: 114 114 114
Width: 1233
Flags: W
Fore
1184 889 m 1,0,1
 1139 933 1139 933 1079.5 955 c 128,-1,2
 1020 977 1020 977 944 977 c 0,3,4
 780 977 780 977 663 862.5 c 128,-1,5
 546 748 546 748 508 549 c 1,6,-1
 401 0 l 1,7,-1
 217 0 l 1,8,-1
 434 1120 l 1,9,-1
 618 1120 l 1,10,-1
 578 901 l 1,11,12
 645 1021 645 1021 751.5 1084 c 128,-1,13
 858 1147 858 1147 993 1147 c 0,14,15
 1064 1147 1064 1147 1121.5 1128.5 c 128,-1,16
 1179 1110 1179 1110 1219 1075 c 1,17,-1
 1184 889 l 1,0,1
EndSplineSet
EndChar
StartChar: s
Encoding: 115 115 115
Width: 1233
Flags: W
Fore
1077 1081 m 1,0,-1
 1042 901 l 1,1,2
 971 946 971 946 892.5 969.5 c 128,-1,3
 814 993 814 993 737 993 c 0,4,5
 600 993 600 993 524.5 942 c 128,-1,6
 449 891 449 891 449 799 c 0,7,8
 449 701 449 701 670 645 c 0,9,10
 685 641 685 641 692 639 c 2,11,-1
 764 621 l 2,12,13
 881 590 881 590 939 528.5 c 128,-1,14
 997 467 997 467 997 375 c 0,15,16
 997 194 997 194 853 82.5 c 128,-1,17
 709 -29 709 -29 471 -29 c 0,18,19
 390 -29 390 -29 302 -11.5 c 128,-1,20
 214 6 214 6 115 41 c 1,21,-1
 152 231 l 1,22,23
 246 178 246 178 334.5 151.5 c 128,-1,24
 423 125 423 125 506 125 c 0,25,26
 639 125 639 125 723 184.5 c 128,-1,27
 807 244 807 244 807 336 c 0,28,29
 807 435 807 435 611 487 c 0,30,31
 593 491 593 491 583 494 c 2,32,-1
 516 512 l 2,33,34
 387 545 387 545 326.5 609 c 128,-1,35
 266 673 266 673 266 776 c 0,36,37
 266 946 266 946 398 1046.5 c 128,-1,38
 530 1147 530 1147 754 1147 c 0,39,40
 842 1147 842 1147 923 1130.5 c 128,-1,41
 1004 1114 1004 1114 1077 1081 c 1,0,-1
EndSplineSet
EndChar
StartChar: t
Encoding: 116 116 116
Width: 1233
Flags: W
Fore
768 1438 m 1,0,-1
 707 1120 l 1,1,-1
 1124 1120 l 1,2,-1
 1096 977 l 1,3,-1
 678 977 l 1,4,-1
 559 369 l 2,5,6
 553 339 553 339 550 313.5 c 128,-1,7
 547 288 547 288 547 266 c 0,8,9
 547 200 547 200 586 173.5 c 128,-1,10
 625 147 625 147 727 147 c 2,11,-1
 934 147 l 1,12,-1
 905 0 l 1,13,-1
 682 0 l 2,14,15
 515 0 515 0 436.5 55.5 c 128,-1,16
 358 111 358 111 358 229 c 0,17,18
 358 254 358 254 362 288 c 128,-1,19
 366 322 366 322 375 369 c 2,20,-1
 494 977 l 1,21,-1
 195 977 l 1,22,-1
 223 1120 l 1,23,-1
 522 1120 l 1,24,-1
 584 1438 l 1,25,-1
 768 1438 l 1,0,-1
EndSplineSet
EndChar
StartChar: u
Encoding: 117 117 117
Width: 1233
Flags: W
Fore
143 426 m 2,0,-1
 276 1120 l 1,1,-1
 461 1120 l 1,2,-1
 326 426 l 2,3,4
 319 389 319 389 315 355 c 128,-1,5
 311 321 311 321 311 297 c 0,6,7
 311 218 311 218 357.5 175.5 c 128,-1,8
 404 133 404 133 489 133 c 0,9,10
 616 133 616 133 704 225.5 c 128,-1,11
 792 318 792 318 825 487 c 2,12,-1
 948 1120 l 1,13,-1
 1133 1120 l 1,14,-1
 915 0 l 1,15,-1
 731 0 l 1,16,-1
 764 168 l 1,17,18
 691 70 691 70 602 21.5 c 128,-1,19
 513 -27 513 -27 408 -27 c 0,20,21
 277 -27 277 -27 201 46.5 c 128,-1,22
 125 120 125 120 125 246 c 0,23,24
 125 285 125 285 129.5 331.5 c 128,-1,25
 134 378 134 378 143 426 c 2,0,-1
EndSplineSet
EndChar
StartChar: v
Encoding: 118 118 118
Width: 1233
Flags: W
Fore
182 1120 m 1,0,-1
 360 1120 l 1,1,-1
 514 164 l 1,2,-1
 1016 1120 l 1,3,-1
 1214 1120 l 1,4,-1
 600 0 l 1,5,-1
 362 0 l 1,6,-1
 182 1120 l 1,0,-1
EndSplineSet
EndChar
StartChar: w
Encoding: 119 119 119
Width: 1233
Flags: W
Fore
92 1120 m 1,0,-1
 268 1120 l 1,1,-1
 283 215 l 1,2,-1
 551 793 l 1,3,-1
 713 793 l 1,4,-1
 762 215 l 1,5,-1
 1124 1120 l 1,6,-1
 1315 1120 l 1,7,-1
 829 0 l 1,8,-1
 664 0 l 1,9,-1
 604 623 l 1,10,-1
 307 0 l 1,11,-1
 141 0 l 1,12,-1
 92 1120 l 1,0,-1
EndSplineSet
EndChar
StartChar: x
Encoding: 120 120 120
Width: 1233
Flags: W
Fore
1208 1120 m 1,0,-1
 696 573 l 1,1,-1
 1014 0 l 1,2,-1
 817 0 l 1,3,-1
 573 444 l 1,4,-1
 156 0 l 1,5,-1
 -70 0 l 1,6,-1
 494 596 l 1,7,-1
 201 1120 l 1,8,-1
 397 1120 l 1,9,-1
 614 725 l 1,10,-1
 983 1120 l 1,11,-1
 1208 1120 l 1,0,-1
EndSplineSet
EndChar
StartChar: y
Encoding: 121 121 121
Width: 1233
Flags: W
Fore
786 360 m 2,0,1
 724 253 724 253 621 72 c 0,2,3
 466 -203 466 -203 412 -276 c 0,4,5
 354 -352 354 -352 279.5 -389 c 128,-1,6
 205 -426 205 -426 109 -426 c 2,7,-1
 -39 -426 l 1,8,-1
 -10 -272 l 1,9,-1
 98 -272 l 2,10,11
 179 -272 179 -272 237.5 -225.5 c 128,-1,12
 296 -179 296 -179 356 -66 c 1,13,-1
 399 18 l 1,14,-1
 182 1120 l 1,15,-1
 365 1120 l 1,16,-1
 537 258 l 1,17,-1
 1020 1120 l 1,18,-1
 1225 1120 l 1,19,-1
 786 360 l 2,0,1
EndSplineSet
EndChar
StartChar: z
Encoding: 122 122 122
Width: 1233
Flags: W
Fore
319 1120 m 1,0,-1
 1133 1120 l 1,1,-1
 1100 952 l 1,2,-1
 315 147 l 1,3,-1
 944 147 l 1,4,-1
 915 0 l 1,5,-1
 78 0 l 1,6,-1
 111 168 l 1,7,-1
 895 973 l 1,8,-1
 291 973 l 1,9,-1
 319 1120 l 1,0,-1
EndSplineSet
EndChar
StartChar: braceleft
Encoding: 123 123 123
Width: 1233
Flags: W
Fore
1176 1556 m 1,0,-1
 1147 1413 l 1,1,-1
 1069 1413 l 2,2,3
 933 1413 933 1413 886 1373.5 c 128,-1,4
 839 1334 839 1334 809 1184 c 1,5,-1
 758 932 l 1,6,7
 725 772 725 772 665 699.5 c 128,-1,8
 605 627 605 627 494 606 c 1,9,10
 567 588 567 588 607 536.5 c 128,-1,11
 647 485 647 485 647 410 c 0,12,13
 647 385 647 385 643.5 353 c 128,-1,14
 640 321 640 321 633 283 c 1,15,-1
 586 39 l 1,16,17
 580 6 580 6 578 -19.5 c 128,-1,18
 576 -45 576 -45 575 -70 c 0,19,20
 575 -133 575 -133 618 -161.5 c 128,-1,21
 661 -190 661 -190 758 -190 c 2,22,-1
 836 -190 l 1,23,-1
 807 -334 l 1,24,-1
 735 -334 l 2,25,26
 548 -334 548 -334 466.5 -279.5 c 128,-1,27
 385 -225 385 -225 385 -102 c 0,28,29
 385 -71 385 -71 388.5 -37 c 128,-1,30
 392 -3 392 -3 399 34 c 2,31,-1
 444 270 l 1,32,33
 445 273 445 273 447 282 c 0,34,35
 457 332 457 332 457 377 c 0,36,37
 457 462 457 462 408 499.5 c 128,-1,38
 359 537 359 537 246 537 c 2,39,-1
 184 537 l 1,40,-1
 213 684 l 1,41,-1
 274 684 l 2,42,43
 419 684 419 684 482 739 c 128,-1,44
 545 794 545 794 575 944 c 1,45,-1
 625 1188 l 2,46,47
 650 1311 650 1311 686 1382.5 c 128,-1,48
 722 1454 722 1454 776 1493 c 0,49,50
 823 1527 823 1527 892 1541.5 c 128,-1,51
 961 1556 961 1556 1094 1556 c 2,52,-1
 1176 1556 l 1,0,-1
EndSplineSet
EndChar
StartChar: bar
Encoding: 124 124 124
Width: 1233
Flags: W
Fore
702 1565 m 1,0,-1
 702 -483 l 1,1,-1
 530 -483 l 1,2,-1
 530 1565 l 1,3,-1
 702 1565 l 1,0,-1
EndSplineSet
EndChar
StartChar: braceright
Encoding: 125 125 125
Width: 1233
Flags: W
Fore
-14 -334 m 1,0,-1
 14 -190 l 1,1,-1
 92 -190 l 2,2,3
 228 -190 228 -190 275 -150.5 c 128,-1,4
 322 -111 322 -111 352 39 c 1,5,-1
 403 291 l 1,6,7
 436 451 436 451 496 523.5 c 128,-1,8
 556 596 556 596 668 616 c 1,9,10
 594 635 594 635 554 686 c 128,-1,11
 514 737 514 737 514 813 c 0,12,13
 514 837 514 837 517.5 869.5 c 128,-1,14
 521 902 521 902 528 940 c 1,15,-1
 575 1183 l 1,16,17
 581 1217 581 1217 583.5 1242.5 c 128,-1,18
 586 1268 586 1268 586 1292 c 0,19,20
 586 1356 586 1356 543.5 1384.5 c 128,-1,21
 501 1413 501 1413 403 1413 c 2,22,-1
 326 1413 l 1,23,-1
 352 1556 l 1,24,-1
 426 1556 l 2,25,26
 614 1556 614 1556 695 1502 c 128,-1,27
 776 1448 776 1448 776 1325 c 0,28,29
 776 1293 776 1293 772.5 1259 c 128,-1,30
 769 1225 769 1225 762 1188 c 2,31,-1
 717 952 l 1,32,33
 716 949 716 949 715 940 c 0,34,35
 705 891 705 891 705 846 c 0,36,37
 705 760 705 760 754 723 c 128,-1,38
 803 686 803 686 915 686 c 2,39,-1
 977 686 l 1,40,-1
 948 539 l 1,41,-1
 887 539 l 2,42,43
 743 539 743 539 679.5 484 c 128,-1,44
 616 429 616 429 584 279 c 1,45,-1
 537 35 l 1,46,47
 511 -89 511 -89 475 -160 c 128,-1,48
 439 -231 439 -231 385 -270 c 0,49,50
 338 -304 338 -304 269 -319 c 128,-1,51
 200 -334 200 -334 68 -334 c 2,52,-1
 -14 -334 l 1,0,-1
EndSplineSet
EndChar
StartChar: asciitilde
Encoding: 126 126 126
Width: 1233
Flags: W
Fore
1145 780 m 1,0,-1
 1145 606 l 1,1,2
 1070 547 1070 547 998.5 519.5 c 128,-1,3
 927 492 927 492 848 492 c 0,4,5
 758 492 758 492 645 543 c 0,6,7
 623 553 623 553 612 557 c 0,8,9
 535 590 535 590 483.5 602 c 128,-1,10
 432 614 432 614 381 614 c 0,11,12
 302 614 302 614 231.5 584.5 c 128,-1,13
 161 555 161 555 88 492 c 1,14,-1
 88 666 l 1,15,16
 166 726 166 726 239 753 c 128,-1,17
 312 780 312 780 395 780 c 0,18,19
 448 780 448 780 498 769 c 128,-1,20
 548 758 548 758 622 727 c 0,21,22
 634 722 634 722 655 712 c 0,23,24
 771 657 771 657 864 657 c 0,25,26
 934 657 934 657 1002.5 687.5 c 128,-1,27
 1071 718 1071 718 1145 780 c 1,0,-1
EndSplineSet
EndChar
StartChar: exclamdown
Encoding: 161 161 161
Width: 1233
Flags: W
Fore
834 1239 m 1,0,-1
 631 1239 l 1,1,-1
 680 1493 l 1,2,-1
 883 1493 l 1,3,-1
 834 1239 l 1,0,-1
592 0 m 1,4,-1
 389 0 l 1,5,-1
 518 655 l 1,6,-1
 606 1012 l 1,7,-1
 768 1012 l 1,8,-1
 719 655 l 1,9,-1
 592 0 l 1,4,-1
EndSplineSet
EndChar
StartChar: cent
Encoding: 162 162 162
Width: 1233
Flags: W
Fore
1087 1077 m 1,0,-1
 1055 905 l 1,1,2
 1006 943 1006 943 944.5 965 c 128,-1,3
 883 987 883 987 811 993 c 1,4,-1
 641 123 l 1,5,6
 706 128 706 128 775.5 150.5 c 128,-1,7
 845 173 845 173 920 213 c 1,8,-1
 887 41 l 1,9,10
 812 10 812 10 743.5 -6.5 c 128,-1,11
 675 -23 675 -23 612 -27 c 1,12,-1
 557 -313 l 1,13,-1
 455 -313 l 1,14,-1
 510 -27 l 1,15,16
 327 -7 327 -7 225 114 c 128,-1,17
 123 235 123 235 123 430 c 0,18,19
 123 616 123 616 204 778 c 128,-1,20
 285 940 285 940 426 1036 c 0,21,22
 496 1085 496 1085 573.5 1112 c 128,-1,23
 651 1139 651 1139 737 1145 c 1,24,-1
 793 1432 l 1,25,-1
 895 1432 l 1,26,-1
 840 1145 l 1,27,28
 900 1142 900 1142 962.5 1125 c 128,-1,29
 1025 1108 1025 1108 1087 1077 c 1,0,-1
541 127 m 1,30,-1
 709 991 l 1,31,32
 544 976 544 976 429.5 811.5 c 128,-1,33
 315 647 315 647 315 422 c 0,34,35
 315 292 315 292 373.5 215.5 c 128,-1,36
 432 139 432 139 541 127 c 1,30,-1
EndSplineSet
EndChar
StartChar: sterling
Encoding: 163 163 163
Width: 1233
Flags: W
Fore
1229 1462 m 1,0,-1
 1192 1278 l 1,1,2
 1138 1321 1138 1321 1077.5 1343.5 c 128,-1,3
 1017 1366 1017 1366 954 1366 c 0,4,5
 815 1366 815 1366 738 1281 c 128,-1,6
 661 1196 661 1196 623 995 c 1,7,-1
 580 778 l 1,8,-1
 950 778 l 1,9,-1
 922 635 l 1,10,-1
 551 635 l 1,11,-1
 461 170 l 1,12,-1
 997 170 l 1,13,-1
 965 0 l 1,14,-1
 -8 0 l 1,15,-1
 25 170 l 1,16,-1
 262 170 l 1,17,-1
 352 635 l 1,18,-1
 154 635 l 1,19,-1
 180 778 l 1,20,-1
 379 778 l 1,21,-1
 426 1016 l 2,22,23
 477 1276 477 1276 608 1398 c 128,-1,24
 739 1520 739 1520 967 1520 c 0,25,26
 1027 1520 1027 1520 1092 1505.5 c 128,-1,27
 1157 1491 1157 1491 1229 1462 c 1,0,-1
EndSplineSet
EndChar
StartChar: currency
Encoding: 164 164 164
Width: 1233
Flags: W
Fore
868 643 m 0,0,1
 868 733 868 733 806 794.5 c 128,-1,2
 744 856 744 856 653 856 c 0,3,4
 563 856 563 856 500.5 794.5 c 128,-1,5
 438 733 438 733 438 643 c 0,6,7
 438 551 438 551 500.5 488.5 c 128,-1,8
 563 426 563 426 653 426 c 0,9,10
 744 426 744 426 806 489 c 128,-1,11
 868 552 868 552 868 643 c 0,0,1
844 924 m 1,12,-1
 1010 1090 l 1,13,-1
 1100 997 l 1,14,-1
 934 831 l 1,15,16
 964 782 964 782 978.5 735.5 c 128,-1,17
 993 689 993 689 993 641 c 0,18,19
 993 591 993 591 978 545.5 c 128,-1,20
 963 500 963 500 932 455 c 1,21,-1
 1100 289 l 1,22,-1
 1006 195 l 1,23,-1
 840 362 l 1,24,25
 794 331 794 331 748.5 316 c 128,-1,26
 703 301 703 301 653 301 c 0,27,28
 605 301 605 301 557 315.5 c 128,-1,29
 509 330 509 330 461 358 c 1,30,-1
 297 195 l 1,31,-1
 205 285 l 1,32,-1
 371 451 l 1,33,34
 340 502 340 502 325.5 548.5 c 128,-1,35
 311 595 311 595 311 641 c 0,36,37
 311 691 311 691 326.5 737.5 c 128,-1,38
 342 784 342 784 373 829 c 1,39,-1
 205 995 l 1,40,-1
 299 1090 l 1,41,-1
 465 922 l 1,42,43
 511 953 511 953 556.5 968 c 128,-1,44
 602 983 602 983 653 983 c 0,45,46
 699 983 699 983 746 968.5 c 128,-1,47
 793 954 793 954 844 924 c 1,12,-1
EndSplineSet
EndChar
StartChar: yen
Encoding: 165 165 165
Width: 1233
Flags: W
Fore
1036 524 m 1,0,-1
 643 524 l 1,1,-1
 545 0 l 1,2,-1
 346 0 l 1,3,-1
 444 524 l 1,4,-1
 47 524 l 1,5,-1
 70 635 l 1,6,-1
 467 635 l 1,7,-1
 473 670 l 1,8,-1
 418 821 l 1,9,-1
 109 821 l 1,10,-1
 131 932 l 1,11,-1
 377 932 l 1,12,-1
 172 1493 l 1,13,-1
 379 1493 l 1,14,-1
 602 829 l 1,15,-1
 1061 1493 l 1,16,-1
 1272 1493 l 1,17,-1
 868 932 l 1,18,-1
 1120 932 l 1,19,-1
 1098 821 l 1,20,-1
 786 821 l 1,21,-1
 676 670 l 1,22,-1
 666 635 l 1,23,-1
 1059 635 l 1,24,-1
 1036 524 l 1,0,-1
EndSplineSet
EndChar
StartChar: brokenbar
Encoding: 166 166 166
Width: 1233
Flags: W
Fore
702 1432 m 1,0,-1
 702 674 l 1,1,-1
 530 674 l 1,2,-1
 530 1432 l 1,3,-1
 702 1432 l 1,0,-1
702 408 m 1,4,-1
 702 -350 l 1,5,-1
 530 -350 l 1,6,-1
 530 408 l 1,7,-1
 702 408 l 1,4,-1
EndSplineSet
EndChar
StartChar: section
Encoding: 167 167 167
Width: 1233
Flags: W
Fore
1069 1454 m 1,0,-1
 1036 1290 l 1,1,2
 965 1328 965 1328 896.5 1348 c 128,-1,3
 828 1368 828 1368 770 1368 c 0,4,5
 667 1368 667 1368 601 1319 c 128,-1,6
 535 1270 535 1270 535 1198 c 0,7,8
 535 1119 535 1119 669 1029 c 0,9,10
 700 1009 700 1009 717 997 c 2,11,-1
 803 938 l 2,12,13
 927 852 927 852 969.5 793.5 c 128,-1,14
 1012 735 1012 735 1012 666 c 0,15,16
 1012 565 1012 565 946 475 c 128,-1,17
 880 385 880 385 766 332 c 1,18,19
 807 297 807 297 827.5 252 c 128,-1,20
 848 207 848 207 848 152 c 0,21,22
 848 -5 848 -5 726.5 -103 c 128,-1,23
 605 -201 605 -201 406 -201 c 0,24,25
 336 -201 336 -201 259.5 -186.5 c 128,-1,26
 183 -172 183 -172 100 -143 c 1,27,-1
 133 18 l 1,28,29
 207 -18 207 -18 279 -37.5 c 128,-1,30
 351 -57 351 -57 412 -57 c 0,31,32
 524 -57 524 -57 590.5 -10 c 128,-1,33
 657 37 657 37 657 115 c 0,34,35
 657 213 657 213 474 337 c 2,36,-1
 461 346 l 1,37,-1
 387 397 l 2,38,39
 262 482 262 482 222 537.5 c 128,-1,40
 182 593 182 593 182 666 c 0,41,42
 182 762 182 762 246 848 c 128,-1,43
 310 934 310 934 428 997 c 1,44,45
 387 1034 387 1034 368.5 1074 c 128,-1,46
 350 1114 350 1114 350 1167 c 0,47,48
 350 1316 350 1316 470 1413.5 c 128,-1,49
 590 1511 590 1511 776 1511 c 0,50,51
 847 1511 847 1511 920.5 1497 c 128,-1,52
 994 1483 994 1483 1069 1454 c 1,0,-1
678 401 m 1,53,54
 762 452 762 452 806 507.5 c 128,-1,55
 850 563 850 563 850 618 c 0,56,57
 850 671 850 671 796.5 727 c 128,-1,58
 743 783 743 783 596 877 c 2,59,-1
 516 928 l 1,60,61
 434 876 434 876 391 820 c 128,-1,62
 348 764 348 764 348 709 c 0,63,64
 348 658 348 658 390.5 610 c 128,-1,65
 433 562 433 562 559 479 c 2,66,-1
 678 401 l 1,53,54
EndSplineSet
EndChar
StartChar: dieresis
Encoding: 168 168 168
Width: 1233
Flags: W
Fore
475 1552 m 1,0,-1
 678 1552 l 1,1,-1
 639 1350 l 1,2,-1
 436 1350 l 1,3,-1
 475 1552 l 1,0,-1
866 1552 m 1,4,-1
 1069 1552 l 1,5,-1
 1030 1350 l 1,6,-1
 827 1350 l 1,7,-1
 866 1552 l 1,4,-1
EndSplineSet
Ligature: 0 0 'liga' space uni0308
EndChar
StartChar: copyright
Encoding: 169 169 169
Width: 1233
Flags: W
Fore
864 1071 m 1,0,-1
 864 963 l 1,1,2
 806 991 806 991 750.5 1004.5 c 128,-1,3
 695 1018 695 1018 637 1018 c 0,4,5
 520 1018 520 1018 452.5 943.5 c 128,-1,6
 385 869 385 869 385 741 c 0,7,8
 385 609 385 609 455 538 c 128,-1,9
 525 467 525 467 655 467 c 0,10,11
 711 467 711 467 762.5 479.5 c 128,-1,12
 814 492 814 492 864 518 c 1,13,-1
 864 414 l 1,14,15
 812 391 812 391 755 380 c 128,-1,16
 698 369 698 369 637 369 c 0,17,18
 457 369 457 369 353.5 469 c 128,-1,19
 250 569 250 569 250 741 c 0,20,21
 250 914 250 914 354 1015 c 128,-1,22
 458 1116 458 1116 637 1116 c 0,23,24
 698 1116 698 1116 755 1105 c 128,-1,25
 812 1094 812 1094 864 1071 c 1,0,-1
616 1255 m 0,26,27
 510 1255 510 1255 419.5 1218 c 128,-1,28
 329 1181 329 1181 254 1106 c 0,29,30
 179 1031 179 1031 140.5 939 c 128,-1,31
 102 847 102 847 102 741 c 0,32,33
 102 637 102 637 140.5 545.5 c 128,-1,34
 179 454 179 454 254 379 c 0,35,36
 330 303 330 303 420.5 265 c 128,-1,37
 511 227 511 227 616 227 c 0,38,39
 722 227 722 227 812.5 265 c 128,-1,40
 903 303 903 303 979 379 c 0,41,42
 1055 455 1055 455 1092.5 545.5 c 128,-1,43
 1130 636 1130 636 1130 741 c 0,44,45
 1130 847 1130 847 1092 939 c 128,-1,46
 1054 1031 1054 1031 979 1106 c 0,47,48
 904 1181 904 1181 813.5 1218 c 128,-1,49
 723 1255 723 1255 616 1255 c 0,26,27
616 1358 m 0,50,51
 743 1358 743 1358 852 1313 c 128,-1,52
 961 1268 961 1268 1051 1178 c 0,53,54
 1141 1087 1141 1087 1187 977 c 128,-1,55
 1233 867 1233 867 1233 741 c 0,56,57
 1233 616 1233 616 1187.5 507 c 128,-1,58
 1142 398 1142 398 1051 307 c 0,59,60
 960 216 960 216 851 170.5 c 128,-1,61
 742 125 742 125 616 125 c 0,62,63
 491 125 491 125 382 170.5 c 128,-1,64
 273 216 273 216 182 307 c 0,65,66
 91 398 91 398 45.5 507 c 128,-1,67
 0 616 0 616 0 741 c 0,68,69
 0 867 0 867 46 977 c 128,-1,70
 92 1087 92 1087 182 1178 c 0,71,72
 272 1268 272 1268 381 1313 c 128,-1,73
 490 1358 490 1358 616 1358 c 0,50,51
EndSplineSet
EndChar
StartChar: ordfeminine
Encoding: 170 170 170
Width: 1233
Flags: W
Fore
729 1104 m 2,0,1
 581 1104 581 1104 511.5 1064 c 128,-1,2
 442 1024 442 1024 442 938 c 0,3,4
 442 883 442 883 478.5 850 c 128,-1,5
 515 817 515 817 575 817 c 0,6,7
 686 817 686 817 761.5 884 c 128,-1,8
 837 951 837 951 864 1075 c 1,9,-1
 870 1104 l 1,10,-1
 729 1104 l 2,0,1
1026 1165 m 1,11,-1
 940 717 l 1,12,-1
 797 717 l 1,13,-1
 819 829 l 1,14,15
 766 766 766 766 692 732 c 128,-1,16
 618 698 618 698 532 698 c 0,17,18
 423 698 423 698 359 758 c 128,-1,19
 295 818 295 818 295 920 c 0,20,21
 295 1060 295 1060 406.5 1139.5 c 128,-1,22
 518 1219 518 1219 717 1219 c 2,23,-1
 891 1219 l 1,24,25
 891 1221 891 1221 892 1228 c 0,26,27
 895 1255 895 1255 895 1268 c 0,28,29
 895 1339 895 1339 851 1372 c 128,-1,30
 807 1405 807 1405 711 1405 c 0,31,32
 642 1405 642 1405 574 1388.5 c 128,-1,33
 506 1372 506 1372 434 1337 c 1,34,-1
 457 1464 l 1,35,36
 532 1492 532 1492 605 1506 c 128,-1,37
 678 1520 678 1520 743 1520 c 0,38,39
 891 1520 891 1520 963.5 1457.5 c 128,-1,40
 1036 1395 1036 1395 1036 1268 c 0,41,42
 1036 1245 1036 1245 1033.5 1219.5 c 128,-1,43
 1031 1194 1031 1194 1026 1165 c 1,11,-1
246 592 m 1,44,-1
 922 592 l 1,45,-1
 899 469 l 1,46,-1
 223 469 l 1,47,-1
 246 592 l 1,44,-1
EndSplineSet
EndChar
StartChar: guillemotleft
Encoding: 171 171 171
Width: 1233
Flags: W
Fore
1106 1059 m 1,0,-1
 1063 848 l 1,1,-1
 713 584 l 1,2,-1
 963 317 l 1,3,-1
 928 141 l 1,4,-1
 541 559 l 1,5,-1
 557 641 l 1,6,-1
 1106 1059 l 1,0,-1
639 1059 m 1,7,-1
 596 848 l 1,8,-1
 246 584 l 1,9,-1
 496 317 l 1,10,-1
 461 141 l 1,11,-1
 74 559 l 1,12,-1
 90 641 l 1,13,-1
 639 1059 l 1,7,-1
EndSplineSet
EndChar
StartChar: logicalnot
Encoding: 172 172 172
Width: 1233
Flags: W
Fore
88 862 m 1,0,-1
 1145 862 l 1,1,-1
 1145 371 l 1,2,-1
 977 371 l 1,3,-1
 977 690 l 1,4,-1
 88 690 l 1,5,-1
 88 862 l 1,0,-1
EndSplineSet
EndChar
StartChar: sfthyphen
Encoding: 173 173 173
Width: 1233
Flags: W
Fore
336 643 m 1,0,-1
 858 643 l 1,1,-1
 825 479 l 1,2,-1
 303 479 l 1,3,-1
 336 643 l 1,0,-1
EndSplineSet
EndChar
StartChar: registered
Encoding: 174 174 174
Width: 1233
Flags: W
Fore
600 1100 m 2,0,1
 747 1100 747 1100 819 1051 c 128,-1,2
 891 1002 891 1002 891 901 c 0,3,4
 891 830 891 830 847 783.5 c 128,-1,5
 803 737 803 737 723 723 c 1,6,7
 742 718 742 718 771 684.5 c 128,-1,8
 800 651 800 651 838 592 c 1,9,-1
 952 406 l 1,10,-1
 809 406 l 1,11,-1
 702 580 l 2,12,13
 653 660 653 660 622.5 681 c 128,-1,14
 592 702 592 702 547 702 c 2,15,-1
 492 702 l 1,16,-1
 492 406 l 1,17,-1
 362 406 l 1,18,-1
 362 1100 l 1,19,-1
 600 1100 l 2,0,1
594 1016 m 2,20,-1
 492 1016 l 1,21,-1
 492 784 l 1,22,-1
 594 784 l 2,23,24
 684 784 684 784 721 811 c 128,-1,25
 758 838 758 838 758 901 c 0,26,27
 758 963 758 963 721 989.5 c 128,-1,28
 684 1016 684 1016 594 1016 c 2,20,-1
616 1358 m 0,29,30
 743 1358 743 1358 852 1313 c 128,-1,31
 961 1268 961 1268 1051 1178 c 0,32,33
 1141 1087 1141 1087 1187 977 c 128,-1,34
 1233 867 1233 867 1233 741 c 0,35,36
 1233 616 1233 616 1187.5 507 c 128,-1,37
 1142 398 1142 398 1051 307 c 0,38,39
 960 216 960 216 851 170.5 c 128,-1,40
 742 125 742 125 616 125 c 0,41,42
 491 125 491 125 382 170.5 c 128,-1,43
 273 216 273 216 182 307 c 0,44,45
 91 398 91 398 45.5 507 c 128,-1,46
 0 616 0 616 0 741 c 0,47,48
 0 867 0 867 46 977 c 128,-1,49
 92 1087 92 1087 182 1178 c 0,50,51
 272 1268 272 1268 381 1313 c 128,-1,52
 490 1358 490 1358 616 1358 c 0,29,30
616 1255 m 0,53,54
 510 1255 510 1255 419.5 1218 c 128,-1,55
 329 1181 329 1181 254 1106 c 0,56,57
 179 1031 179 1031 140.5 939 c 128,-1,58
 102 847 102 847 102 741 c 0,59,60
 102 637 102 637 140.5 545.5 c 128,-1,61
 179 454 179 454 254 379 c 0,62,63
 330 303 330 303 420.5 265 c 128,-1,64
 511 227 511 227 616 227 c 0,65,66
 722 227 722 227 812.5 265 c 128,-1,67
 903 303 903 303 979 379 c 0,68,69
 1055 455 1055 455 1092.5 545.5 c 128,-1,70
 1130 636 1130 636 1130 741 c 0,71,72
 1130 847 1130 847 1092 939 c 128,-1,73
 1054 1031 1054 1031 979 1106 c 0,74,75
 904 1181 904 1181 813.5 1218 c 128,-1,76
 723 1255 723 1255 616 1255 c 0,53,54
EndSplineSet
EndChar
StartChar: macron
Encoding: 175 175 175
Width: 1233
Flags: W
Fore
469 1526 m 1,0,-1
 1067 1526 l 1,1,-1
 1038 1378 l 1,2,-1
 440 1378 l 1,3,-1
 469 1526 l 1,0,-1
EndSplineSet
Ligature: 0 0 'liga' space uni0304
EndChar
StartChar: degree
Encoding: 176 176 176
Width: 1233
Flags: W
Fore
616 1520 m 0,0,1
 681 1520 681 1520 739.5 1495.5 c 128,-1,2
 798 1471 798 1471 842 1425 c 0,3,4
 887 1380 887 1380 910.5 1323 c 128,-1,5
 934 1266 934 1266 934 1200 c 0,6,7
 934 1068 934 1068 841 976.5 c 128,-1,8
 748 885 748 885 614 885 c 0,9,10
 479 885 479 885 389 975 c 128,-1,11
 299 1065 299 1065 299 1200 c 0,12,13
 299 1334 299 1334 391 1427 c 128,-1,14
 483 1520 483 1520 616 1520 c 0,0,1
616 1391 m 0,15,16
 537 1391 537 1391 481.5 1335.5 c 128,-1,17
 426 1280 426 1280 426 1200 c 0,18,19
 426 1120 426 1120 480.5 1066 c 128,-1,20
 535 1012 535 1012 614 1012 c 0,21,22
 694 1012 694 1012 750.5 1067 c 128,-1,23
 807 1122 807 1122 807 1200 c 0,24,25
 807 1279 807 1279 751 1335 c 128,-1,26
 695 1391 695 1391 616 1391 c 0,15,16
EndSplineSet
EndChar
StartChar: plusminus
Encoding: 177 177 177
Width: 1233
Flags: W
Fore
88 170 m 1,0,-1
 1145 170 l 1,1,-1
 1145 0 l 1,2,-1
 88 0 l 1,3,-1
 88 170 l 1,0,-1
700 1171 m 1,4,-1
 700 842 l 1,5,-1
 1145 842 l 1,6,-1
 1145 672 l 1,7,-1
 700 672 l 1,8,-1
 700 340 l 1,9,-1
 532 340 l 1,10,-1
 532 672 l 1,11,-1
 88 672 l 1,12,-1
 88 842 l 1,13,-1
 532 842 l 1,14,-1
 532 1171 l 1,15,-1
 700 1171 l 1,4,-1
EndSplineSet
EndChar
StartChar: twosuperior
Encoding: 178 178 178
Width: 1233
Flags: W
Fore
492 782 m 1,0,-1
 887 782 l 1,1,-1
 864 668 l 1,2,-1
 307 668 l 1,3,-1
 328 778 l 1,4,-1
 498 918 l 1,5,-1
 531 945 l 2,6,7
 844 1198 844 1198 844 1303 c 0,8,9
 844 1354 844 1354 807 1384.5 c 128,-1,10
 770 1415 770 1415 707 1415 c 0,11,12
 656 1415 656 1415 595 1396.5 c 128,-1,13
 534 1378 534 1378 451 1337 c 1,14,-1
 475 1464 l 1,15,16
 559 1493 559 1493 621.5 1506.5 c 128,-1,17
 684 1520 684 1520 737 1520 c 0,18,19
 855 1520 855 1520 923 1464.5 c 128,-1,20
 991 1409 991 1409 991 1315 c 0,21,22
 991 1176 991 1176 682 933 c 2,23,-1
 662 918 l 1,24,-1
 492 782 l 1,0,-1
EndSplineSet
EndChar
StartChar: threesuperior
Encoding: 179 179 179
Width: 1233
Flags: W
Fore
772 1116 m 1,0,1
 844 1104 844 1104 883 1058.5 c 128,-1,2
 922 1013 922 1013 922 942 c 0,3,4
 922 811 922 811 818 732 c 128,-1,5
 714 653 714 653 539 653 c 0,6,7
 473 653 473 653 409.5 663.5 c 128,-1,8
 346 674 346 674 287 694 c 1,9,-1
 311 815 l 1,10,11
 378 786 378 786 430 773 c 128,-1,12
 482 760 482 760 532 760 c 0,13,14
 644 760 644 760 709 806 c 128,-1,15
 774 852 774 852 774 930 c 0,16,17
 774 997 774 997 731.5 1029 c 128,-1,18
 689 1061 689 1061 600 1061 c 2,19,-1
 528 1061 l 1,20,-1
 549 1167 l 1,21,-1
 621 1167 l 2,22,23
 718 1167 718 1167 777 1207 c 128,-1,24
 836 1247 836 1247 836 1311 c 0,25,26
 836 1362 836 1362 793 1387.5 c 128,-1,27
 750 1413 750 1413 664 1413 c 0,28,29
 622 1413 622 1413 571.5 1402.5 c 128,-1,30
 521 1392 521 1392 461 1370 c 1,31,-1
 483 1485 l 1,32,33
 554 1502 554 1502 615 1511 c 128,-1,34
 676 1520 676 1520 731 1520 c 0,35,36
 852 1520 852 1520 917.5 1470 c 128,-1,37
 983 1420 983 1420 983 1329 c 0,38,39
 983 1250 983 1250 926 1192 c 128,-1,40
 869 1134 869 1134 772 1116 c 1,0,1
EndSplineSet
EndChar
StartChar: acute
Encoding: 180 180 180
Width: 1233
Flags: W
Fore
907 1638 m 1,0,-1
 1126 1638 l 1,1,-1
 731 1262 l 1,2,-1
 575 1262 l 1,3,-1
 907 1638 l 1,0,-1
EndSplineSet
LCarets: 0 65535 '    ' 1 0 
Ligature: 0 0 'liga' space acutecomb
EndChar
StartChar: mu
Encoding: 181 181 181
Width: 1233
Flags: W
Fore
-39 -426 m 1,0,-1
 262 1120 l 1,1,-1
 449 1120 l 1,2,-1
 313 424 l 2,3,4
 307 393 307 393 304 366 c 128,-1,5
 301 339 301 339 301 319 c 0,6,7
 301 228 301 228 355.5 179.5 c 128,-1,8
 410 131 410 131 512 131 c 0,9,10
 649 131 649 131 731 214 c 128,-1,11
 813 297 813 297 846 467 c 2,12,-1
 973 1120 l 1,13,-1
 1159 1120 l 1,14,-1
 991 258 l 1,15,16
 988 240 988 240 986.5 227 c 128,-1,17
 985 214 985 214 985 203 c 0,18,19
 985 173 985 173 997.5 157 c 128,-1,20
 1010 141 1010 141 1034 141 c 0,21,22
 1043 141 1043 141 1059 146 c 128,-1,23
 1075 151 1075 151 1106 164 c 1,24,-1
 1077 16 l 1,25,26
 1037 -6 1037 -6 1000 -17.5 c 128,-1,27
 963 -29 963 -29 930 -29 c 0,28,29
 863 -29 863 -29 823.5 13.5 c 128,-1,30
 784 56 784 56 784 129 c 1,31,32
 731 47 731 47 661.5 9 c 128,-1,33
 592 -29 592 -29 494 -29 c 0,34,35
 402 -29 402 -29 340 12.5 c 128,-1,36
 278 54 278 54 246 137 c 1,37,-1
 137 -426 l 1,38,-1
 -39 -426 l 1,0,-1
EndSplineSet
EndChar
StartChar: paragraph
Encoding: 182 182 182
Width: 1233
Flags: W
Fore
735 1493 m 2,0,-1
 1141 1493 l 1,1,-1
 813 -197 l 1,2,-1
 674 -197 l 1,3,-1
 977 1370 l 1,4,-1
 786 1370 l 1,5,-1
 483 -197 l 1,6,-1
 342 -197 l 1,7,-1
 506 649 l 1,8,9
 329 653 329 653 227 748 c 128,-1,10
 125 843 125 843 125 1004 c 0,11,12
 125 1213 125 1213 298 1353 c 128,-1,13
 471 1493 471 1493 735 1493 c 2,0,-1
EndSplineSet
EndChar
StartChar: periodcentered
Encoding: 183 183 183
Width: 1233
Flags: W
Fore
512 864 m 1,0,-1
 766 864 l 1,1,-1
 707 559 l 1,2,-1
 455 559 l 1,3,-1
 512 864 l 1,0,-1
EndSplineSet
EndChar
StartChar: cedilla
Encoding: 184 184 184
Width: 1233
Flags: W
Fore
555 0 m 1,0,1
 592 -64 592 -64 609.5 -110.5 c 128,-1,2
 627 -157 627 -157 627 -193 c 0,3,4
 627 -286 627 -286 556.5 -340.5 c 128,-1,5
 486 -395 486 -395 367 -395 c 0,6,7
 323 -395 323 -395 276 -387.5 c 128,-1,8
 229 -380 229 -380 182 -365 c 1,9,-1
 207 -236 l 1,10,11
 247 -255 247 -255 283.5 -264.5 c 128,-1,12
 320 -274 320 -274 352 -274 c 0,13,14
 419 -274 419 -274 456.5 -244 c 128,-1,15
 494 -214 494 -214 494 -160 c 0,16,17
 494 -132 494 -132 479.5 -93 c 128,-1,18
 465 -54 465 -54 436 0 c 1,19,-1
 555 0 l 1,0,1
EndSplineSet
Ligature: 0 0 'liga' space uni0327
EndChar
StartChar: onesuperior
Encoding: 185 185 185
Width: 1233
Flags: W
Fore
369 778 m 1,0,-1
 575 778 l 1,1,-1
 692 1389 l 1,2,-1
 461 1348 l 1,3,-1
 483 1464 l 1,4,-1
 721 1503 l 1,5,-1
 858 1503 l 1,6,-1
 717 778 l 1,7,-1
 922 778 l 1,8,-1
 901 668 l 1,9,-1
 348 668 l 1,10,-1
 369 778 l 1,0,-1
EndSplineSet
EndChar
StartChar: ordmasculine
Encoding: 186 186 186
Width: 1233
Flags: W
Fore
633 698 m 0,0,1
 481 698 481 698 394 788.5 c 128,-1,2
 307 879 307 879 307 1036 c 0,3,4
 307 1123 307 1123 339.5 1212 c 128,-1,5
 372 1301 372 1301 428 1368 c 0,6,7
 489 1442 489 1442 570 1481 c 128,-1,8
 651 1520 651 1520 741 1520 c 0,9,10
 892 1520 892 1520 978.5 1429 c 128,-1,11
 1065 1338 1065 1338 1065 1180 c 0,12,13
 1065 1092 1065 1092 1033 1004 c 128,-1,14
 1001 916 1001 916 946 850 c 0,15,16
 885 776 885 776 804.5 737 c 128,-1,17
 724 698 724 698 633 698 c 0,0,1
463 1038 m 0,18,19
 463 933 463 933 512.5 873 c 128,-1,20
 562 813 562 813 649 813 c 0,21,22
 755 813 755 813 833 921 c 128,-1,23
 911 1029 911 1029 911 1180 c 0,24,25
 911 1285 911 1285 861.5 1345 c 128,-1,26
 812 1405 812 1405 725 1405 c 0,27,28
 618 1405 618 1405 540.5 1297.5 c 128,-1,29
 463 1190 463 1190 463 1038 c 0,18,19
246 592 m 1,30,-1
 922 592 l 1,31,-1
 899 469 l 1,32,-1
 223 469 l 1,33,-1
 246 592 l 1,30,-1
EndSplineSet
EndChar
StartChar: guillemotright
Encoding: 187 187 187
Width: 1233
Flags: W
Fore
82 141 m 1,0,-1
 125 352 l 1,1,-1
 475 614 l 1,2,-1
 225 883 l 1,3,-1
 260 1059 l 1,4,-1
 647 641 l 1,5,-1
 633 559 l 1,6,-1
 82 141 l 1,0,-1
549 141 m 1,7,-1
 592 352 l 1,8,-1
 942 614 l 1,9,-1
 692 883 l 1,10,-1
 727 1059 l 1,11,-1
 1114 641 l 1,12,-1
 1100 559 l 1,13,-1
 549 141 l 1,7,-1
EndSplineSet
EndChar
StartChar: questiondown
Encoding: 191 191 191
Width: 1233
Flags: W
Fore
655 1092 m 1,0,-1
 846 1092 l 1,1,-1
 817 938 l 1,2,3
 799 845 799 845 759 779.5 c 128,-1,4
 719 714 719 714 608 621 c 2,5,-1
 502 532 l 2,6,7
 417 460 417 460 381.5 404.5 c 128,-1,8
 346 349 346 349 346 293 c 0,9,10
 346 219 346 219 401.5 178 c 128,-1,11
 457 137 457 137 557 137 c 0,12,13
 636 137 636 137 734 172.5 c 128,-1,14
 832 208 832 208 938 274 c 1,15,-1
 901 86 l 1,16,17
 793 29 793 29 691.5 1 c 128,-1,18
 590 -27 590 -27 489 -27 c 0,19,20
 337 -27 337 -27 240 54.5 c 128,-1,21
 143 136 143 136 143 262 c 0,22,23
 143 356 143 356 192 436.5 c 128,-1,24
 241 517 241 517 371 625 c 2,25,-1
 475 711 l 2,26,27
 559 781 559 781 589.5 832 c 128,-1,28
 620 883 620 883 635 969 c 1,29,-1
 655 1092 l 1,0,-1
881 1239 m 1,30,-1
 678 1239 l 1,31,-1
 727 1493 l 1,32,-1
 930 1493 l 1,33,-1
 881 1239 l 1,30,-1
EndSplineSet
EndChar
StartChar: Aring
Encoding: 197 197 197
Width: 1233
Flags: W
Fore
924 1626 m 0,0,1
 924 1689 924 1689 879.5 1733.5 c 128,-1,2
 835 1778 835 1778 772 1778 c 0,3,4
 708 1778 708 1778 664.5 1734.5 c 128,-1,5
 621 1691 621 1691 621 1626 c 0,6,7
 621 1563 621 1563 664.5 1519 c 128,-1,8
 708 1475 708 1475 772 1475 c 0,9,10
 835 1475 835 1475 879.5 1519 c 128,-1,11
 924 1563 924 1563 924 1626 c 0,0,1
735 1325 m 1,12,-1
 371 551 l 1,13,-1
 801 551 l 1,14,-1
 735 1325 l 1,12,-1
600 1415 m 1,15,16
 549 1450 549 1450 523.5 1503.5 c 128,-1,17
 498 1557 498 1557 498 1626 c 0,18,19
 498 1740 498 1740 577.5 1820.5 c 128,-1,20
 657 1901 657 1901 772 1901 c 0,21,22
 886 1901 886 1901 966.5 1820.5 c 128,-1,23
 1047 1740 1047 1740 1047 1626 c 0,24,25
 1047 1545 1047 1545 1007 1481.5 c 128,-1,26
 967 1418 967 1418 897 1386 c 1,27,-1
 1051 0 l 1,28,-1
 850 0 l 1,29,-1
 815 389 l 1,30,-1
 295 389 l 1,31,-1
 111 0 l 1,32,-1
 -106 0 l 1,33,-1
 600 1415 l 1,15,16
EndSplineSet
Ligature: 0 1 'liga' A uni030A
EndChar
StartChar: AE
Encoding: 198 198 198
Width: 1233
Flags: W
Fore
1307 1493 m 1,0,-1
 1274 1323 l 1,1,-1
 936 1323 l 1,2,-1
 850 881 l 1,3,-1
 1157 881 l 1,4,-1
 1124 711 l 1,5,-1
 817 711 l 1,6,-1
 711 170 l 1,7,-1
 1067 170 l 1,8,-1
 1034 0 l 1,9,-1
 492 0 l 1,10,-1
 567 383 l 1,11,-1
 215 383 l 1,12,-1
 39 0 l 1,13,-1
 -145 0 l 1,14,-1
 555 1493 l 1,15,-1
 1307 1493 l 1,0,-1
647 1323 m 1,16,-1
 291 551 l 1,17,-1
 600 551 l 1,18,-1
 750 1323 l 1,19,-1
 647 1323 l 1,16,-1
EndSplineSet
EndChar
StartChar: Eth
Encoding: 208 208 208
Width: 1233
Flags: W
Fore
324 166 m 2,0,1
 509 166 509 166 621 228.5 c 128,-1,2
 733 291 733 291 801 432 c 0,3,4
 855 547 855 547 889.5 706.5 c 128,-1,5
 924 866 924 866 924 999 c 0,6,7
 924 1175 924 1175 842 1251 c 128,-1,8
 760 1327 760 1327 567 1327 c 2,9,-1
 453 1327 l 1,10,-1
 362 858 l 1,11,-1
 629 858 l 1,12,-1
 600 709 l 1,13,-1
 334 709 l 1,14,-1
 227 166 l 1,15,-1
 324 166 l 2,0,1
586 1493 m 2,16,17
 859 1493 859 1493 994.5 1369 c 128,-1,18
 1130 1245 1130 1245 1130 993 c 0,19,20
 1130 831 1130 831 1088 659 c 128,-1,21
 1046 487 1046 487 975 354 c 0,22,23
 871 163 871 163 715.5 81.5 c 128,-1,24
 560 0 560 0 295 0 c 2,25,-1
 -8 0 l 1,26,-1
 129 709 l 1,27,-1
 2 709 l 1,28,-1
 31 858 l 1,29,-1
 160 858 l 1,30,-1
 283 1493 l 1,31,-1
 586 1493 l 2,16,17
EndSplineSet
EndChar
StartChar: multiply
Encoding: 215 215 215
Width: 1233
Flags: W
Fore
150 293 m 1,0,-1
 500 641 l 1,1,-1
 150 991 l 1,2,-1
 266 1108 l 1,3,-1
 616 758 l 1,4,-1
 967 1108 l 1,5,-1
 1083 991 l 1,6,-1
 733 641 l 1,7,-1
 1081 293 l 1,8,-1
 965 174 l 1,9,-1
 616 524 l 1,10,-1
 268 174 l 1,11,-1
 150 293 l 1,0,-1
EndSplineSet
EndChar
StartChar: Oslash
Encoding: 216 216 216
Width: 1233
Flags: W
Fore
322 229 m 1,0,1
 342 185 342 185 389 160 c 128,-1,2
 436 135 436 135 502 135 c 0,3,4
 614 135 614 135 694.5 217 c 128,-1,5
 775 299 775 299 836 473 c 0,6,7
 886 618 886 618 913 765.5 c 128,-1,8
 940 913 940 913 940 1036 c 0,9,10
 940 1064 940 1064 939.5 1081.5 c 128,-1,11
 939 1099 939 1099 938 1116 c 1,12,-1
 322 229 l 1,0,1
291 389 m 1,13,-1
 905 1274 l 1,14,15
 876 1313 876 1313 830.5 1334.5 c 128,-1,16
 785 1356 785 1356 729 1356 c 0,17,18
 616 1356 616 1356 535.5 1274 c 128,-1,19
 455 1192 455 1192 395 1018 c 0,20,21
 345 870 345 870 316 717.5 c 128,-1,22
 287 565 287 565 287 457 c 0,23,24
 287 447 287 447 289 419 c 0,25,26
 290 401 290 401 291 389 c 1,13,-1
1094 1337 m 1,27,28
 1123 1277 1123 1277 1137 1205 c 128,-1,29
 1151 1133 1151 1133 1151 1042 c 0,30,31
 1151 846 1151 846 1098.5 635 c 128,-1,32
 1046 424 1046 424 963 276 c 0,33,34
 875 122 875 122 755 46.5 c 128,-1,35
 635 -29 635 -29 477 -29 c 0,36,37
 396 -29 396 -29 328.5 -6 c 128,-1,38
 261 17 261 17 207 63 c 1,39,-1
 113 -70 l 1,40,-1
 14 -6 l 1,41,-1
 133 164 l 1,42,43
 106 222 106 222 93 292.5 c 128,-1,44
 80 363 80 363 80 449 c 0,45,46
 80 647 80 647 132 857.5 c 128,-1,47
 184 1068 184 1068 268 1217 c 0,48,49
 356 1370 356 1370 475.5 1445 c 128,-1,50
 595 1520 595 1520 754 1520 c 0,51,52
 831 1520 831 1520 896.5 1498.5 c 128,-1,53
 962 1477 962 1477 1016 1434 c 1,54,-1
 1100 1559 l 1,55,-1
 1200 1495 l 1,56,-1
 1094 1337 l 1,27,28
EndSplineSet
EndChar
StartChar: Thorn
Encoding: 222 222 222
Width: 1233
Flags: W
Fore
326 365 m 1,0,-1
 254 0 l 1,1,-1
 51 0 l 1,2,-1
 342 1493 l 1,3,-1
 545 1491 l 1,4,-1
 494 1217 l 1,5,-1
 735 1217 l 2,6,7
 942 1217 942 1217 1050.5 1129 c 128,-1,8
 1159 1041 1159 1041 1159 874 c 0,9,10
 1159 638 1159 638 998 501.5 c 128,-1,11
 837 365 837 365 557 365 c 2,12,-1
 326 365 l 1,0,-1
461 1059 m 1,13,-1
 356 522 l 1,14,-1
 590 522 l 2,15,16
 754 522 754 522 853 614 c 128,-1,17
 952 706 952 706 952 858 c 0,18,19
 952 961 952 961 890 1010 c 128,-1,20
 828 1059 828 1059 698 1059 c 2,21,-1
 461 1059 l 1,13,-1
EndSplineSet
EndChar
StartChar: germandbls
Encoding: 223 223 223
Width: 1233
Flags: W
Fore
276 1137 m 1,0,1
 318 1349 318 1349 437.5 1452.5 c 128,-1,2
 557 1556 557 1556 760 1556 c 0,3,4
 936 1556 936 1556 1031 1476 c 128,-1,5
 1126 1396 1126 1396 1126 1247 c 0,6,7
 1126 1214 1126 1214 1121.5 1179 c 128,-1,8
 1117 1144 1117 1144 1108 1108 c 1,9,10
 934 1087 934 1087 833.5 1019.5 c 128,-1,11
 733 952 733 952 733 856 c 0,12,13
 733 818 733 818 753.5 787.5 c 128,-1,14
 774 757 774 757 834 713 c 2,15,-1
 885 674 l 2,16,17
 1000 589 1000 589 1040.5 522.5 c 128,-1,18
 1081 456 1081 456 1081 369 c 0,19,20
 1081 186 1081 186 951.5 78.5 c 128,-1,21
 822 -29 822 -29 600 -29 c 0,22,23
 529 -29 529 -29 462 -16.5 c 128,-1,24
 395 -4 395 -4 330 20 c 1,25,-1
 360 184 l 1,26,27
 419 152 419 152 485.5 135.5 c 128,-1,28
 552 119 552 119 623 119 c 0,29,30
 754 119 754 119 829.5 181.5 c 128,-1,31
 905 244 905 244 905 352 c 0,32,33
 905 404 905 404 878 445 c 128,-1,34
 851 486 851 486 766 549 c 1,35,-1
 705 596 l 2,36,37
 615 664 615 664 587 710 c 128,-1,38
 559 756 559 756 559 819 c 0,39,40
 559 950 559 950 660.5 1046 c 128,-1,41
 762 1142 762 1142 940 1178 c 1,42,43
 943 1193 943 1193 944.5 1207.5 c 128,-1,44
 946 1222 946 1222 946 1237 c 0,45,46
 946 1316 946 1316 894 1360.5 c 128,-1,47
 842 1405 842 1405 750 1405 c 0,48,49
 629 1405 629 1405 558 1337.5 c 128,-1,50
 487 1270 487 1270 461 1133 c 1,51,-1
 242 0 l 1,52,-1
 55 0 l 1,53,-1
 276 1137 l 1,0,1
EndSplineSet
EndChar
StartChar: ae
Encoding: 230 230 230
Width: 1233
Flags: W
Fore
487 442 m 1,0,-1
 502 514 l 1,1,-1
 453 514 l 2,2,3
 328 514 328 514 275.5 498.5 c 128,-1,4
 223 483 223 483 188 444 c 0,5,6
 158 411 158 411 140.5 362 c 128,-1,7
 123 313 123 313 123 262 c 0,8,9
 123 202 123 202 162 162.5 c 128,-1,10
 201 123 201 123 260 123 c 0,11,12
 350 123 350 123 400.5 190 c 128,-1,13
 451 257 451 257 487 442 c 1,0,-1
1024 657 m 1,14,-1
 1040 731 l 2,15,16
 1046 758 1046 758 1048.5 786 c 128,-1,17
 1051 814 1051 814 1051 846 c 0,18,19
 1051 916 1051 916 1017 955.5 c 128,-1,20
 983 995 983 995 924 995 c 0,21,22
 841 995 841 995 788 931.5 c 128,-1,23
 735 868 735 868 711 739 c 1,24,-1
 694 657 l 1,25,-1
 1024 657 l 1,14,-1
1163 514 m 1,26,-1
 668 514 l 1,27,28
 649 423 649 423 641 368 c 128,-1,29
 633 313 633 313 633 285 c 0,30,31
 633 207 633 207 681.5 163 c 128,-1,32
 730 119 730 119 815 119 c 0,33,34
 885 119 885 119 956.5 148 c 128,-1,35
 1028 177 1028 177 1081 227 c 1,36,-1
 1047 55 l 1,37,38
 988 14 988 14 922 -7.5 c 128,-1,39
 856 -29 856 -29 784 -29 c 0,40,41
 678 -29 678 -29 608.5 12.5 c 128,-1,42
 539 54 539 54 514 131 c 1,43,44
 467 51 467 51 396.5 11 c 128,-1,45
 326 -29 326 -29 233 -29 c 0,46,47
 105 -29 105 -29 29 44 c 128,-1,48
 -47 117 -47 117 -47 240 c 0,49,50
 -47 440 -47 440 73.5 548.5 c 128,-1,51
 194 657 194 657 418 657 c 2,52,-1
 535 657 l 1,53,-1
 553 745 l 2,54,55
 557 765 557 765 559 786.5 c 128,-1,56
 561 808 561 808 561 834 c 0,57,58
 561 910 561 910 518.5 952.5 c 128,-1,59
 476 995 476 995 399 995 c 0,60,61
 350 995 350 995 283.5 973.5 c 128,-1,62
 217 952 217 952 141 911 c 1,63,-1
 176 1079 l 1,64,65
 255 1113 255 1113 324 1130 c 128,-1,66
 393 1147 393 1147 449 1147 c 0,67,68
 531 1147 531 1147 590 1114 c 128,-1,69
 649 1081 649 1081 680 1018 c 1,70,71
 730 1080 730 1080 800 1113.5 c 128,-1,72
 870 1147 870 1147 950 1147 c 0,73,74
 1071 1147 1071 1147 1142.5 1070 c 128,-1,75
 1214 993 1214 993 1214 862 c 0,76,77
 1214 823 1214 823 1205.5 759.5 c 128,-1,78
 1197 696 1197 696 1180 604 c 1,79,-1
 1163 514 l 1,26,-1
EndSplineSet
EndChar
StartChar: eth
Encoding: 240 240 240
Width: 1233
Flags: W
Fore
870 1327 m 1,0,1
 993 1156 993 1156 1049.5 1007 c 128,-1,2
 1106 858 1106 858 1106 707 c 0,3,4
 1106 568 1106 568 1068.5 439.5 c 128,-1,5
 1031 311 1031 311 961 207 c 0,6,7
 884 91 884 91 770.5 31 c 128,-1,8
 657 -29 657 -29 516 -29 c 0,9,10
 323 -29 323 -29 221 78.5 c 128,-1,11
 119 186 119 186 119 389 c 0,12,13
 119 515 119 515 157 637 c 128,-1,14
 195 759 195 759 266 864 c 0,15,16
 342 975 342 975 457.5 1036.5 c 128,-1,17
 573 1098 573 1098 707 1098 c 0,18,19
 724 1098 724 1098 772 1093 c 0,20,21
 793 1091 793 1091 805 1090 c 1,22,23
 786 1128 786 1128 759.5 1171 c 128,-1,24
 733 1214 733 1214 692 1272 c 1,25,-1
 395 1178 l 1,26,-1
 365 1270 l 1,27,-1
 639 1356 l 1,28,-1
 498 1556 l 1,29,-1
 711 1556 l 1,30,-1
 815 1411 l 1,31,-1
 1102 1499 l 1,32,-1
 1130 1407 l 1,33,-1
 870 1327 l 1,0,1
874 907 m 1,34,35
 837 926 837 926 797 935 c 128,-1,36
 757 944 757 944 713 944 c 0,37,38
 534 944 534 944 423.5 788 c 128,-1,39
 313 632 313 632 313 379 c 0,40,41
 313 259 313 259 370.5 193 c 128,-1,42
 428 127 428 127 532 127 c 0,43,44
 699 127 699 127 805 287.5 c 128,-1,45
 911 448 911 448 911 705 c 0,46,47
 911 769 911 769 902 819.5 c 128,-1,48
 893 870 893 870 874 907 c 1,34,35
EndSplineSet
EndChar
StartChar: divide
Encoding: 247 247 247
Width: 1233
Flags: W
Fore
494 395 m 1,0,-1
 739 395 l 1,1,-1
 739 150 l 1,2,-1
 494 150 l 1,3,-1
 494 395 l 1,0,-1
494 1135 m 1,4,-1
 739 1135 l 1,5,-1
 739 889 l 1,6,-1
 494 889 l 1,7,-1
 494 1135 l 1,4,-1
88 727 m 1,8,-1
 1145 727 l 1,9,-1
 1145 557 l 1,10,-1
 88 557 l 1,11,-1
 88 727 l 1,8,-1
EndSplineSet
EndChar
StartChar: oslash
Encoding: 248 248 248
Width: 1233
Flags: W
Fore
911 825 m 1,0,-1
 377 186 l 1,1,2
 407 156 407 156 446 141.5 c 128,-1,3
 485 127 485 127 537 127 c 0,4,5
 700 127 700 127 810 298.5 c 128,-1,6
 920 470 920 470 920 733 c 0,7,8
 920 759 920 759 918 782 c 128,-1,9
 916 805 916 805 911 825 c 1,0,-1
176 133 m 1,10,11
 147 181 147 181 133 245 c 128,-1,12
 119 309 119 309 119 389 c 0,13,14
 119 531 119 531 159 666 c 128,-1,15
 199 801 199 801 274 911 c 0,16,17
 355 1030 355 1030 466.5 1088.5 c 128,-1,18
 578 1147 578 1147 725 1147 c 0,19,20
 803 1147 803 1147 863 1129 c 128,-1,21
 923 1111 923 1111 969 1075 c 1,22,-1
 1081 1212 l 1,23,-1
 1174 1135 l 1,24,-1
 1051 989 l 1,25,26
 1083 939 1083 939 1098.5 875 c 128,-1,27
 1114 811 1114 811 1114 727 c 0,28,29
 1114 589 1114 589 1073 452.5 c 128,-1,30
 1032 316 1032 316 958 207 c 0,31,32
 879 89 879 89 766 30 c 128,-1,33
 653 -29 653 -29 506 -29 c 0,34,35
 432 -29 432 -29 370.5 -10.5 c 128,-1,36
 309 8 309 8 258 45 c 1,37,-1
 139 -96 l 1,38,-1
 47 -20 l 1,39,-1
 176 133 l 1,10,11
852 938 m 1,40,41
 821 966 821 966 784.5 978.5 c 128,-1,42
 748 991 748 991 696 991 c 0,43,44
 532 991 532 991 422.5 819 c 128,-1,45
 313 647 313 647 313 379 c 0,46,47
 313 359 313 359 314.5 339.5 c 128,-1,48
 316 320 316 320 319 302 c 1,49,-1
 852 938 l 1,40,41
EndSplineSet
EndChar
StartChar: thorn
Encoding: 254 254 254
Width: 1233
Flags: W
Fore
293 141 m 1,0,-1
 182 -426 l 1,1,-1
 -2 -426 l 1,2,-1
 385 1567 l 1,3,-1
 569 1567 l 1,4,-1
 455 977 l 1,5,6
 516 1059 516 1059 602 1103 c 128,-1,7
 688 1147 688 1147 788 1147 c 0,8,9
 950 1147 950 1147 1039 1043 c 128,-1,10
 1128 939 1128 939 1128 752 c 0,11,12
 1128 609 1128 609 1088.5 465 c 128,-1,13
 1049 321 1049 321 979 211 c 0,14,15
 904 93 904 93 802 32 c 128,-1,16
 700 -29 700 -29 578 -29 c 0,17,18
 478 -29 478 -29 407.5 13 c 128,-1,19
 337 55 337 55 293 141 c 1,0,-1
569 127 m 0,20,21
 650 127 650 127 717 171.5 c 128,-1,22
 784 216 784 216 829 301 c 0,23,24
 878 393 878 393 906 508.5 c 128,-1,25
 934 624 934 624 934 737 c 0,26,27
 934 864 934 864 882.5 927.5 c 128,-1,28
 831 991 831 991 729 991 c 0,29,30
 644 991 644 991 575.5 946 c 128,-1,31
 507 901 507 901 459 813 c 0,32,33
 410 725 410 725 382 611 c 128,-1,34
 354 497 354 497 354 383 c 0,35,36
 354 260 354 260 410 193.5 c 128,-1,37
 466 127 466 127 569 127 c 0,20,21
EndSplineSet
EndChar
StartChar: Dcroat
Encoding: 272 272 272
Width: 1233
Flags: W
Fore
324 166 m 2,0,1
 509 166 509 166 621 228.5 c 128,-1,2
 733 291 733 291 801 432 c 0,3,4
 855 547 855 547 889.5 706.5 c 128,-1,5
 924 866 924 866 924 999 c 0,6,7
 924 1175 924 1175 842 1251 c 128,-1,8
 760 1327 760 1327 567 1327 c 2,9,-1
 453 1327 l 1,10,-1
 362 858 l 1,11,-1
 629 858 l 1,12,-1
 600 709 l 1,13,-1
 334 709 l 1,14,-1
 227 166 l 1,15,-1
 324 166 l 2,0,1
586 1493 m 2,16,17
 859 1493 859 1493 994.5 1369 c 128,-1,18
 1130 1245 1130 1245 1130 993 c 0,19,20
 1130 831 1130 831 1088 659 c 128,-1,21
 1046 487 1046 487 975 354 c 0,22,23
 871 163 871 163 715.5 81.5 c 128,-1,24
 560 0 560 0 295 0 c 2,25,-1
 -8 0 l 1,26,-1
 129 709 l 1,27,-1
 2 709 l 1,28,-1
 31 858 l 1,29,-1
 160 858 l 1,30,-1
 283 1493 l 1,31,-1
 586 1493 l 2,16,17
EndSplineSet
EndChar
StartChar: dcroat
Encoding: 273 273 273
Width: 1233
Flags: W
Fore
686 991 m 0,0,1
 598 991 598 991 531 947.5 c 128,-1,2
 464 904 464 904 418 817 c 0,3,4
 369 727 369 727 342 612.5 c 128,-1,5
 315 498 315 498 315 383 c 0,6,7
 315 255 315 255 366 191 c 128,-1,8
 417 127 417 127 518 127 c 0,9,10
 603 127 603 127 671.5 172 c 128,-1,11
 740 217 740 217 788 305 c 0,12,13
 837 392 837 392 865 507.5 c 128,-1,14
 893 623 893 623 893 737 c 0,15,16
 893 857 893 857 838.5 924 c 128,-1,17
 784 991 784 991 686 991 c 0,0,1
954 977 m 1,18,-1
 1016 1286 l 1,19,-1
 684 1286 l 1,20,-1
 709 1407 l 1,21,-1
 1038 1407 l 1,22,-1
 1069 1556 l 1,23,-1
 1253 1556 l 1,24,-1
 1223 1407 l 1,25,-1
 1415 1407 l 1,26,-1
 1393 1286 l 1,27,-1
 1200 1286 l 1,28,-1
 950 0 l 1,29,-1
 766 0 l 1,30,-1
 793 141 l 1,31,32
 728 57 728 57 645.5 14 c 128,-1,33
 563 -29 563 -29 463 -29 c 0,34,35
 300 -29 300 -29 209.5 76 c 128,-1,36
 119 181 119 181 119 369 c 0,37,38
 119 512 119 512 159 656.5 c 128,-1,39
 199 801 199 801 268 909 c 0,40,41
 343 1027 343 1027 444.5 1087 c 128,-1,42
 546 1147 546 1147 670 1147 c 0,43,44
 767 1147 767 1147 840 1103.5 c 128,-1,45
 913 1060 913 1060 954 977 c 1,18,-1
EndSplineSet
EndChar
StartChar: Hbar
Encoding: 294 294 294
Width: 1233
Flags: W
Fore
282 1493 m 1,0,-1
 484 1493 l 1,1,-1
 441 1269 l 1,0,0
 995 1269 l 1,0,0
 1038 1493 l 1,4,-1
 1240 1493 l 1,5,-1
 1197 1269 l 1,0,0
 1332 1269 l 1,1,-1
 1300 1105 l 1,2,-1
 1165 1105 l 1,0,0
 950 0 l 1,6,-1
 748 0 l 1,7,-1
 886 711 l 1,8,-1
 332 711 l 1,9,-1
 194 0 l 1,10,-1
 -8 0 l 1,11,-1
 207 1105 l 1,0,0
 73 1105 l 1,3,-1
 105 1269 l 1,0,-1
 239 1269 l 1,0,0
 282 1493 l 1,0,-1
409 1105 m 1,0,0
 365 881 l 1,2,-1
 919 881 l 1,3,-1
 963 1105 l 1,0,0
 409 1105 l 1,0,0
EndSplineSet
EndChar
StartChar: hbar
Encoding: 295 295 295
Width: 1233
Flags: W
Fore
1034.5 694 m 2,0,-1
 900 0 l 1,1,-1
 715 0 l 1,2,-1
 850 695 l 17,3,4
 862 759.5 862 759.5 862 809 c 0,0,0
 862 875 862 875 839.5 916 c 128,-1,5
 800 987 800 987 687.5 987 c 0,6,7
 562.5 987 562.5 987 471.5 895.5 c 128,-1,8
 384 808 384 808 351 633 c 9,9,-1
 228 0 l 1,10,-1
 44 0 l 1,11,-1
 291 1270 l 1,0,0
 166 1270 l 1,3,-1
 198 1434 l 1,0,-1
 323 1434 l 1,0,0
 346 1556 l 1,12,-1
 530 1556 l 1,13,-1
 507 1434 l 1,0,0
 860 1434 l 1,1,-1
 828 1270 l 1,2,-1
 475 1270 l 1,0,0
 413 952 l 1,14,15
 480 1048 480 1048 574 1097.5 c 128,-1,16
 667.5 1147 667.5 1147 782.5 1147 c 0,17,18
 953.5 1147 953.5 1147 1016.5 1034.5 c 128,-1,19
 1053 968.5 1053 968.5 1053 863 c 0,0,0
 1053 788.5 1053 788.5 1034.5 694 c 2,0,-1
EndSplineSet
EndChar
StartChar: dotlessi
Encoding: 305 305 305
Width: 1233
Flags: W
Fore
358 1120 m 1,0,-1
 829 1120 l 1,1,-1
 639 143 l 1,2,-1
 1004 143 l 1,3,-1
 975 0 l 1,4,-1
 61 0 l 1,5,-1
 90 143 l 1,6,-1
 455 143 l 1,7,-1
 616 977 l 1,8,-1
 330 977 l 1,9,-1
 358 1120 l 1,0,-1
EndSplineSet
EndChar
StartChar: IJ
Encoding: 306 306 306
Width: 1233
Flags: W
Fore
630.554 62 m 1,0,-1
 672.49 298 l 1,1,2
 715.393 219 715.393 219 773.361 177.5 c 128,-1,3
 831.33 136 831.33 136 898.69 136 c 0,4,5
 991.562 136 991.562 136 1041.53 209 c 128,-1,6
 1091.51 282 1091.51 282 1128.58 488 c 1,7,-1
 1280.14 1324 l 1,8,-1
 1030.96 1324 l 1,9,-1
 1061.55 1494 l 1,10,-1
 1443.49 1494 l 1,11,-1
 1261.35 488 l 1,12,13
 1209.41 199 1209.41 199 1124.92 85.5 c 128,-1,14
 1040.42 -28 1040.42 -28 884.77 -28 c 0,15,16
 821.33 -28 821.33 -28 757.148 -5 c 128,-1,17
 692.968 18 692.968 18 630.554 62 c 1,0,-1
283.416 1493 m 1,0,-1
 862.424 1493 l 1,1,-1
 830.396 1323 l 1,2,-1
 611.349 1323 l 1,3,-1
 394.69 170 l 1,4,-1
 613.737 170 l 1,5,-1
 581.708 0 l 1,6,-1
 2.7002 0 l 1,7,-1
 34.7285 170 l 1,8,-1
 253.078 170 l 1,9,-1
 470.434 1323 l 1,10,-1
 251.387 1323 l 1,11,-1
 283.416 1493 l 1,0,-1
EndSplineSet
Ligature: 0 1 'liga' I J
EndChar
StartChar: ij
Encoding: 307 307 307
Width: 1233
Flags: W
Fore
301 1121 m 1,0,-1
 772 1121 l 1,1,-1
 582 144 l 1,2,-1
 947 144 l 1,3,-1
 918 1 l 1,4,-1
 4 1 l 1,5,-1
 33 144 l 1,6,-1
 398 144 l 1,7,-1
 559 978 l 1,8,-1
 273 978 l 1,9,-1
 301 1121 l 1,0,-1
672 1557 m 1,10,-1
 856 1557 l 1,11,-1
 811 1324 l 1,12,-1
 627 1324 l 1,13,-1
 672 1557 l 1,10,-1
1020 -23 m 1,0,-1
 1212 974 l 1,1,-1
 895 974 l 1,2,-1
 923 1117 l 1,3,-1
 1425 1117 l 1,4,-1
 1204 -23 l 1,5,6
 1163 -236 1163 -236 1062 -332.5 c 128,-1,7
 961 -429 961 -429 780 -429 c 2,8,-1
 526 -429 l 1,9,-1
 557 -273 l 1,10,-1
 790 -273 l 2,11,12
 885 -273 885 -273 940 -213.5 c 128,-1,13
 995 -154 995 -154 1020 -23 c 1,0,-1
1325 1553 m 1,14,-1
 1509 1553 l 1,15,-1
 1464 1320 l 1,16,-1
 1280 1320 l 1,17,-1
 1325 1553 l 1,14,-1
EndSplineSet
Ligature: 0 1 'liga' i j
EndChar
StartChar: kgreenlandic
Encoding: 312 312 312
Width: 1233
Flags: W
Fore
345 1120 m 1,0,-1
 535 1120 l 1,1,-1
 444 655 l 1,2,-1
 1018 1120 l 1,3,-1
 1242 1120 l 1,4,-1
 719 698 l 1,5,-1
 1093 0 l 1,6,-1
 868 0 l 1,7,-1
 566 578 l 1,8,-1
 404 449 l 1,9,-1
 317 0 l 1,10,-1
 127 0 l 1,11,-1
 345 1120 l 1,0,-1
EndSplineSet
EndChar
StartChar: Lslash
Encoding: 321 321 321
Width: 1233
Flags: W
Fore
371 1491 m 1,0,-1
 573 1491 l 1,1,-1
 459 899 l 1,2,-1
 756 1108 l 1,3,-1
 829 1008 l 1,4,-1
 430 729 l 1,5,-1
 317 168 l 1,6,-1
 1038 168 l 1,7,-1
 1006 0 l 1,8,-1
 82 0 l 1,9,-1
 195 563 l 1,10,-1
 45 459 l 1,11,-1
 -29 559 l 1,12,-1
 231 739 l 1,13,-1
 371 1491 l 1,0,-1
EndSplineSet
EndChar
StartChar: lslash
Encoding: 322 322 322
Width: 1233
Flags: W
Fore
600 408 m 1,0,1
 593 371 593 371 589.5 344 c 128,-1,2
 586 317 586 317 586 301 c 0,3,4
 586 228 586 228 630.5 192 c 128,-1,5
 675 156 675 156 766 156 c 2,6,-1
 977 156 l 1,7,-1
 946 0 l 1,8,-1
 739 0 l 2,9,10
 566 0 566 0 481.5 63.5 c 128,-1,11
 397 127 397 127 397 258 c 0,12,13
 397 293 397 293 402 332.5 c 128,-1,14
 407 372 407 372 416 412 c 1,15,-1
 475 698 l 1,16,-1
 162 479 l 1,17,-1
 88 578 l 1,18,-1
 512 870 l 1,19,-1
 627 1423 l 1,20,-1
 311 1423 l 1,21,-1
 340 1567 l 1,22,-1
 840 1567 l 1,23,-1
 725 1014 l 1,24,-1
 1040 1231 l 1,25,-1
 1114 1133 l 1,26,-1
 690 840 l 1,27,-1
 600 408 l 1,0,1
EndSplineSet
EndChar
StartChar: Eng
Encoding: 330 330 330
Width: 1233
Flags: W
Fore
295 1493 m 1,0,-1
 480 1493 l 1,1,-1
 825 364 l 1,2,-1
 1045 1493 l 1,3,-1
 1230 1493 l 1,4,-1
 935 -20 l 2,5,6
 898 -215 898 -215 788 -320 c 128,-1,7
 677.5 -426 677.5 -426 512.5 -426 c 2,8,-1
 307.5 -426 l 1,9,-1
 337.5 -270 l 1,10,-1
 522.5 -270 l 2,11,12
 612.5 -270 612.5 -270 669.5 -208 c 128,-1,13
 731 -136 731 -136 754 0 c 1,6,-1
 409 1129 l 1,7,-1
 189 0 l 1,8,-1
 4 0 l 1,9,-1
 295 1493 l 1,0,-1
EndSplineSet
EndChar
StartChar: eng
Encoding: 331 331 331
Width: 1233
Flags: W
Fore
1116 694 m 2,0,-1
 977 -20 l 2,5,6
 939 -215 939 -215 830 -320 c 128,-1,7
 719 -426 719 -426 554 -426 c 2,8,-1
 349 -426 l 1,9,-1
 379 -270 l 1,10,-1
 564 -270 l 2,11,12
 654 -270 654 -270 711 -208 c 128,-1,13
 768 -146 768 -146 792 -20 c 2,0,-1
 931 694 l 2,3,4
 943 759 943 759 943 809 c 0,0,0
 943 875 943 875 921 916 c 128,-1,5
 882 987 882 987 769 987 c 0,6,7
 640 987 640 987 552 896 c 128,-1,8
 465 804 465 804 432 633 c 2,9,-1
 309 0 l 1,10,-1
 125 0 l 1,11,-1
 343 1120 l 1,12,-1
 527 1120 l 1,13,-1
 494 952 l 1,14,15
 562 1048 562 1048 655 1098 c 128,-1,16
 749 1147 749 1147 864 1147 c 0,17,18
 1035 1147 1035 1147 1097 1034 c 128,-1,19
 1134 968 1134 968 1134 862 c 0,0,0
 1134 788 1134 788 1116 694 c 2,0,-1
EndSplineSet
EndChar
StartChar: OE
Encoding: 338 338 338
Width: 1233
Flags: W
Fore
1104 170 m 1,0,-1
 1071 0 l 1,1,-1
 467 0 l 2,2,3
 249 0 249 0 142 102.5 c 128,-1,4
 35 205 35 205 35 414 c 0,5,6
 35 560 35 560 68 742 c 128,-1,7
 101 924 101 924 154 1067 c 0,8,9
 240 1298 240 1298 378.5 1395.5 c 128,-1,10
 517 1493 517 1493 758 1493 c 2,11,-1
 1352 1493 l 1,12,-1
 1319 1323 l 1,13,-1
 961 1323 l 1,14,-1
 874 881 l 1,15,-1
 1202 881 l 1,16,-1
 1169 711 l 1,17,-1
 842 711 l 1,18,-1
 735 170 l 1,19,-1
 1104 170 l 1,0,-1
702 1323 m 2,20,21
 584 1323 584 1323 501 1269 c 128,-1,22
 418 1215 418 1215 371 1106 c 0,23,24
 346 1051 346 1051 321.5 961 c 128,-1,25
 297 871 297 871 272 745 c 0,26,27
 251 639 251 639 240 556 c 128,-1,28
 229 473 229 473 229 412 c 0,29,30
 229 292 229 292 291.5 231 c 128,-1,31
 354 170 354 170 477 170 c 2,32,-1
 539 170 l 1,33,-1
 764 1323 l 1,34,-1
 702 1323 l 2,20,21
EndSplineSet
EndChar
StartChar: oe
Encoding: 339 339 339
Width: 1233
Flags: W
Fore
735 1020 m 1,0,1
 793 1083 793 1083 860.5 1115 c 128,-1,2
 928 1147 928 1147 1008 1147 c 0,3,4
 1130 1147 1130 1147 1201 1071 c 128,-1,5
 1272 995 1272 995 1272 862 c 0,6,7
 1272 819 1272 819 1263.5 753.5 c 128,-1,8
 1255 688 1255 688 1239 604 c 1,9,-1
 1223 514 l 1,10,-1
 721 514 l 1,11,12
 703 423 703 423 694.5 368 c 128,-1,13
 686 313 686 313 686 285 c 0,14,15
 686 207 686 207 734.5 163 c 128,-1,16
 783 119 783 119 868 119 c 0,17,18
 938 119 938 119 1009.5 148 c 128,-1,19
 1081 177 1081 177 1135 227 c 1,20,-1
 1100 55 l 1,21,22
 1041 14 1041 14 975 -7.5 c 128,-1,23
 909 -29 909 -29 838 -29 c 0,24,25
 743 -29 743 -29 675 5.5 c 128,-1,26
 607 40 607 40 573 104 c 1,27,28
 515 39 515 39 443.5 5 c 128,-1,29
 372 -29 372 -29 291 -29 c 0,30,31
 147 -29 147 -29 70.5 54 c 128,-1,32
 -6 137 -6 137 -6 293 c 0,33,34
 -6 347 -6 347 1.5 414 c 128,-1,35
 9 481 9 481 25 559 c 1,36,37
 47 680 47 680 76.5 773.5 c 128,-1,38
 106 867 106 867 145 938 c 0,39,40
 201 1040 201 1040 291 1093.5 c 128,-1,41
 381 1147 381 1147 498 1147 c 0,42,43
 578 1147 578 1147 640 1113 c 128,-1,44
 702 1079 702 1079 735 1020 c 1,0,1
754 653 m 1,45,-1
 1083 653 l 1,46,-1
 1098 729 l 2,47,48
 1104 760 1104 760 1107 788 c 128,-1,49
 1110 816 1110 816 1110 842 c 0,50,51
 1110 913 1110 913 1077 952 c 128,-1,52
 1044 991 1044 991 983 991 c 0,53,54
 900 991 900 991 846.5 927 c 128,-1,55
 793 863 793 863 768 735 c 1,56,-1
 754 653 l 1,45,-1
311 123 m 0,57,58
 371 123 371 123 419 158.5 c 128,-1,59
 467 194 467 194 496 260 c 0,60,61
 514 304 514 304 534 378.5 c 128,-1,62
 554 453 554 453 575 559 c 1,63,64
 594 667 594 667 603 734.5 c 128,-1,65
 612 802 612 802 612 834 c 0,66,67
 612 911 612 911 576 953 c 128,-1,68
 540 995 540 995 473 995 c 0,69,70
 408 995 408 995 360.5 960.5 c 128,-1,71
 313 926 313 926 285 856 c 0,72,73
 263 803 263 803 243 729 c 128,-1,74
 223 655 223 655 205 559 c 0,75,76
 188 473 188 473 178 400 c 128,-1,77
 168 327 168 327 168 291 c 0,78,79
 168 210 168 210 205 166.5 c 128,-1,80
 242 123 242 123 311 123 c 0,57,58
EndSplineSet
EndChar
StartChar: Tbar
Encoding: 358 358 358
Width: 1233
Flags: W
TeX: 0 0 0 0
Fore
192 1493 m 1,0,-1
 1331 1493 l 1,1,-1
 1298 1323 l 1,2,-1
 831 1323 l 1,3,-1
 719 747 l 1,4,-1
 984 747 l 1,5,-1
 951 577 l 1,6,-1
 686 577 l 1,7,-1
 574 0 l 1,8,-1
 371 0 l 1,9,-1
 483 577 l 1,10,-1
 218 577 l 1,11,-1
 251 747 l 1,12,-1
 516 747 l 1,13,-1
 628 1323 l 1,14,-1
 159 1323 l 1,15,-1
 192 1493 l 1,0,-1
EndSplineSet
EndChar
StartChar: tbar
Encoding: 359 359 359
Width: 1233
Flags: W
TeX: 0 0 0 0
Fore
754 1438 m 1,0,-1
 692 1120 l 1,1,-1
 1110 1120 l 1,2,-1
 1082 977 l 1,3,-1
 664 977 l 1,4,-1
 619 744 l 1,0,0
 848 744 l 1,0,0
 820 602 l 1,0,0
 591 602 l 1,0,0
 546 369 l 2,5,6
 537 320 537 320 537 283 c 0,0,0
 537 226 537 226 559 196 c 128,-1,7
 597 147 597 147 714 147 c 2,8,-1
 921 147 l 1,9,-1
 892 0 l 1,10,-1
 667 0 l 2,11,12
 460 0 460 0 391 83 c 128,-1,13
 348 136 348 136 348 237 c 0,0,0
 348 295 348 295 362 369 c 2,14,-1
 407 602 l 1,0,0
 178 602 l 1,0,0
 206 744 l 1,0,0
 435 744 l 1,0,0
 480 977 l 1,15,-1
 181 977 l 1,16,-1
 209 1120 l 1,17,-1
 508 1120 l 1,18,-1
 570 1438 l 1,19,-1
 754 1438 l 1,0,-1
EndSplineSet
EndChar
StartChar: longs
Encoding: 383 383 383
Width: 1233
Flags: W
TeX: 0 0 0 0
Fore
557 0 m 1,10,-1
 373 0 l 1,11,-1
 563 977 l 1,12,-1
 264 977 l 1,13,-1
 293 1120 l 1,14,-1
 590 1120 l 1,15,-1
 606 1198 l 1,16,17
 644 1391 644 1391 740.5 1473.5 c 128,-1,18
 837 1556 837 1556 1024 1556 c 2,19,-1
 1245 1556 l 1,0,-1
 1214 1403 l 1,1,-1
 1006 1403 l 2,2,3
 911 1403 911 1403 863 1361.5 c 128,-1,4
 815 1320 815 1320 795 1219 c 1,5,-1
 557 0 l 1,10,-1
EndSplineSet
EndChar
StartChar: florin
Encoding: 402 402 402
Width: 1233
Flags: W
Fore
1200 1520 m 1,0,-1
 1200 1356 l 1,1,2
 1164 1384 1164 1384 1123 1398.5 c 128,-1,3
 1082 1413 1082 1413 1038 1413 c 0,4,5
 936 1413 936 1413 878.5 1351 c 128,-1,6
 821 1289 821 1289 803 1159 c 1,7,-1
 758 848 l 1,8,-1
 1061 848 l 1,9,-1
 1061 705 l 1,10,-1
 733 705 l 1,11,-1
 633 70 l 1,12,13
 590 -196 590 -196 490.5 -311 c 128,-1,14
 391 -426 391 -426 205 -426 c 0,15,16
 148 -426 148 -426 97 -415.5 c 128,-1,17
 46 -405 46 -405 0 -383 c 1,18,-1
 0 -219 l 1,19,20
 49 -250 49 -250 99 -266.5 c 128,-1,21
 149 -283 149 -283 197 -283 c 0,22,23
 293 -283 293 -283 353.5 -208 c 128,-1,24
 414 -133 414 -133 440 18 c 1,25,-1
 557 705 l 1,26,-1
 305 705 l 1,27,-1
 305 848 l 1,28,-1
 580 848 l 1,29,-1
 629 1178 l 1,30,31
 655 1355 655 1355 754 1455.5 c 128,-1,32
 853 1556 853 1556 1001 1556 c 0,33,34
 1050 1556 1050 1556 1099.5 1547 c 128,-1,35
 1149 1538 1149 1538 1200 1520 c 1,0,-1
EndSplineSet
EndChar
StartChar: uni0194
Encoding: 404 404 404
Width: 1403
Flags: W
TeX: 0 0 0 0
Fore
868.641 650 m 1,5,-1
 1108.36 201 1108.36 201 1028.58 -194 c 8,0,0
 979.71 -430 979.71 -430 566.71 -430 c 8,0,0
 158.71 -430 158.71 -430 172.584 -194 c 16,0,0
 194.727 172 194.727 172 632.001 657 c 1,0,0
 302.29 1353 l 1,0,-1
 519.29 1353 l 1,1,-1
 782.409 798 l 1,2,-1
 1263.29 1353 l 1,3,-1
 1480.29 1353 l 1,4,-1
 868.641 650 l 1,5,-1
708.512 495 m 1,0,0
 444.003 194 444.003 194 388.024 -130 c 8,0,0
 364.199 -268 364.199 -268 577.199 -268 c 16,0,0
 782.199 -268 782.199 -268 808.024 -130 c 16,0,0
 869.17 200 869.17 200 708.512 495 c 1,0,0
EndSplineSet
EndChar
StartChar: dotlessj
Encoding: 567 567 567
Width: 1233
Flags: W
Fore
498 -20 m 1,0,-1
 690 977 l 1,1,-1
 373 977 l 1,2,-1
 401 1120 l 1,3,-1
 903 1120 l 1,4,-1
 682 -20 l 1,5,6
 641 -233 641 -233 540 -329.5 c 128,-1,7
 439 -426 439 -426 258 -426 c 2,8,-1
 4 -426 l 1,9,-1
 35 -270 l 1,10,-1
 268 -270 l 2,11,12
 363 -270 363 -270 418 -210.5 c 128,-1,13
 473 -151 473 -151 498 -20 c 1,0,-1
EndSplineSet
EndChar
StartChar: uni0250
Encoding: 592 592 592
Width: 1233
Flags: W
Fore
509.723 555 m 1,0,-1
 570.723 555 l 2,1,2
 731.723 555 731.723 555 824.205 611.5 c 128,-1,3
 916.688 668 916.688 668 938.458 780 c 0,4,5
 958.091 881 958.091 881 907.976 937 c 128,-1,6
 857.861 993 857.861 993 749.861 993 c 0,7,8
 597.861 993 597.861 993 490.354 887.5 c 128,-1,9
 382.847 782 382.847 782 345.692 596 c 1,10,-1
 337.723 555 l 1,11,-1
 509.723 555 l 1,0,-1
137.949 479 m 2,12,-1
 262.158 1118 l 1,13,-1
 447.158 1118 l 1,14,-1
 414.892 952 l 1,15,16
 493.329 1052 493.329 1052 592.062 1099.5 c 128,-1,17
 690.796 1147 690.796 1147 818.796 1147 c 0,18,19
 989.796 1147 989.796 1147 1073.04 1050.5 c 128,-1,20
 1156.28 954 1156.28 954 1124.79 792 c 0,21,22
 1088.44 605 1088.44 605 944.087 508 c 128,-1,23
 799.731 411 799.731 411 556.731 411 c 2,24,-1
 309.731 411 l 1,25,-1
 304.095 382 l 1,26,27
 279.048 248 279.048 248 334.288 187.5 c 128,-1,28
 389.527 127 389.527 127 536.527 127 c 0,29,30
 630.527 127 630.527 127 731.776 154 c 128,-1,31
 833.024 181 833.024 181 934.132 233 c 1,32,-1
 898.366 49 l 1,33,34
 788.785 10 788.785 10 691.495 -9.5 c 128,-1,35
 594.204 -29 594.204 -29 506.204 -29 c 0,36,37
 367.204 -29 367.204 -29 276.674 12 c 128,-1,38
 186.144 53 186.144 53 141.083 135 c 0,39,40
 112.802 185 112.802 185 111.089 258.5 c 128,-1,41
 109.376 332 109.376 332 137.949 479 c 2,12,-1
EndSplineSet
EndChar
StartChar: uni0251
Encoding: 593 593 593
Width: 1233
Flags: W
TeX: 0 0 0 0
Fore
973.251 977 m 1,0,-1
 1000.27 1116 l 1,1,-1
 1184.27 1116 l 1,2,-1
 967.342 0 l 1,3,-1
 783.342 0 l 1,4,-1
 810.749 141 l 1,5,6
 748.615 58 748.615 58 663.66 14.5 c 128,-1,7
 578.704 -29 578.704 -29 478.704 -29 c 0,8,9
 275.704 -29 275.704 -29 189.819 128.5 c 128,-1,10
 103.935 286 103.935 286 157.777 563 c 0,11,12
 210.844 836 210.844 836 358.069 991.5 c 128,-1,13
 505.296 1147 505.296 1147 707.296 1147 c 0,14,15
 808.296 1147 808.296 1147 876.84 1103.5 c 128,-1,16
 945.385 1060 945.385 1060 973.251 977 c 1,0,-1
351 559 m 0,17,18
 309.402 345 309.402 345 356.215 236 c 128,-1,19
 403.027 127 403.027 127 536.027 127 c 0,20,21
 669.027 127 669.027 127 759.909 237 c 128,-1,22
 850.791 347 850.791 347 892 559 c 0,23,24
 933.403 772 933.403 772 885.188 881.5 c 128,-1,25
 836.973 991 836.973 991 703.973 991 c 0,26,27
 570.973 991 570.973 991 481.785 882 c 128,-1,28
 392.598 773 392.598 773 351 559 c 0,17,18
EndSplineSet
EndChar
StartChar: uni0252
Encoding: 594 594 594
Width: 1233
Flags: W
TeX: 0 0 0 0
Fore
259.749 141 m 1,0,-1
 232.73 2 l 1,1,-1
 48.7305 2 l 1,2,-1
 265.658 1118 l 1,3,-1
 449.658 1118 l 1,4,-1
 422.251 977 l 1,5,6
 484.385 1060 484.385 1060 569.34 1103.5 c 128,-1,7
 654.296 1147 654.296 1147 754.296 1147 c 0,8,9
 957.296 1147 957.296 1147 1043.18 989.5 c 128,-1,10
 1129.07 832 1129.07 832 1075.22 555 c 0,11,12
 1022.16 282 1022.16 282 874.931 126.5 c 128,-1,13
 727.704 -29 727.704 -29 525.704 -29 c 0,14,15
 424.704 -29 424.704 -29 356.16 14.5 c 128,-1,16
 287.615 58 287.615 58 259.749 141 c 1,0,-1
882 559 m 0,17,18
 923.598 773 923.598 773 876.785 882 c 128,-1,19
 829.973 991 829.973 991 696.973 991 c 0,20,21
 563.973 991 563.973 991 473.091 881 c 128,-1,22
 382.209 771 382.209 771 341 559 c 0,23,24
 299.597 346 299.597 346 347.812 236.5 c 128,-1,25
 396.027 127 396.027 127 529.027 127 c 0,26,27
 662.027 127 662.027 127 751.215 236 c 128,-1,28
 840.402 345 840.402 345 882 559 c 0,17,18
EndSplineSet
EndChar
StartChar: uni0253
Encoding: 595 595 595
Width: 1233
Flags: W
TeX: 0 0 0 0
Fore
842.249 559 m 0,0,1
 883.847 773 883.847 773 837.034 882 c 128,-1,2
 790.222 991 790.222 991 657.222 991 c 0,3,4
 523.222 991 523.222 991 432.937 881.5 c 128,-1,5
 342.652 772 342.652 772 301.249 559 c 0,6,7
 260.041 347 260.041 347 307.659 237 c 128,-1,8
 355.277 127 355.277 127 489.277 127 c 0,9,10
 622.277 127 622.277 127 711.465 236 c 128,-1,11
 800.652 345 800.652 345 842.249 559 c 0,0,1
383.524 977.125 m 1,13,-1
 443.808 1059.12 443.808 1059.12 528.492 1103 c 128,-1,14
 614.545 1147 614.545 1147 716.545 1147 c 0,15,16
 918.545 1147 918.545 1147 1004.32 991.5 c 128,-1,17
 1090.09 836 1090.09 836 1037.03 563 c 0,18,19
 983.184 286 983.184 286 836.068 128.5 c 128,-1,20
 688.953 -29 688.953 -29 485.953 -29 c 0,21,22
 385.953 -29 385.953 -29 317.909 14.5 c 128,-1,23
 249.864 58 249.864 58 219.998 141 c 1,24,-1
 192.591 0 l 1,25,-1
 8.59082 0 l 1,26,-1
 203.359 1002 l 1,27,-1
 232.128 1150 l 2,5,6
 270.032 1345 270.032 1345 379.442 1450 c 128,-1,7
 491.497 1556 491.497 1556 655.047 1556 c 2,8,-1
 860.047 1556 l 1,9,-1
 829.723 1400 l 1,10,-1
 644.723 1400 l 2,11,12
 554.726 1400 554.726 1400 497.672 1338 c 128,-1,13
 441.925 1277.57 441.925 1277.57 417.128 1150 c 2,0,-1
 383.524 977.125 l 1,13,-1
EndSplineSet
EndChar
StartChar: uni0254
Encoding: 596 596 596
Width: 1233
Flags: W
Fore
281.079 1061 m 1,0,1
 363.438 1104 363.438 1104 446.116 1125.5 c 128,-1,2
 528.796 1147 528.796 1147 610.796 1147 c 0,3,4
 870.796 1147 870.796 1147 986.973 991 c 128,-1,5
 1103.15 835 1103.15 835 1049.5 559 c 0,6,7
 995.851 283 995.851 283 819.027 127 c 128,-1,8
 642.204 -29 642.204 -29 382.204 -29 c 0,9,10
 301.204 -29 301.204 -29 228.286 -8 c 128,-1,11
 155.368 13 155.368 13 85.9209 57 c 1,12,-1
 123.437 250 l 1,13,14
 183.802 185 183.802 185 251.665 156 c 128,-1,15
 319.527 127 319.527 127 412.527 127 c 0,16,17
 585.527 127 585.527 127 700.298 239 c 128,-1,18
 815.069 351 815.069 351 855.5 559 c 0,19,20
 895.736 766 895.736 766 824.104 878.5 c 128,-1,21
 752.473 991 752.473 991 580.473 991 c 0,22,23
 484.473 991 484.473 991 402.738 961.5 c 128,-1,24
 321.004 932 321.004 932 243.952 870 c 1,25,-1
 281.079 1061 l 1,0,1
EndSplineSet
EndChar
StartChar: uni0255
Encoding: 597 597 597
Width: 1233
Flags: W
TeX: 0 0 0 0
Fore
540.617 142.487 m 1,0,1
 597.367 123 597.367 123 671.702 123 c 0,2,3
 817.702 123 817.702 123 828.782 180 c 0,4,5
 842.361 255 842.361 255 711.36 255 c 0,6,7
 610.062 255 610.062 255 540.617 142.487 c 1,0,1
472.526 -19.8467 m 1,8,9
 455.91 -76.5703 455.91 -76.5703 442.608 -145 c 1,10,-1
 289.025 -148 l 1,11,12
 309.213 -44.1465 309.213 -44.1465 338.042 39.9541 c 1,13,14
 287.62 74.998 287.62 74.998 250.286 126 c 0,15,16
 132.581 287 132.581 287 184.675 555 c 0,17,18
 237.936 829 237.936 829 419.453 986 c 0,19,20
 599.972 1143 599.972 1143 861.971 1143 c 0,21,22
 946.976 1143 946.976 1143 1024.67 1126 c 0,23,24
 1102.17 1108 1102.17 1108 1171.37 1073 c 1,25,-1
 1137.93 901 l 1,26,27
 1068.28 944.003 1068.28 944.003 993.565 966 c 0,28,29
 919.647 987 919.647 987 839.647 987 c 0,30,31
 660.646 987 660.646 987 539.683 874 c 0,32,33
 418.522 760 418.522 760 378.675 555 c 0,34,35
 338.827 350 338.827 350 415.668 236 c 0,36,37
 420.463 228.965 420.463 228.965 425.654 222.369 c 1,38,39
 544.487 398 544.487 398 740.157 398 c 0,40,41
 1039.16 398 1039.16 398 992.342 152 c 0,42,43
 956.604 -37 956.604 -37 622.602 -37 c 0,44,45
 540.529 -37 540.529 -37 472.526 -19.8467 c 1,8,9
EndSplineSet
EndChar
StartChar: uni0256
Encoding: 598 598 598
Width: 1233
Flags: W
TeX: 0 0 0 0
Fore
311.137 559 m 0,0,1
 269.539 344.999 269.539 344.999 302.785 236 c 0,2,3
 336.034 127 336.034 127 442.505 127 c 0,4,5
 548.973 127 548.973 127 625.991 237 c 0,6,7
 703.011 347.005 703.011 347.005 744.219 559 c 0,8,9
 785.621 771.996 785.621 771.996 751.27 881.5 c 0,10,11
 716.916 991 716.916 991 610.449 991 c 0,12,13
 503.979 991 503.979 991 428.354 882 c 0,14,15
 352.734 773.001 352.734 773.001 311.137 559 c 0,0,1
825.47 977 m 1,16,-1
 938.016 1556 l 1,17,-1
 1085.31 1556 l 1,18,-1
 807.738 128 l 1,19,-1
 782.857 0 l 1,20,-1
 778.97 -20 l 2,21,22
 754.478 -145.999 754.478 -145.999 777.646 -208 c 0,23,24
 801.62 -270 801.62 -270 873.662 -270 c 2,25,-1
 913.692 -270 l 1,26,-1
 883.369 -426 l 1,27,-1
 827.329 -426 l 2,28,29
 695.247 -426 695.247 -426 643.804 -320 c 0,30,31
 592.967 -215.001 592.967 -215.001 630.871 -20 c 2,32,-1
 659.64 128 l 1,33,-1
 662.167 141 l 1,34,35
 608.84 57.998 608.84 57.998 540.313 14.5 c 0,36,37
 470.619 -29 470.619 -29 390.565 -29 c 0,38,39
 228.058 -29 228.058 -29 165.415 128.5 c 0,40,41
 102.769 286.002 102.769 286.002 156.611 563 c 0,42,43
 209.677 835.999 209.677 835.999 333.563 991.5 c 0,44,45
 457.452 1147 457.452 1147 619.156 1147 c 0,46,47
 700.011 1147 700.011 1147 753.194 1103.5 c 0,48,49
 806.379 1060 806.379 1060 825.47 977 c 1,16,-1
EndSplineSet
EndChar
StartChar: uni0257
Encoding: 599 599 599
Width: 1233
Flags: W
TeX: 0 0 0 0
Fore
272.552 559 m 0,0,1
 230.955 344.999 230.955 344.999 264.2 236 c 0,2,3
 297.45 127 297.45 127 403.92 127 c 0,4,5
 510.388 127 510.388 127 587.407 237 c 0,6,7
 664.427 347.005 664.427 347.005 705.634 559 c 0,8,9
 747.036 771.996 747.036 771.996 712.685 881.5 c 0,10,11
 678.332 991 678.332 991 571.864 991 c 0,12,13
 465.395 991 465.395 991 389.771 882 c 0,14,15
 314.149 773.001 314.149 773.001 272.552 559 c 0,0,1
790.943 1002 m 1,16,-1
 819.712 1150 l 2,17,18
 857.616 1345 857.616 1345 949.272 1450 c 0,19,20
 1041.92 1556 1041.92 1556 1174.01 1556 c 2,21,-1
 1230.05 1556 l 1,22,-1
 1199.72 1400 l 1,23,-1
 1159.69 1400 l 2,24,25
 1087.65 1400 1087.65 1400 1039.57 1338 c 0,26,27
 992.302 1276 992.302 1276 967.81 1150 c 2,28,-1
 955.953 1089 l 1,29,-1
 939.042 1002 l 1,30,-1
 744.272 0 l 1,31,-1
 596.976 0 l 1,32,-1
 624.383 141 l 1,33,34
 571.428 58.0029 571.428 58.0029 501.729 14.5 c 0,35,36
 432.034 -29 432.034 -29 351.98 -29 c 0,37,38
 189.474 -29 189.474 -29 126.83 128.5 c 0,39,40
 64.1836 286.002 64.1836 286.002 118.026 563 c 0,41,42
 171.093 835.999 171.093 835.999 294.979 991.5 c 0,43,44
 418.868 1147 418.868 1147 580.572 1147 c 0,45,46
 661.426 1147 661.426 1147 714.61 1103.5 c 0,47,48
 767.795 1060 767.795 1060 786.885 977 c 1,49,-1
 790.943 1002 l 1,16,-1
EndSplineSet
EndChar
StartChar: uni0258
Encoding: 600 600 600
Width: 1233
Flags: W
Fore
131.136 606 m 2,0,-1
 179.926 857 179.926 857 331.61 1002 c 128,-1,21
 483.296 1147 483.296 1147 697.296 1147 c 0,19,20
 937.296 1147 937.296 1147 1050.19 987 c 128,-1,18
 1163.09 827 1163.09 827 1111 559 c 0,16,17
 1057.55 284 1057.55 284 880.125 127.5 c 128,-1,15
 702.704 -29 702.704 -29 441.704 -29 c 0,13,14
 350.704 -29 350.704 -29 257.384 -7.5 c 128,-1,12
 164.062 14 164.062 14 67.4209 57 c 1,10,11
 102.993 240 l 1,9,-1
 200.913 183 200.913 183 291.471 155 c 128,-1,8
 382.027 127 382.027 127 470.027 127 c 0,6,7
 644.027 127 644.027 127 758.966 227 c 128,-1,5
 873.903 327 873.903 327 909.476 510 c 2,3,4
 910.642 516 l 1,2,-1
 113.642 516 l 1,1,-1
 131.136 606 l 2,0,-1
325.633 660 m 1,22,23
 931.438 659 l 1,28,-1
 945.762 815 945.762 815 876.867 903 c 128,-1,27
 807.973 991 807.973 991 674.973 991 c 0,25,26
 538.973 991 538.973 991 450.047 906.5 c 128,-1,24
 361.122 822 361.122 822 325.633 660 c 1,22,23
EndSplineSet
EndChar
StartChar: uni0259
Encoding: 601 601 601
Width: 1233
Flags: W
Fore
112.864 512 m 2,0,-1
 130.358 602 l 1,1,-1
 927.358 602 l 1,2,-1
 928.524 608 l 2,3,4
 964.097 791 964.097 791 888.034 891 c 128,-1,5
 811.973 991 811.973 991 637.973 991 c 0,6,7
 549.973 991 549.973 991 448.529 963 c 128,-1,8
 347.087 935 347.087 935 227.007 878 c 1,9,-1
 262.579 1061 l 1,10,11
 375.938 1104 375.938 1104 477.616 1125.5 c 128,-1,12
 579.296 1147 579.296 1147 670.296 1147 c 0,13,14
 931.296 1147 931.296 1147 1047.88 990.5 c 128,-1,15
 1164.45 834 1164.45 834 1111 559 c 0,16,17
 1058.91 291 1058.91 291 883.806 131 c 128,-1,18
 708.704 -29 708.704 -29 468.704 -29 c 0,19,20
 254.704 -29 254.704 -29 159.39 116 c 128,-1,21
 64.0742 261 64.0742 261 112.864 512 c 2,0,-1
286.367 458 m 1,22,23
 258.878 296 258.878 296 314.953 211.5 c 128,-1,24
 371.027 127 371.027 127 507.027 127 c 0,25,26
 640.027 127 640.027 127 743.133 215 c 128,-1,27
 846.238 303 846.238 303 892.562 459 c 1,28,-1
 286.367 458 l 1,22,23
EndSplineSet
EndChar
StartChar: uni025A
Encoding: 602 602 602
Width: 1233
Flags: W
TeX: 0 0 0 0
Fore
510.938 214 m 1,0,1
 615.765 352.002 615.765 352.002 654 559 c 0,2,3
 666.699 621.088 666.699 621.088 670.175 677.117 c 1,4,-1
 131.737 321 l 1,5,6
 141.325 252.002 141.325 252.002 159.521 217 c 0,7,8
 204.028 127 204.028 127 307.027 127 c 0,9,10
 435.026 127 435.026 127 510.938 214 c 1,0,1
830.204 783.108 m 1,11,12
 834.852 686.85 834.852 686.85 811.943 569 c 0,13,14
 758.489 293.999 758.489 293.999 614 132 c 0,15,16
 469.704 -29 469.704 -29 278.704 -29 c 0,17,18
 105.705 -29 105.705 -29 34.8896 116 c 0,19,20
 -16.0889 218.995 -16.0889 218.995 -5.76562 375 c 1,21,-1
 662.58 818.245 l 1,22,23
 655.206 857.128 655.206 857.128 641.729 892 c 0,24,25
 603.167 991.999 603.167 991.999 443.973 991 c 0,26,27
 361.785 990.001 361.785 990.001 282.918 965 c 0,28,29
 201.865 938.999 201.865 938.999 117.757 887 c 1,30,-1
 151.579 1061 l 1,31,32
 234.746 1103 234.746 1103 318.02 1125 c 0,33,34
 401.299 1147 401.299 1147 482.296 1147 c 0,35,36
 686.295 1147 686.295 1147 774.973 991 c 0,37,38
 795.069 955.646 795.069 955.646 807.956 914.643 c 1,39,-1
 984.941 1032 l 1,40,-1
 1124.94 1032 l 1,41,-1
 1096.17 884 l 2,42,43
 1066.43 730.997 1066.43 730.997 1085.91 682 c 0,44,45
 1104.58 634 1104.58 634 1184.58 634 c 2,46,-1
 1217.58 634 l 1,47,-1
 1187.25 478 l 1,48,-1
 1138.25 478 l 2,49,50
 1006.25 478 1006.25 478 957.916 574 c 0,51,52
 913.41 663.999 913.41 663.999 952.286 864 c 1,53,-1
 830.204 783.108 l 1,11,12
EndSplineSet
EndChar
StartChar: uni025B
Encoding: 603 603 603
Width: 1233
Flags: W
TeX: 0 0 0 0
Fore
457.65 607 m 1,0,1
 343.51 632 343.51 632 291.145 697 c 128,-1,40
 239.585 761 239.585 761 257.856 855 c 0,38,39
 283.903 989 283.903 989 421.259 1068 c 128,-1,37
 558.615 1147 558.615 1147 767.615 1147 c 0,35,36
 848.615 1147 848.615 1147 937.283 1135 c 128,-1,34
 1026.95 1123 1026.95 1123 1127.29 1099 c 1,32,33
 1094.82 932 l 1,31,-1
 996.072 959 996.072 959 911.599 972 c 128,-1,30
 827.932 984 827.932 984 751.932 984 c 0,28,29
 613.932 984 613.932 984 531.573 941 c 128,-1,27
 449.215 898 449.215 898 434.83 824 c 0,25,26
 422.974 763 422.974 763 486.615 720 c 128,-1,24
 550.062 676 550.062 676 685.062 676 c 2,22,23
 851.062 676 l 1,21,-1
 823.071 532 l 1,20,-1
 664.071 532 l 2,19,-1
 514.071 532 514.071 532 419.381 477 c 128,-1,18
 324.689 422 324.689 422 308.944 341 c 0,16,17
 289.896 243 289.896 243 369.594 190 c 128,-1,15
 450.485 138 450.485 138 623.485 138 c 0,13,14
 722.485 138 722.485 138 816.984 156 c 128,-1,12
 911.289 173 911.289 173 994.897 207 c 1,10,11
 961.27 34 l 1,9,-1
 858.827 6 858.827 6 766.106 -8 c 128,-1,8
 672.385 -22 672.385 -22 586.385 -22 c 0,6,7
 332.385 -22 332.385 -22 211.073 69 c 128,-1,5
 90.9561 161 90.9561 161 123.224 327 c 0,3,4
 144.411 436 144.411 436 232.795 510 c 128,-1,2
 321.179 584 321.179 584 457.65 607 c 1,0,1
EndSplineSet
EndChar
StartChar: uni025C
Encoding: 604 604 604
Width: 1233
Flags: W
TeX: 0 0 0 0
Fore
791.65 607 m 1,0,1
 919.179 584 919.179 584 978.795 510 c 128,-1,2
 1039.41 436 1039.41 436 1018.22 327 c 0,3,4
 985.956 161 985.956 161 829.073 69 c 128,-1,5
 673.385 -22 673.385 -22 418.385 -22 c 0,6,7
 333.385 -22 333.385 -22 245.106 -8 c 128,-1,8
 156.827 6 156.827 6 66.2695 34 c 1,9,-1
 99.8975 207 l 1,10,11
 169.289 173 169.289 173 256.984 156 c 128,-1,12
 344.485 138 344.485 138 444.485 138 c 0,13,14
 617.485 138 617.485 138 717.594 190 c 128,-1,15
 818.896 243 818.896 243 837.944 341 c 0,16,17
 853.689 422 853.689 422 779.381 477 c 128,-1,18
 706.071 532 706.071 532 556.071 532 c 2,19,-1
 398.071 532 l 1,20,-1
 426.062 676 l 1,21,-1
 591.062 676 l 2,22,23
 727.062 676 727.062 676 807.615 720 c 128,-1,24
 887.974 763 887.974 763 899.83 824 c 0,25,26
 914.215 898 914.215 898 848.573 941 c 128,-1,27
 781.932 984 781.932 984 643.932 984 c 0,28,29
 568.932 984 568.932 984 479.599 972 c 128,-1,30
 391.072 959 391.072 959 281.823 932 c 1,31,-1
 314.285 1099 l 1,32,33
 423.95 1123 423.95 1123 517.283 1135 c 128,-1,34
 611.615 1147 611.615 1147 691.615 1147 c 0,35,36
 901.615 1147 901.615 1147 1008.26 1068 c 128,-1,37
 1114.9 989 1114.9 989 1088.86 855 c 0,38,39
 1070.58 761 1070.58 761 993.145 697 c 128,-1,40
 915.51 632 915.51 632 791.65 607 c 1,0,1
EndSplineSet
EndChar
StartChar: uni025D
Encoding: 605 605 605
Width: 1233
Flags: W
TeX: 0 0 0 0
Fore
525.775 607 m 1,0,1
 620.306 583.999 620.306 583.999 661.42 510 c 0,2,3
 703.286 435.999 703.286 435.999 682.099 327 c 0,4,5
 649.831 161.001 649.831 161.001 527.698 69 c 0,6,7
 406.509 -22 406.509 -22 215.26 -22 c 0,8,9
 151.505 -22 151.505 -22 85.9814 -8 c 0,10,11
 20.4521 6.00098 20.4521 6.00098 -46.1055 34 c 1,12,-1
 -12.4775 207 l 1,13,14
 37.9141 173.001 37.9141 173.001 102.859 156 c 0,15,16
 167.61 138 167.61 138 242.61 138 c 0,17,18
 372.359 138 372.359 138 449.969 190 c 0,19,20
 528.521 243.001 528.521 243.001 547.569 341 c 0,21,22
 563.314 422.001 563.314 422.001 510.256 477 c 0,23,24
 457.945 532 457.945 532 345.446 532 c 2,25,-1
 226.946 532 l 1,26,-1
 254.938 676 l 1,27,-1
 378.688 676 l 2,28,29
 480.688 676 480.688 676 543.24 720 c 0,30,31
 605.598 762.999 605.598 762.999 617.455 824 c 0,32,33
 631.84 898.001 631.84 898.001 584.698 941 c 0,34,35
 536.806 984 536.806 984 433.307 984 c 0,36,37
 377.057 984 377.057 984 309.474 972 c 0,38,39
 242.454 959.002 242.454 959.002 159.198 932 c 1,40,-1
 191.66 1099 l 1,41,42
 275.075 1123 275.075 1123 345.658 1135 c 0,43,44
 416.99 1147 416.99 1147 476.99 1147 c 0,45,46
 634.489 1147 634.489 1147 710.634 1068 c 0,47,48
 773.105 1003.19 773.105 1003.19 766.79 901.352 c 1,49,-1
 961.637 1032 l 1,50,-1
 1099.64 1032 l 1,51,-1
 1070.87 884 l 2,52,53
 1041.13 730.999 1041.13 730.999 1060.11 682 c 0,54,55
 1079.28 634 1079.28 634 1158.02 634 c 2,56,-1
 1190.28 634 l 1,57,-1
 1159.96 478 l 1,58,-1
 1111.96 478 l 2,59,60
 981.052 478 981.052 478 934.11 574 c 0,61,62
 890.104 664 890.104 664 929.115 864 c 1,63,-1
 687.514 702.115 l 1,64,-1
 687.215 703.401 l 1,65,-1
 681.27 697 l 2,66,67
 619.884 631.999 619.884 631.999 525.775 607 c 1,0,1
EndSplineSet
EndChar
StartChar: uni025E
Encoding: 606 606 606
Width: 1233
Flags: W
TeX: 0 0 0 0
Fore
754.575 984 m 0,28,29
 415.575 984 415.575 984 333.574 566 c 1,0,0
 246.881 120 246.881 120 586.437 119 c 0,28,29
 704.187 119 704.187 119 769.434 173 c 128,-1,27
 845.623 237 845.623 237 860.008 311 c 0,25,26
 875.169 389 875.169 389 826.416 443 c 128,-1,24
 799.997 473 799.997 473 661.247 473 c 2,22,23
 524.747 473 l 9,0,0
 555.265 630 l 1,21,-1
 691.765 630 l 2,22,23
 830.515 630 830.515 630 868.597 660 c 128,-1,24
 938.537 715 938.537 715 953.505 792 c 0,25,26
 968.472 869 968.472 869 916.579 930 c 128,-1,27
 870.075 984 870.075 984 754.575 984 c 0,28,29
557.18 1099 m 0,32,33
 649.927 1144 649.927 1144 799.371 1145 c 0,35,36
 971.871 1145 971.871 1145 1055.65 1059 c 128,-1,37
 1139.24 972 1139.24 972 1110.47 824 c 0,38,39
 1090.45 721 1090.45 721 1023.4 650 c 128,-1,40
 956.352 579 956.352 579 852.854 552 c 1,0,1
 945.66 524 945.66 524 985.109 453 c 128,-1,40
 1024.56 382 1024.56 382 1004.54 279 c 0,38,39
 975.77 131 975.77 131 858.553 45 c 128,-1,37
 741.142 -42 741.142 -42 568.642 -42 c 0,35,36
 421.253 -44 421.253 -44 347.054 18 c 0,0,0
 109.514 212 109.514 212 176.381 556 c 0,0,0
 253.55 953 253.55 953 557.18 1099 c 0,32,33
EndSplineSet
EndChar
StartChar: uni025F
Encoding: 607 607 607
Width: 1233
Flags: W
Fore
304.05 0 m 1,0,-1
 335.929 164 l 1,1,-1
 577.929 164 l 1,2,-1
 735.96 977 l 1,3,-1
 418.96 977 l 1,4,-1
 446.756 1120 l 1,5,-1
 947.756 1120 l 1,6,-1
 761.929 164 l 1,7,-1
 997.929 164 l 1,8,-1
 966.05 0 l 1,9,-1
 730.05 0 l 1,10,-1
 726.162 -20 l 2,11,12
 688.259 -214.998 688.259 -214.998 578.251 -320.5 c 0,13,14
 468.246 -426 468.246 -426 303.244 -426 c 2,15,-1
 49.2441 -426 l 1,16,-1
 79.5674 -270 l 1,17,-1
 313.567 -270 l 2,18,19
 403.566 -270 403.566 -270 460.716 -207.5 c 0,20,21
 517.864 -145.001 517.864 -145.001 542.162 -20 c 2,22,-1
 546.05 -0 l 1,23,-1
 304.05 0 l 1,0,-1
EndSplineSet
EndChar
StartChar: uni0260
Encoding: 608 608 608
Width: 1233
Flags: W
TeX: 0 0 0 0
Fore
857.114 1116 m 1,0,-1
 863.724 1150 l 2,1,2
 901.627 1345 901.627 1345 993.976 1450 c 0,3,4
 1087.32 1556 1087.32 1556 1220.69 1556 c 2,5,-1
 1269.99 1556 l 1,6,-1
 1239.67 1400 l 1,7,-1
 1206.53 1400 l 2,8,9
 1133.78 1400 1133.78 1400 1085.36 1338 c 0,10,11
 1037.75 1276 1037.75 1276 1013.25 1150 c 2,12,-1
 1006.65 1116 l 17,13,-1
 805.33 72 l 2,15,16
 756.835 -179.493 756.835 -179.493 634.891 -310 c 0,17,18
 513.439 -440 513.439 -440 326.729 -440 c 0,19,20
 265.296 -440 265.296 -440 200.935 -426 c 0,21,22
 136.568 -411.999 136.568 -411.999 74.7324 -385 c 1,23,-1
 110.109 -203 l 1,24,25
 180.386 -249.004 180.386 -249.004 240.763 -271 c 0,26,27
 301.15 -293 301.15 -293 355.304 -293 c 0,28,29
 475.734 -293 475.734 -293 546.44 -212 c 0,30,31
 617.147 -131.001 617.147 -131.001 651.358 45 c 2,32,-1
 652.914 53 l 1,33,-1
 677.212 178 l 1,34,35
 623.374 83.9971 623.374 83.9971 553.006 38 c 0,36,37
 482.637 -8 482.637 -8 394.536 -8 c 0,38,39
 236.118 -8 236.118 -8 172.064 149 c 0,40,41
 108.016 305.997 108.016 305.997 159.138 569 c 0,42,43
 204.43 802.003 204.43 802.003 329.512 959 c 0,44,45
 454.602 1116 454.602 1116 613.02 1116 c 1,46,47
 857.114 1116 l 1,0,-1
753.214 569 m 1,52,53
 836.361 992 l 1,54,55
 621.859 991 l 1,56,57
 512.747 991 512.747 991 434.46 883.5 c 0,58,59
 356.18 775.999 356.18 775.999 315.943 569 c 0,60,61
 275.707 362.001 275.707 362.001 312.407 253.5 c 0,62,63
 349.106 145 349.106 145 459.032 145 c 0,64,65
 561.68 145 561.68 145 637.429 254 c 0,66,67
 713.172 362.999 713.172 362.999 753.214 569 c 1,52,53
EndSplineSet
EndChar
StartChar: uni0261
Encoding: 609 609 609
Width: 1233
Flags: W
TeX: 0 0 0 0
Fore
936.901 569 m 1,0,1
 1019.12 992 l 129,-1,2
 754.931 991 l 1,3,4
 619.931 991 619.931 991 528.034 883.5 c 128,-1,5
 436.139 776 436.139 776 395.901 569 c 0,6,7
 355.665 362 355.665 362 406.075 253.5 c 128,-1,8
 456.484 145 456.484 145 592.484 145 c 0,9,10
 719.484 145 719.484 145 808.172 254 c 128,-1,11
 896.859 363 896.859 363 936.901 569 c 1,0,1
1024.29 72 m 2,12,13
 975.311 -180 975.311 -180 831.042 -310 c 128,-1,14
 686.772 -440 686.772 -440 455.772 -440 c 0,15,16
 379.772 -440 379.772 -440 299.493 -426 c 128,-1,17
 219.215 -412 219.215 -412 141.463 -385 c 1,18,-1
 176.84 -203 l 1,19,20
 265.898 -249 265.898 -249 341.622 -271 c 128,-1,21
 417.346 -293 417.346 -293 484.346 -293 c 0,22,23
 633.346 -293 633.346 -293 717.091 -212 c 128,-1,24
 800.836 -131 800.836 -131 835.047 45 c 2,25,-1
 836.602 53 l 1,26,-1
 860.899 178 l 1,27,28
 798.627 84 798.627 84 713.686 38 c 128,-1,29
 628.744 -8 628.744 -8 519.744 -8 c 0,30,31
 323.744 -8 323.744 -8 237.262 149 c 128,-1,32
 150.78 306 150.78 306 201.901 569 c 0,33,34
 246.04 796.072 246.04 796.072 394.71 959 c 128,-1,35
 537.971 1116 537.971 1116 738.228 1116 c 2,36,37
 1227.23 1116 l 1,41,-1
 1024.29 72 l 2,12,13
EndSplineSet
EndChar
StartChar: uni0262
Encoding: 610 610 610
Width: 1233
Flags: W
TeX: 0 0 0 0
Fore
865.804 178 m 128,-1,12
 920.619 460 l 1,4,-1
 765.619 460 l 1,2,-1
 792.833 600 l 1,3,-1
 1113.83 600 l 1,4,-1
 1011.2 72 l 1,2,-1
 932.591 38 932.591 38 841.703 18 c 128,-1,16
 760.204 0 760.204 0 558.204 0 c 0,17,18
 305.204 0 305.204 0 187.111 159 c 128,-1,19
 69.0176 318 69.0176 318 121.5 588 c 0,20,21
 174.76 862 174.76 862 356.278 1019 c 128,-1,22
 536.796 1176 536.796 1176 798.796 1176 c 0,23,24
 860.796 1176 860.796 1176 961.297 1158 c 128,-1,25
 1061.99 1141 1061.99 1141 1174.41 1066 c 1,0,-1
 1140.98 894 l 1,1,2
 1035.95 971 1035.95 971 930.196 998 c 128,-1,3
 847.473 1020 847.473 1020 776.473 1020 c 0,4,5
 597.473 1020 597.473 1020 476.312 906 c 128,-1,6
 355.348 793 355.348 793 315.5 588 c 0,7,8
 275.652 383 275.652 383 352.688 270 c 128,-1,9
 429.527 156 429.527 156 608.527 156 c 0,10,11
 781.527 156 781.527 156 865.804 178 c 128,-1,12
EndSplineSet
EndChar
StartChar: uni0263
Encoding: 611 611 611
Width: 1403
Flags: W
TeX: 0 0 0 0
Fore
885.134 572 m 1,5,-1
 1081.47 126.136 1081.47 126.136 1019.24 -194 c 0,0,0
 974.191 -425.749 974.191 -425.749 589.364 -430 c 0,0,0
 165.842 -434.857 165.842 -434.857 211.238 -194 c 0,0,0
 275.513 147.713 275.513 147.713 648.494 579 c 1,0,0
 356.654 1120 l 1,0,-1
 573.654 1120 l 1,1,-1
 798.902 720 l 1,2,-1
 1167.65 1120 l 1,3,-1
 1384.65 1120 l 1,4,-1
 885.134 572 l 1,5,-1
740.808 452 m 1,0,0
 460.938 144 460.938 144 410.679 -130 c 0,0,0
 386.342 -268.01 386.342 -268.01 599.854 -268 c 16,0,0
 803.305 -267.986 803.305 -267.986 830.679 -130 c 0,0,0
 880.273 120 880.273 120 740.808 452 c 1,0,0
EndSplineSet
EndChar
StartChar: uni0264
Encoding: 612 612 612
Width: 1212
Flags: W
TeX: 0 0 0 0
Fore
499.054 586 m 1,0,0
 204.853 1120 l 1,8,-1
 421.853 1120 l 1,9,-1
 641.295 721 l 1,10,-1
 1015.85 1120 l 1,11,-1
 1232.85 1120 l 1,0,-1
 721.916 575 l 1,0,0
 854.07 334 854.07 334 821.657 167.25 c 0,0,0
 790.546 0.000976562 790.546 0.000976562 503.397 0 c 0,0,0
 201.147 0 201.147 0 233.657 167.25 c 0,0,0
 268.014 344 268.014 344 499.054 586 c 1,0,0
578.675 440 m 1,0,0
 430.337 282 430.337 282 418.82 222.75 c 0,0,0
 398.229 119.241 398.229 119.241 521.327 119.25 c 16,0,0
 634.952 119.25 634.952 119.25 655.07 222.75 c 0,0,0
 667.365 286 667.365 286 578.675 440 c 1,0,0
EndSplineSet
EndChar
StartChar: uni0265
Encoding: 613 613 613
Width: 1233
Flags: W
Fore
204.051 424 m 2,0,-1
 338.95 1118 l 1,1,-1
 522.95 1118 l 1,2,-1
 388.051 424 l 2,3,4
 358.699 273 358.699 273 398.398 202 c 128,-1,5
 438.097 131 438.097 131 550.097 131 c 0,6,7
 680.097 131 680.097 131 766.883 222.5 c 128,-1,8
 853.669 314 853.669 314 886.907 485 c 2,9,-1
 1009.95 1118 l 1,10,-1
 1194.95 1118 l 1,11,-1
 894.05 -430 l 1,12,-1
 709.05 -430 l 1,13,-1
 825.289 168 l 1,14,15
 757.435 71 757.435 71 663.215 21 c 128,-1,16
 568.996 -29 568.996 -29 455.996 -29 c 0,17,18
 283.996 -29 283.996 -29 221.864 83.5 c 128,-1,19
 159.731 196 159.731 196 204.051 424 c 2,0,-1
EndSplineSet
EndChar
StartChar: uni0266
Encoding: 614 614 614
Width: 1233
Flags: W
Fore
409.169 961.5 m 1,13,-1
 406.322 952 l 1,14,15
 473.982 1048 473.982 1048 567.604 1097.5 c 128,-1,16
 661.227 1147 661.227 1147 776.227 1147 c 0,17,18
 947.227 1147 947.227 1147 1009.86 1034.5 c 128,-1,19
 1072.49 922 1072.49 922 1028.17 694 c 2,0,-1
 893.272 0 l 1,1,-1
 708.272 0 l 1,2,-1
 843.172 694 l 2,3,4
 872.523 845 872.523 845 833.324 916 c 128,-1,5
 794.125 987 794.125 987 681.125 987 c 0,6,7
 552.125 987 552.125 987 464.84 895.5 c 128,-1,8
 377.554 804 377.554 804 344.314 633 c 2,9,-1
 221.272 0 l 1,10,-1
 37.2725 0 l 1,11,-1
 232.041 1002 l 1,12,-1
 260.81 1150 l 2,5,6
 298.714 1345 298.714 1345 408.124 1450 c 128,-1,7
 518.728 1556 518.728 1556 683.728 1556 c 2,8,-1
 888.728 1556 l 1,9,-1
 858.404 1400 l 1,10,-1
 673.404 1400 l 2,11,12
 583.404 1400 583.404 1400 526.353 1338 c 128,-1,13
 470.302 1276 470.302 1276 445.81 1150 c 2,0,-1
 409.169 961.5 l 1,13,-1
EndSplineSet
EndChar
StartChar: uni0267
Encoding: 615 615 615
Width: 1233
Flags: W
Fore
450.572 961.5 m 1,0,-1
 447.726 952 l 1,1,2
 515.385 1048 515.385 1048 609.008 1097.5 c 0,3,4
 702.629 1147 702.629 1147 817.629 1147 c 0,5,6
 988.628 1147 988.628 1147 1051.26 1034.5 c 0,7,8
 1113.89 922.001 1113.89 922.001 1069.58 694 c 2,9,-1
 959.556 128 l 1,10,-1
 934.675 0 l 1,11,-1
 930.787 -20 l 2,12,13
 892.883 -215.001 892.883 -215.001 783.474 -320 c 0,14,15
 672.868 -426 672.868 -426 507.869 -426 c 2,16,-1
 302.869 -426 l 1,17,-1
 333.192 -270 l 1,18,-1
 518.192 -270 l 2,19,20
 608.193 -270 608.193 -270 665.244 -208 c 0,21,22
 721.296 -146 721.296 -146 745.787 -20 c 2,23,-1
 749.675 0 l 1,24,-1
 774.556 128 l 1,25,-1
 884.575 694 l 2,26,27
 913.927 845 913.927 845 874.728 916 c 0,28,29
 835.528 987 835.528 987 722.528 987 c 0,30,31
 593.529 987 593.529 987 506.243 895.5 c 0,32,33
 418.957 804.001 418.957 804.001 385.718 633 c 2,34,-1
 262.675 0 l 1,35,-1
 78.6748 0 l 1,36,-1
 273.444 1002 l 1,37,-1
 302.213 1150 l 2,38,39
 340.116 1345 340.116 1345 449.526 1450 c 0,40,41
 560.132 1556 560.132 1556 725.131 1556 c 2,42,-1
 930.131 1556 l 1,43,-1
 899.808 1400 l 1,44,-1
 714.808 1400 l 2,45,46
 624.807 1400 624.807 1400 567.756 1338 c 0,47,48
 511.704 1276 511.704 1276 487.213 1150 c 2,49,-1
 450.572 961.5 l 1,0,-1
EndSplineSet
EndChar
StartChar: uni0268
Encoding: 616 616 616
Width: 1233
Flags: W
Fore
675.728 1556 m 1,0,-1
 859.728 1556 l 1,1,-1
 814.438 1323 l 1,2,-1
 630.438 1323 l 1,3,-1
 675.728 1556 l 1,0,-1
303.979 1120 m 1,4,-1
 774.979 1120 l 1,5,-1
 677.011 616 l 1,6,-1
 1030.51 616 l 1,7,-1
 998.632 452 l 1,8,-1
 645.132 452 l 1,9,-1
 585.068 143 l 1,10,-1
 950.068 143 l 1,11,-1
 922.272 0 l 1,12,-1
 8.27246 0 l 1,13,-1
 36.0684 143 l 1,14,-1
 401.068 143 l 1,15,-1
 461.132 452 l 1,16,-1
 78.1318 452 l 1,17,-1
 110.011 616 l 1,18,-1
 493.011 616 l 1,19,-1
 563.182 977 l 1,20,-1
 276.182 977 l 1,21,-1
 303.979 1120 l 1,4,-1
EndSplineSet
EndChar
StartChar: uni0269
Encoding: 617 617 617
Width: 1233
Flags: W
TeX: 0 0 0 0
Fore
925.647 0 m 17,0,0
 720.647 0 l 17,0,0
 555.647 0 555.647 0 486.251 106 c 128,-1,7
 417.087 208.043 417.087 208.043 455.565 406 c 2,5,6
 566.557 977 l 1,0,0
 279.557 977 l 1,9,-1
 307.353 1120 l 1,0,-1
 778.353 1120 l 1,1,-1
 639.565 406 l 1,2,-1
 614.084 280 614.084 280 647.021 218 c 128,-1,13
 679.971 156 679.971 156 769.971 156 c 2,11,12
 954.971 156 l 1,10,-1
 925.647 0 l 17,0,0
EndSplineSet
EndChar
StartChar: uni026A
Encoding: 618 618 618
Width: 1233
Flags: W
TeX: 0 0 0 0
Fore
268.353 1120 m 1,0,-1
 1182.35 1120 l 1,1,-1
 1154.56 977 l 1,0,0
 789.557 977 l 1,0,0
 627.443 143 l 1,2,-1
 992.443 143 l 1,3,-1
 964.647 0 l 1,4,-1
 50.6475 0 l 1,5,-1
 78.4434 143 l 1,6,-1
 443.443 143 l 1,7,-1
 605.557 977 l 1,8,-1
 240.557 977 l 1,9,-1
 268.353 1120 l 1,0,-1
EndSplineSet
EndChar
StartChar: uni026B
Encoding: 619 619 619
Width: 1233
Flags: W
Fore
585.121 406 m 2,0,1
 556.511 258.812 556.511 258.812 594.272 219 c 0,2,3
 654.026 156 654.026 156 716.526 156 c 2,4,-1
 931.526 156 l 1,5,-1
 901.203 0 l 1,6,-1
 668.203 0 l 2,7,8
 503.203 0 503.203 0 433.308 106 c 0,9,10
 363.412 212 363.412 212 401.121 406 c 2,11,-1
 439.61 604.006 l 1,12,13
 394.595 614 394.595 614 348.053 614 c 0,14,15
 269.053 614 269.053 614 192.818 584.5 c 0,16,17
 116.584 555 116.584 555 31.3379 492 c 1,18,-1
 65.1602 666 l 1,19,20
 154.823 726 154.823 726 233.071 753 c 0,21,22
 311.319 780 311.319 780 394.319 780 c 0,23,24
 434.951 780 434.951 780 472.563 773.535 c 1,25,-1
 598.807 1423 l 1,26,-1
 303.807 1423 l 1,27,-1
 331.797 1567 l 1,28,-1
 810.797 1567 l 1,29,-1
 644.281 710.351 l 1,30,31
 747.816 657 747.816 657 839.411 657 c 0,32,33
 909.411 657 909.411 657 983.84 687.5 c 0,34,35
 1058.27 718 1058.27 718 1144.32 780 c 1,36,-1
 1110.5 606 l 1,37,38
 1024.03 547 1024.03 547 947.184 519.5 c 0,39,40
 870.338 492 870.338 492 791.338 492 c 0,41,42
 706.747 492 706.747 492 610.596 537.054 c 1,43,-1
 585.121 406 l 2,0,1
EndSplineSet
EndChar
StartChar: uni026C
Encoding: 620 620 620
Width: 1233
Flags: W
TeX: 0 0 0 0
Fore
608.123 406 m 2,0,1
 584.021 281.999 584.021 281.999 617.274 219 c 0,2,3
 650.529 156 650.529 156 739.528 156 c 2,4,-1
 954.526 156 l 1,5,-1
 924.203 0 l 1,6,-1
 691.205 0 l 2,7,8
 526.207 0 526.207 0 456.31 106 c 0,9,10
 386.413 211.998 386.413 211.998 424.123 406 c 2,11,-1
 461.03 595.868 l 1,12,13
 463.611 611.304 463.611 611.304 465.873 626 c 1,14,-1
 404.887 626 l 2,15,16
 124.888 626 124.888 626 162.625 815 c 0,17,18
 211.441 1061 211.441 1061 456.442 1061 c 0,19,20
 509.621 1061 509.621 1061 546.603 1036.1 c 1,21,-1
 621.809 1423 l 1,22,-1
 326.809 1423 l 1,23,-1
 354.799 1567 l 1,24,-1
 833.799 1567 l 1,25,-1
 681.988 786 l 1,26,-1
 931.988 786 l 1,27,-1
 900.887 626 l 1,28,-1
 650.887 626 l 1,29,-1
 608.123 406 l 2,0,1
481.785 786 m 1,30,31
 484.22 918 484.22 918 429.646 918 c 0,32,33
 352.646 918 352.646 918 337.067 843 c 0,34,35
 325.988 786 325.988 786 417.988 786 c 2,36,-1
 481.785 786 l 1,30,31
EndSplineSet
EndChar
StartChar: uni026D
Encoding: 621 621 621
Width: 1233
Flags: W
Fore
543.719 -20 m 2,0,1
 519.618 -143.987 519.618 -143.987 552.869 -207 c 128,-1,2
 586.123 -270 586.123 -270 675.123 -270 c 2,3,-1
 890.123 -270 l 1,4,-1
 859.8 -426 l 1,5,-1
 626.8 -426 l 2,6,7
 467.689 -426 467.689 -426 391.904 -320 c 128,-1,8
 320.75 -220.476 320.75 -220.476 359.719 -20 c 2,9,-1
 640.209 1423 l 1,10,-1
 345.209 1423 l 1,11,-1
 373.2 1567 l 1,12,-1
 852.2 1567 l 1,13,-1
 543.719 -20 l 2,0,1
EndSplineSet
EndChar
StartChar: uni026E
Encoding: 622 622 622
Width: 1233
Flags: W
TeX: 0 0 0 0
Fore
774.556 128 m 1,0,-1
 884.575 694 l 2,1,2
 913.927 845 913.927 845 874.728 916 c 0,3,4
 835.528 987 835.528 987 722.528 987 c 0,5,6
 593.529 987 593.529 987 506.243 895.5 c 0,7,8
 418.957 804.001 418.957 804.001 385.718 633 c 2,9,-1
 262.675 0 l 1,10,-1
 78.6748 0 l 1,11,-1
 381.131 1556 l 1,12,-1
 565.131 1556 l 1,13,-1
 447.726 952 l 1,14,15
 515.385 1048 515.385 1048 609.008 1097.5 c 0,16,17
 702.629 1147 702.629 1147 817.629 1147 c 0,18,19
 988.628 1147 988.628 1147 1051.26 1034.5 c 0,20,21
 1113.89 922.001 1113.89 922.001 1069.58 694 c 2,22,-1
 959.556 128 l 1,23,-1
 934.675 0 l 1,24,-1
 930.787 -20 l 2,25,26
 892.883 -215.001 892.883 -215.001 783.474 -320 c 0,27,28
 672.868 -426 672.868 -426 507.869 -426 c 2,29,-1
 302.869 -426 l 1,30,-1
 333.192 -270 l 1,31,-1
 518.192 -270 l 2,32,33
 608.193 -270 608.193 -270 665.244 -208 c 0,34,35
 721.296 -146 721.296 -146 745.787 -20 c 2,36,-1
 749.675 0 l 1,37,-1
 774.556 128 l 1,0,-1
EndSplineSet
EndChar
StartChar: uni026F
Encoding: 623 623 623
Width: 1233
Flags: W
Fore
478.431 141 m 1,0,1
 430.436 69 430.436 69 371.229 34.5 c 128,-1,2
 312.022 0 312.022 0 238.022 0 c 0,3,4
 103.022 0 103.022 0 67.8359 104.5 c 128,-1,5
 32.6484 209 32.6484 209 88.8242 498 c 2,6,-1
 214.978 1147 l 1,7,-1
 382.978 1147 l 1,8,-1
 258.379 506 l 2,9,10
 212.312 269 212.312 269 227.635 211.5 c 128,-1,11
 242.957 154 242.957 154 312.957 154 c 0,12,13
 392.957 154 392.957 154 434.412 215.5 c 128,-1,14
 475.866 277 475.866 277 520.379 506 c 2,15,-1
 644.978 1147 l 1,16,-1
 812.978 1147 l 1,17,-1
 688.379 506 l 2,18,19
 641.729 266 641.729 266 659.343 210 c 128,-1,20
 676.957 154 676.957 154 750.957 154 c 0,21,22
 823.957 154 823.957 154 864.412 215.5 c 128,-1,23
 904.866 277 904.866 277 949.379 506 c 2,24,-1
 1073.98 1147 l 1,25,-1
 1240.98 1147 l 1,26,-1
 1023.27 27 l 1,27,-1
 856.271 27 l 1,28,-1
 874.932 123 l 1,29,30
 830.269 63 830.269 63 774.646 31.5 c 128,-1,31
 719.022 0 719.022 0 656.022 0 c 0,32,33
 580.022 0 580.022 0 536.326 35 c 128,-1,34
 492.63 70 492.63 70 478.431 141 c 1,0,1
EndSplineSet
EndChar
StartChar: uni0270
Encoding: 624 624 624
Width: 1233
Flags: W
Fore
520.223 141 m 1,0,1
 472.227 69 472.227 69 413.021 34.5 c 128,-1,2
 353.814 0 353.814 0 279.814 0 c 0,3,4
 144.814 0 144.814 0 109.627 104.5 c 128,-1,5
 74.4404 209 74.4404 209 130.616 498 c 2,6,-1
 256.769 1147 l 1,7,-1
 424.769 1147 l 1,8,-1
 300.171 506 l 2,9,10
 254.103 269 254.103 269 269.426 211.5 c 128,-1,11
 284.749 154 284.749 154 354.749 154 c 0,12,13
 434.749 154 434.749 154 476.204 215.5 c 128,-1,14
 517.658 277 517.658 277 562.171 506 c 2,15,-1
 686.769 1147 l 1,16,-1
 854.769 1147 l 1,17,-1
 730.171 506 l 2,18,19
 683.52 266 683.52 266 701.135 210 c 128,-1,20
 718.749 154 718.749 154 792.749 154 c 0,21,22
 865.749 154 865.749 154 906.204 215.5 c 128,-1,23
 946.658 277 946.658 277 991.171 506 c 2,24,-1
 1115.77 1147 l 1,25,-1
 1282.77 1147 l 1,26,-1
 976.231 -430 l 1,27,-1
 809.231 -430 l 1,28,-1
 916.724 123 l 1,29,30
 872.061 63 872.061 63 816.438 31.5 c 128,-1,31
 760.814 0 760.814 0 697.814 0 c 0,32,33
 621.814 0 621.814 0 578.118 35 c 128,-1,34
 534.421 70 534.421 70 520.223 141 c 1,0,1
EndSplineSet
EndChar
StartChar: uni0271
Encoding: 625 625 625
Width: 1233
Flags: W
Fore
795.592 1006 m 1,0,1
 843.586 1078 843.586 1078 902.793 1112.5 c 0,2,3
 961.999 1147 961.999 1147 1036 1147 c 0,4,5
 1171 1147 1171 1147 1206.19 1042.5 c 0,6,7
 1241.38 938.001 1241.38 938.001 1185.2 649 c 2,8,-1
 1083.93 128 l 1,9,-1
 1055.91 -20 l 2,10,11
 1019.23 -213.718 1019.23 -213.718 916.895 -320 c 0,12,13
 814.68 -426 814.68 -426 665.069 -426 c 2,14,-1
 479.189 -426 l 1,15,-1
 509.514 -270 l 1,16,-1
 677.257 -270 l 2,17,18
 758.864 -270 758.864 -270 811.72 -208 c 0,19,20
 863.666 -145.998 863.666 -145.998 888.157 -20 c 2,21,-1
 892.045 0 l 1,22,-1
 891.045 0 l 1,23,-1
 1015.64 641 l 2,24,25
 1061.71 877.997 1061.71 877.997 1046.39 935.5 c 0,26,27
 1031.07 993 1031.07 993 961.064 993 c 0,28,29
 881.063 993 881.063 993 839.61 931.5 c 0,30,31
 798.155 869.998 798.155 869.998 753.643 641 c 2,32,-1
 629.045 0 l 1,33,-1
 461.045 0 l 1,34,-1
 585.643 641 l 2,35,36
 632.294 880.999 632.294 880.999 614.68 937 c 0,37,38
 597.065 993 597.065 993 523.064 993 c 0,39,40
 450.064 993 450.064 993 409.61 931.5 c 0,41,42
 369.156 870 369.156 870 324.643 641 c 2,43,-1
 200.045 0 l 1,44,-1
 33.0449 0 l 1,45,-1
 250.751 1120 l 1,46,-1
 417.751 1120 l 1,47,-1
 399.09 1024 l 1,48,49
 443.753 1084 443.753 1084 499.376 1115.5 c 0,50,51
 554.999 1147 554.999 1147 617.999 1147 c 0,52,53
 694.002 1147 694.002 1147 737.696 1112 c 0,54,55
 781.396 1077 781.396 1077 795.592 1006 c 1,0,1
EndSplineSet
EndChar
StartChar: uni0272
Encoding: 626 626 626
Width: 1233
Flags: W
Fore
415.038 -20 m 1,10,-1
 373.44 -234 373.44 -234 294.03 -330 c 128,-1,4
 213.87 -426 213.87 -426 78.1201 -426 c 2,5,-1
 25.6201 -426 l 1,6,-1
 55.9434 -270 l 1,7,-1
 92.6934 -270 l 2,8,9
 171.443 -270 171.443 -270 209.273 -222 c 128,-1,10
 247.298 -173 247.298 -173 277.038 -20 c 1,11,-1
 498.632 1120 l 1,12,-1
 637.382 1120 l 1,13,-1
 603.56 946 l 1,14,15
 672.692 1047 672.692 1047 749.911 1097 c 128,-1,16
 826.38 1147 826.38 1147 914.13 1147 c 0,17,18
 1058.88 1147 1058.88 1147 1110 1028 c 128,-1,19
 1160.92 908 1160.92 908 1115.83 676 c 2,0,-1
 984.426 0 l 1,1,-1
 846.426 0 l 1,2,-1
 976.661 670 l 2,3,4
 1007.57 829 1007.57 829 976.423 908 c 128,-1,5
 945.279 987 945.279 987 852.279 987 c 0,6,7
 740.529 987 740.529 987 657.563 892 c 128,-1,8
 574.597 797 574.597 797 542.719 633 c 2,9,-1
 415.038 -20 l 1,10,-1
EndSplineSet
EndChar
StartChar: uni0273
Encoding: 627 627 627
Width: 1233
Flags: W
Fore
673.926 0 m 1,0,-1
 698.807 128 l 1,1,-1
 804.161 670 l 2,2,3
 835.067 829.001 835.067 829.001 803.923 908 c 0,4,5
 772.778 987 772.778 987 679.779 987 c 0,6,7
 568.028 987 568.028 987 485.063 892 c 0,8,9
 402.097 796.999 402.097 796.999 370.219 633 c 2,10,-1
 247.176 0 l 1,11,-1
 108.426 0 l 1,12,-1
 326.132 1120 l 1,13,-1
 464.882 1120 l 1,14,-1
 431.06 946 l 1,15,16
 500.19 1047 500.19 1047 576.661 1097 c 0,17,18
 653.879 1147 653.879 1147 741.63 1147 c 0,19,20
 886.381 1147 886.381 1147 937.499 1028 c 0,21,22
 988.423 908 988.423 908 943.327 676 c 2,23,-1
 836.807 128 l 1,24,-1
 811.926 0 l 1,25,-1
 808.038 -20 l 2,26,27
 778.298 -173.001 778.298 -173.001 797.273 -222 c 0,28,29
 816.443 -270 816.443 -270 895.193 -270 c 2,30,-1
 931.943 -270 l 1,31,-1
 901.62 -426 l 1,32,-1
 849.12 -426 l 2,33,34
 713.37 -426 713.37 -426 671.28 -330 c 0,35,36
 628.441 -234 628.441 -234 670.038 -20 c 2,37,-1
 673.926 0 l 1,0,-1
EndSplineSet
EndChar
StartChar: uni0274
Encoding: 628 628 628
Width: 1233
Flags: W
TeX: 0 0 0 0
Fore
255.478 1147 m 1,0,-1
 527.478 1147 l 1,1,-1
 828.952 244 l 1,2,-1
 1004.48 1147 l 1,3,-1
 1200.48 1147 l 1,4,-1
 977.522 0 l 1,5,-1
 705.522 0 l 1,6,-1
 404.048 903 l 1,7,-1
 228.522 0 l 1,8,-1
 32.5225 0 l 1,9,-1
 255.478 1147 l 1,0,-1
EndSplineSet
EndChar
StartChar: uni0275
Encoding: 629 629 629
Width: 1233
Flags: W
Fore
730.296 1147 m 0,0,1
 963.294 1147 963.294 1147 1057.44 996 c 0,2,3
 1151.59 845.002 1151.59 845.002 1096 559 c 0,4,5
 1040.21 272.001 1040.21 272.001 887.959 121.5 c 0,6,7
 735.705 -29 735.705 -29 501.704 -29 c 0,8,9
 268.703 -29 268.703 -29 174.959 121.5 c 0,10,11
 81.2129 272.001 81.2129 272.001 137 559 c 0,12,13
 192.593 845.001 192.593 845.001 344.944 996 c 0,14,15
 497.297 1147 497.297 1147 730.296 1147 c 0,0,1
699.973 991 m 0,16,17
 559.974 991 559.974 991 466.785 882 c 0,18,19
 385.278 786.664 385.278 786.664 343.239 611 c 1,20,-1
 909.977 611 l 1,21,22
 936.229 786.664 936.229 786.664 891.785 882 c 0,23,24
 840.972 991 840.972 991 699.973 991 c 0,16,17
873.492 447 m 1,25,-1
 315.967 447 l 1,26,27
 304.912 315.092 304.912 315.092 341.312 236.5 c 0,28,29
 392.027 127 392.027 127 532.027 127 c 0,30,31
 673.027 127 673.027 127 766.312 236.5 c 0,32,33
 833.266 315.092 833.266 315.092 873.492 447 c 1,25,-1
EndSplineSet
EndChar
StartChar: uni0276
Encoding: 630 630 630
Width: 1233
Flags: W
TeX: 0 0 0 0
Fore
1261.97 1120 m 1,0,-1
 1232.04 966 l 1,1,-1
 815.043 966 l 1,2,-1
 758.479 675 l 1,3,-1
 1158.23 675 l 1,4,-1
 1128.1 520 l 1,5,-1
 728.35 520 l 1,6,-1
 657.596 156 l 1,7,-1
 1085.09 156 l 1,8,-1
 1054.77 0 l 1,9,-1
 455.522 0 l 2,10,11
 211.772 0 211.772 0 114.124 142 c 128,-1,12
 15.9209 285 15.9209 285 69.5693 561 c 0,13,14
 122.83 835 122.83 835 276.432 977 c 128,-1,15
 429.478 1120 429.478 1120 673.228 1120 c 2,16,-1
 1261.97 1120 l 1,0,-1
679.459 990 m 1,17,-1
 651.709 990 l 2,18,19
 471.709 990 471.709 990 360.716 882 c 128,-1,20
 249.917 775 249.917 775 207.931 559 c 0,21,22
 165.75 342 165.75 342 234.757 234 c 128,-1,23
 303.569 125 303.569 125 483.569 125 c 2,24,-1
 511.319 125 l 1,25,-1
 679.459 990 l 1,17,-1
EndSplineSet
EndChar
StartChar: uni0277
Encoding: 631 631 631
Width: 1233
Flags: W
TeX: 0 0 0 0
Fore
397.406 780 m 0,0,0
 334.495 684 334.495 684 328.357 664 c 128,-1,30
 288.587 552 288.587 552 278.758 486 c 0,28,29
 253.047 319 253.047 319 274.551 256 c 128,-1,27
 303.028 171 303.028 171 361.528 171 c 0,25,26
 419.278 171 419.278 171 475.885 250 c 128,-1,24
 506.743 293 506.743 293 542.703 478 c 2,22,23
 578.08 660 l 1,21,-1
 695.08 660 l 17,0,0
 659.703 478 l 2,22,23
 623.743 293 623.743 293 637.885 250 c 128,-1,24
 663.778 171 663.778 171 721.528 171 c 0,25,26
 777.778 171 777.778 171 841.551 256 c 128,-1,27
 877.881 304 877.881 304 926.758 486 c 0,28,29
 937.587 561 937.587 561 946.357 664 c 128,-1,30
 948.579 687 948.579 687 921.656 780 c 0,0,0
 874.007 940 874.007 940 683.507 940 c 0,0,0
 502.007 940 502.007 940 397.406 780 c 0,0,0
252.656 780 m 0,32,33
 395.438 1148 395.438 1148 731.243 1147 c 0,0,0
 1045.85 1145 1045.85 1145 1063.41 780 c 8,0,0
 1068.58 660 1068.58 660 1071.19 658 c 128,-1,34
 1062.06 557 1062.06 557 1044.76 468 c 0,35,36
 1000.05 238 1000.05 238 908.755 104 c 128,-1,37
 817.458 -30 817.458 -30 707.208 -30 c 0,38,39
 629.958 -30 629.958 -30 590.509 41 c 128,-1,40
 551.06 112 551.06 112 555.523 243 c 1,0,1
 509.06 112 509.06 112 442.009 41 c 128,-1,40
 374.958 -30 374.958 -30 297.708 -30 c 0,38,39
 187.458 -30 187.458 -30 148.255 104 c 128,-1,37
 104.468 253 104.468 253 153.76 468 c 0,35,36
 159.702 487 159.702 487 201.191 658 c 128,-1,34
 230.521 724 230.521 724 252.656 780 c 0,32,33
EndSplineSet
EndChar
StartChar: uni0278
Encoding: 632 632 632
Width: 1233
Flags: W
TeX: 0 0 0 0
Fore
692.559 1391 m 1,0,-1
 452.559 1391 l 1,1,-1
 484.437 1555 l 1,2,-1
 724.437 1555 l 1,3,-1
 908.437 1555 l 1,4,-1
 1148.44 1555 l 1,5,-1
 1116.56 1391 l 1,6,-1
 876.559 1391 l 1,7,-1
 827.621 1139.24 l 1,8,9
 983.468 1112.77 983.468 1112.77 1056.28 996 c 0,10,11
 1150.43 845.002 1150.43 845.002 1094.83 559 c 0,12,13
 1039.05 272.001 1039.05 272.001 886.792 121.5 c 0,14,15
 768.911 4.97656 768.911 4.97656 602.029 -21.3291 c 1,16,-1
 555.441 -261 l 1,17,-1
 795.441 -261 l 1,18,-1
 763.563 -425 l 1,19,-1
 523.563 -425 l 1,20,-1
 339.563 -425 l 1,21,-1
 99.5635 -425 l 1,22,-1
 131.441 -261 l 1,23,-1
 371.441 -261 l 1,24,-1
 417.579 -23.6436 l 1,25,26
 249.853 -0.607422 249.853 -0.607422 173.792 121.5 c 0,27,28
 80.0469 272.001 80.0469 272.001 135.834 559 c 0,29,30
 191.427 845.001 191.427 845.001 343.778 996 c 0,31,32
 467.387 1118.51 467.387 1118.51 644.086 1141.63 c 1,33,-1
 692.559 1391 l 1,0,-1
795.546 974.229 m 1,34,-1
 634.137 143.848 l 1,35,36
 708.453 169.952 708.453 169.952 765.146 236.5 c 0,37,38
 858.431 346 858.431 346 899.834 559 c 0,39,40
 941.432 773.001 941.432 773.001 890.618 882 c 0,41,42
 859.738 948.243 859.738 948.243 795.546 974.229 c 1,34,-1
449.12 138.621 m 1,43,-1
 612.558 979.432 l 1,44,45
 528.447 955.49 528.447 955.49 465.618 882 c 0,46,47
 372.432 773.001 372.432 773.001 330.834 559 c 0,48,49
 289.431 346 289.431 346 340.146 236.5 c 0,50,51
 374.34 162.672 374.34 162.672 449.12 138.621 c 1,43,-1
EndSplineSet
EndChar
StartChar: uni0279
Encoding: 633 633 633
Width: 1233
Flags: W
Fore
215.704 172 m 1,0,1
 243.206 154 243.206 154 277.65 146 c 128,-1,2
 312.901 137 312.901 137 356.901 137 c 0,3,4
 512.901 137 512.901 137 615.533 238 c 128,-1,5
 719.36 340 719.36 340 756.293 530 c 2,6,-1
 870.978 1120 l 1,7,-1
 1055.98 1120 l 1,8,-1
 838.271 0 l 1,9,-1
 653.271 0 l 1,10,-1
 687.094 174 l 1,11,12
 609.267 72 609.267 72 506.548 22 c 128,-1,13
 404.022 -27 404.022 -27 271.022 -27 c 0,14,15
 252.022 -27 252.022 -27 229.606 -24 c 128,-1,16
 206.995 -22 206.995 -22 179.967 -17 c 1,17,-1
 215.704 172 l 1,0,1
EndSplineSet
EndChar
StartChar: uni027A
Encoding: 634 634 634
Width: 1233
Flags: W
Fore
174.302 -224 m 1,0,1
 201.803 -242 201.803 -242 236.248 -250 c 128,-1,2
 271.498 -259 271.498 -259 315.498 -259 c 0,3,4
 474.498 -259 474.498 -259 574.131 -158 c 128,-1,5
 678.541 -53 678.541 -53 714.89 134 c 2,6,-1
 912.38 1150 l 1,7,-1
 1097.38 1150 l 1,8,-1
 796.868 -396 l 1,9,-1
 611.868 -396 l 1,10,-1
 645.69 -222 l 1,11,12
 567.863 -324 567.863 -324 465.145 -374 c 128,-1,13
 362.62 -423 362.62 -423 229.62 -423 c 0,14,15
 210.62 -423 210.62 -423 188.203 -420 c 128,-1,16
 165.592 -418 165.592 -418 138.563 -413 c 1,17,-1
 174.302 -224 l 1,0,1
EndSplineSet
EndChar
StartChar: uni027B
Encoding: 635 635 635
Width: 1233
Flags: W
Fore
139.483 172 m 1,0,1
 166.981 154.002 166.981 154.002 201.43 146 c 0,2,3
 236.679 137 236.679 137 280.68 137 c 0,4,5
 436.68 137 436.68 137 539.312 238 c 0,6,7
 643.14 340 643.14 340 680.071 530 c 2,8,-1
 794.756 1120 l 1,9,-1
 979.756 1120 l 1,10,-1
 786.931 128 l 1,11,-1
 762.05 0 l 1,12,-1
 758.162 -20 l 2,13,14
 728.422 -173.002 728.422 -173.002 756.897 -222 c 0,15,16
 785.568 -270 785.568 -270 890.567 -270 c 2,17,-1
 939.567 -270 l 1,18,-1
 909.244 -426 l 1,19,-1
 839.244 -426 l 2,20,21
 658.244 -426 658.244 -426 595.904 -330 c 0,22,23
 532.565 -233.999 532.565 -233.999 574.162 -20 c 2,24,-1
 578.05 0 l 1,25,-1
 577.05 0 l 1,26,-1
 610.872 174 l 1,27,28
 533.048 72.002 533.048 72.002 430.326 22 c 0,29,30
 327.8 -27 327.8 -27 194.802 -27 c 0,31,32
 175.803 -27 175.803 -27 153.385 -24 c 0,33,34
 130.752 -21.9971 130.752 -21.9971 103.745 -17 c 1,35,-1
 139.483 172 l 1,0,1
EndSplineSet
EndChar
StartChar: uni027C
Encoding: 636 636 636
Width: 1233
Flags: W
Fore
1058.7 948 m 1,0,1
 1031.2 966 1031.2 966 996.752 974 c 128,-1,2
 961.502 983 961.502 983 917.502 983 c 0,3,4
 761.502 983 761.502 983 658.869 882 c 128,-1,5
 555.043 780 555.043 780 518.11 590 c 2,6,-1
 320.62 -426 l 1,7,-1
 135.62 -426 l 1,8,-1
 436.132 1120 l 1,9,-1
 621.132 1120 l 1,10,-1
 587.31 946 l 1,11,12
 665.137 1048 665.137 1048 767.855 1098 c 128,-1,13
 870.38 1147 870.38 1147 1003.38 1147 c 0,14,15
 1022.38 1147 1022.38 1147 1044.8 1144 c 128,-1,16
 1067.41 1142 1067.41 1142 1094.44 1137 c 1,17,-1
 1058.7 948 l 1,0,1
EndSplineSet
EndChar
StartChar: uni027D
Encoding: 637 637 637
Width: 1233
Flags: W
Fore
1059.2 948 m 1,0,1
 1031.7 965.998 1031.7 965.998 997.252 974 c 0,2,3
 962.003 983 962.003 983 918.002 983 c 0,4,5
 762.002 983 762.002 983 659.369 882 c 0,6,7
 555.736 780.999 555.736 780.999 518.61 590 c 2,8,-1
 403.926 0 l 1,9,-1
 401.926 -0 l 1,10,-1
 398.038 -20 l 2,11,12
 368.298 -173.002 368.298 -173.002 396.773 -222 c 0,13,14
 425.444 -270 425.444 -270 530.443 -270 c 2,15,-1
 763.443 -270 l 1,16,-1
 733.12 -426 l 1,17,-1
 479.12 -426 l 2,18,19
 298.12 -426 298.12 -426 235.78 -330 c 0,20,21
 172.441 -233.999 172.441 -233.999 214.038 -20 c 2,22,-1
 242.807 128 l 1,23,-1
 243.807 128 l 1,24,-1
 436.632 1120 l 1,25,-1
 621.632 1120 l 1,26,-1
 587.81 946 l 1,27,28
 665.635 1048 665.635 1048 768.355 1098 c 0,29,30
 870.882 1147 870.882 1147 1003.88 1147 c 0,31,32
 1022.88 1147 1022.88 1147 1045.3 1144 c 0,33,34
 1067.93 1142 1067.93 1142 1094.94 1137 c 1,35,-1
 1059.2 948 l 1,0,1
EndSplineSet
EndChar
StartChar: uni027E
Encoding: 638 638 638
Width: 1418
Flags: W
Fore
534.559 741 m 2,0,1
 575.768 953 575.768 953 676.816 1051 c 0,2,3
 777.478 1147 777.478 1147 957.478 1147 c 2,4,-1
 1166.48 1147 l 1,5,-1
 1136.15 991 l 1,6,-1
 949.153 991 l 2,7,8
 843.154 991 843.154 991 795.823 943 c 0,9,10
 750.104 893 750.104 893 720.559 741 c 2,11,-1
 606.319 143 l 1,12,-1
 971.319 143 l 1,13,-1
 943.522 0 l 1,14,-1
 29.5225 0 l 1,15,-1
 57.3193 143 l 1,16,-1
 418.319 143 l 1,17,-1
 534.559 741 l 2,0,1
EndSplineSet
EndChar
StartChar: uni027F
Encoding: 639 639 639
Width: 1418
Flags: W
Fore
726.559 741 m 2,0,-1
 610.319 143 l 1,1,-1
 971.319 143 l 1,2,-1
 943.522 0 l 1,3,-1
 29.5225 0 l 1,4,-1
 57.3193 143 l 1,5,-1
 424.319 143 l 1,6,-1
 540.559 741 l 2,7,8
 570.557 895.324 570.557 895.324 543.823 943 c 0,9,10
 516.909 991 516.909 991 409.153 991 c 2,11,-1
 222.153 991 l 1,12,-1
 252.478 1147 l 1,13,-1
 461.478 1147 l 2,14,15
 641.478 1147 641.478 1147 704.816 1051 c 0,16,17
 767.768 953 767.768 953 726.559 741 c 2,0,-1
EndSplineSet
EndChar
StartChar: uni0280
Encoding: 640 640 640
Width: 1233
Flags: W
Fore
717.196 525 m 1,0,1
 768.893 508 768.893 508 811.396 454 c 0,21,22
 852.899 400 852.899 400 887.627 306 c 1,19,20
 1002.15 0 l 1,18,-1
 807.147 0 l 1,17,-1
 700.935 287 l 1,16,-1
 659.899 400 659.899 400 607.896 436 c 0,14,15
 556.089 473 556.089 473 459.089 473 c 2,12,13
 290.089 473 l 1,11,-1
 198.147 0 l 1,10,-1
 13.1475 0 l 1,9,-1
 230.853 1120 l 1,8,-1
 618.853 1120 l 2,7,-1
 835.853 1120 835.853 1120 928.303 1040 c 0,5,6
 1019.56 959 1019.56 959 988.068 797 c 0,3,4
 967.658 692 967.658 692 898.052 622 c 128,-1,2
 828.445 552 828.445 552 717.196 525 c 1,0,1
385.724 965 m 1,23,-1
 320.218 628 l 1,33,-1
 518.218 628 l 2,32,-1
 637.218 628 637.218 628 708.576 671 c 0,30,31
 780.935 714 780.935 714 797.068 797 c 0,28,29
 813.396 881 813.396 881 757.56 923 c 0,26,27
 702.724 965 702.724 965 583.724 965 c 2,24,25
 385.724 965 l 1,23,-1
EndSplineSet
EndChar
StartChar: uni0281
Encoding: 641 641 641
Width: 1233
Flags: W
Fore
730.804 595 m 1,0,1
 831.555 568 831.555 568 873.948 498 c 128,-1,2
 916.342 428 916.342 428 895.932 323 c 0,3,4
 864.442 161 864.442 161 741.697 80 c 0,5,6
 618.147 0 618.147 0 401.147 0 c 2,7,-1
 13.1475 0 l 1,8,-1
 230.853 1120 l 1,9,-1
 415.853 1120 l 1,10,-1
 323.911 647 l 1,11,-1
 492.911 647 l 2,12,13
 589.911 647 589.911 647 656.104 684 c 0,14,15
 722.101 720 722.101 720 807.065 833 c 1,16,-1
 1024.85 1120 l 1,17,-1
 1219.85 1120 l 1,18,-1
 986.373 814 l 1,19,20
 915.101 720 915.101 720 852.604 666 c 0,21,22
 789.107 612 789.107 612 730.804 595 c 1,0,1
228.276 155 m 1,23,-1
 426.276 155 l 2,24,25
 545.276 155 545.276 155 616.44 197 c 0,26,27
 688.604 239 688.604 239 704.932 323 c 0,28,29
 721.065 406 721.065 406 665.424 449 c 0,30,31
 610.782 492 610.782 492 491.782 492 c 2,32,-1
 293.782 492 l 1,33,-1
 228.276 155 l 1,23,-1
EndSplineSet
EndChar
StartChar: uni0282
Encoding: 642 642 642
Width: 1233
Flags: W
TeX: 0 0 0 0
Fore
1125.72 1087 m 1,0,-1
 1091.9 913 l 1,1,2
 1021.67 952.999 1021.67 952.999 941.558 973 c 0,3,4
 861.449 993 861.449 993 771.445 993 c 0,5,6
 634.446 993 634.446 993 558.281 951 c 0,7,8
 481.117 909 481.117 909 464.79 825 c 0,9,10
 452.35 761 452.35 761 494.157 724 c 0,11,12
 536.158 688.001 536.158 688.001 677.745 655 c 2,13,-1
 738.023 641 l 2,14,15
 925.862 598.999 925.862 598.999 992.893 522 c 0,16,17
 1061.12 446.002 1061.12 446.002 1034.49 309 c 0,18,19
 1004.17 152.999 1004.17 152.999 863.478 62 c 0,20,21
 721.789 -29 721.789 -29 505.789 -29 c 0,22,23
 415.784 -29 415.784 -29 321.094 -12 c 2,24,-1
 300.885 -7.92969 l 1,25,-1
 298.538 -20 l 2,26,27
 268.798 -173.002 268.798 -173.002 297.273 -222 c 0,28,29
 325.944 -270 325.944 -270 430.943 -270 c 2,30,-1
 663.943 -270 l 1,31,-1
 633.62 -426 l 1,32,-1
 379.62 -426 l 2,33,34
 198.62 -426 198.62 -426 136.28 -330 c 0,35,36
 72.9414 -233.999 72.9414 -233.999 114.538 -20 c 2,37,-1
 126.396 41 l 1,38,-1
 143.307 128 l 1,39,-1
 163.328 231 l 1,40,41
 255.019 178.003 255.019 178.003 348.972 152 c 0,42,43
 442.724 125 442.724 125 539.724 125 c 0,44,45
 669.725 125 669.725 125 748.471 170 c 0,46,47
 827.023 214.002 827.023 214.002 842.769 295 c 0,48,49
 857.347 370.002 857.347 370.002 815.122 410 c 0,50,51
 771.895 450.002 771.895 450.002 608.089 487 c 2,52,-1
 547.005 502 l 1,53,54
 383 538.001 383 538.001 321.387 612 c 0,55,56
 259.966 687.001 259.966 687.001 285.234 817 c 0,57,58
 315.946 974.998 315.946 974.998 444.663 1061 c 0,59,60
 573.378 1147 573.378 1147 779.38 1147 c 0,61,62
 881.38 1147 881.38 1147 968.465 1132 c 0,63,64
 1055.55 1117 1055.55 1117 1125.72 1087 c 1,0,-1
EndSplineSet
EndChar
StartChar: uni0283
Encoding: 643 643 643
Width: 1233
Flags: W
Fore
350.787 -20 m 0,11,-1
 471.081 604 471.081 604 584.543 1198 c 0,16,17
 619.726 1379 619.726 1379 724.414 1470 c 128,-1,18
 822.131 1556 822.131 1556 1017.13 1556 c 2,19,-1
 1191.13 1556 l 1,0,-1
 1161.39 1403 l 1,1,-1
 985.391 1403 l 2,2,3
 886.391 1403 886.391 1403 840.615 1363 c 128,-1,4
 793.84 1323 793.84 1323 773.625 1219 c 1,1,-1
 534.787 -20 l 2,2,3
 493.19 -234 493.19 -234 393.529 -330 c 128,-1,4
 292.869 -426 292.869 -426 111.869 -426 c 2,5,-1
 41.8691 -426 l 1,6,-1
 72.1924 -270 l 1,7,-1
 121.192 -270 l 2,8,9
 226.192 -270 226.192 -270 273.522 -222 c 128,-1,10
 321.047 -173 321.047 -173 350.787 -20 c 0,11,-1
EndSplineSet
EndChar
StartChar: uni0284
Encoding: 644 644 644
Width: 1233
Flags: W
Fore
124.675 0 m 1,0,-1
 156.554 164 l 1,1,-1
 386.554 164 l 1,2,-1
 544.585 977 l 1,3,-1
 365.585 977 l 1,4,-1
 393.381 1120 l 1,5,-1
 569.381 1120 l 1,6,-1
 584.543 1198 l 2,7,8
 619.726 1379 619.726 1379 724.414 1470 c 0,9,10
 822.13 1556 822.13 1556 1017.13 1556 c 2,11,-1
 1191.13 1556 l 1,12,-1
 1161.39 1403 l 1,13,-1
 985.391 1403 l 2,14,15
 886.393 1403 886.393 1403 840.615 1363 c 0,16,17
 793.84 1323 793.84 1323 773.625 1219 c 1,18,-1
 570.257 164 l 1,19,-1
 818.554 164 l 1,20,-1
 786.675 0 l 1,21,-1
 538.644 -0 l 1,22,-1
 534.787 -20 l 1,23,24
 493.19 -234 493.19 -234 393.529 -330 c 0,25,26
 292.87 -426 292.87 -426 111.869 -426 c 2,27,-1
 41.8691 -426 l 1,28,-1
 72.1924 -270 l 1,29,-1
 121.192 -270 l 2,30,31
 226.191 -270 226.191 -270 273.522 -222 c 0,32,33
 321.047 -173.002 321.047 -173.002 350.787 -20 c 2,34,-1
 354.675 -0 l 1,35,-1
 124.675 0 l 1,0,-1
EndSplineSet
EndChar
StartChar: uni0285
Encoding: 645 645 645
Width: 1233
Flags: W
Fore
696.677 -20 m 0,11,-1
 666.937 -173 666.937 -173 695.412 -222 c 128,-1,10
 724.081 -270 724.081 -270 829.081 -270 c 2,8,9
 878.081 -270 l 1,7,-1
 847.758 -426 l 1,6,-1
 777.758 -426 l 2,5,-1
 596.758 -426 596.758 -426 533.419 -330 c 128,-1,4
 470.273 -233 470.273 -233 512.677 -20 c 2,2,3
 671.735 788 l 1,1,-1
 691.951 892 691.951 892 660.727 932 c 128,-1,4
 630.502 972 630.502 972 531.502 972 c 2,2,3
 355.502 972 l 1,1,-1
 385.242 1125 l 1,0,-1
 559.242 1125 l 2,19,-1
 754.242 1125 754.242 1125 818.525 1039 c 128,-1,18
 892.67 942 892.67 942 852.653 767 c 0,16,17
 832.354 678 832.354 678 696.677 -20 c 0,11,-1
EndSplineSet
EndChar
StartChar: uni0286
Encoding: 646 646 646
Width: 1233
Flags: W
TeX: 0 0 0 0
Fore
428.24 -154 m 1,0,-1
 249.24 -154 l 2,1,2
 130.24 -154 130.24 -154 123.327 -205 c 0,3,4
 113.716 -270 113.716 -270 237.692 -270 c 0,5,6
 347.692 -270 347.692 -270 390.022 -222 c 1,7,8
 412.404 -199.163 412.404 -199.163 428.24 -154 c 1,0,-1
655.175 0 m 1,9,-1
 836.175 0 l 1,10,-1
 806.046 -155 l 1,11,-1
 615.046 -155 l 1,12,13
 575.661 -266.139 575.661 -266.139 510.029 -330 c 0,14,15
 408.869 -426 408.869 -426 228.369 -426 c 0,16,17
 -74.6309 -426 -74.6309 -426 -32.6445 -210 c 0,18,19
 8.1748 0 8.1748 0 278.175 0 c 2,20,-1
 468.175 0 l 1,21,-1
 701.043 1198 l 2,22,23
 736.128 1378.5 736.128 1378.5 840.914 1470 c 0,24,25
 939.104 1556 939.104 1556 1133.63 1556 c 2,26,-1
 1307.63 1556 l 1,27,-1
 1277.89 1403 l 1,28,-1
 1101.89 1403 l 2,29,30
 1001.93 1403 1001.93 1403 957.115 1363 c 0,31,32
 910.243 1322.5 910.243 1322.5 890.125 1219 c 1,33,-1
 655.175 0 l 1,9,-1
EndSplineSet
EndChar
StartChar: uni0287
Encoding: 647 647 647
Width: 1233
Flags: W
Fore
506.24 -318 m 1,0,-1
 568.054 0 l 1,1,-1
 189.054 0 l 1,2,-1
 216.85 143 l 1,3,-1
 595.85 143 l 1,4,-1
 714.033 751 l 2,5,6
 740.663 888 740.663 888 710.244 927 c 128,-1,7
 680.825 966 680.825 966 565.825 966 c 2,8,-1
 376.825 966 l 1,9,-1
 406.76 1120 l 1,10,-1
 595.76 1120 l 2,11,12
 808.76 1120 808.76 1120 874.209 1040 c 128,-1,13
 939.853 961 939.853 961 899.033 751 c 2,14,-1
 780.85 143 l 1,15,-1
 915.85 143 l 1,16,-1
 888.054 0 l 1,17,-1
 753.054 0 l 1,18,-1
 691.24 -318 l 1,19,-1
 506.24 -318 l 1,0,-1
EndSplineSet
EndChar
StartChar: uni0288
Encoding: 648 648 648
Width: 1233
Flags: W
Fore
768.065 1438 m 1,0,-1
 706.252 1120 l 1,1,-1
 1085.25 1120 l 1,2,-1
 1057.46 977 l 1,3,-1
 678.456 977 l 1,4,-1
 477.661 -56 l 2,5,6
 451.031 -193 451.031 -193 480.45 -232 c 128,-1,7
 510.869 -271 510.869 -271 625.869 -271 c 2,8,-1
 814.869 -271 l 1,9,-1
 784.935 -425 l 1,10,-1
 595.935 -425 l 2,11,12
 382.935 -425 382.935 -425 317.291 -346 c 128,-1,13
 251.646 -267 251.646 -267 292.661 -56 c 2,14,-1
 493.456 977 l 1,15,-1
 358.456 977 l 1,16,-1
 386.252 1120 l 1,17,-1
 521.252 1120 l 1,18,-1
 583.065 1438 l 1,19,-1
 768.065 1438 l 1,0,-1
EndSplineSet
EndChar
StartChar: uni0289
Encoding: 649 649 649
Width: 1233
Flags: W
Fore
-50.6748 452 m 1,0,-1
 -18.7959 616 l 1,1,-1
 155.204 616 l 1,2,-1
 253.172 1120 l 1,3,-1
 437.172 1120 l 1,4,-1
 339.204 616 l 1,5,-1
 909.204 616 l 1,6,-1
 1007.17 1120 l 1,7,-1
 1191.17 1120 l 1,8,-1
 1093.2 616 l 1,9,-1
 1279.2 616 l 1,10,-1
 1247.33 452 l 1,11,-1
 1061.33 452 l 1,12,-1
 973.466 0 l 1,13,-1
 789.466 0 l 1,14,-1
 822.899 172 l 1,15,16
 736.074 70.002 736.074 70.002 637.354 20 c 0,17,18
 539.827 -29 539.827 -29 422.828 -29 c 0,19,20
 229.827 -29 229.827 -29 153.154 91 c 0,21,22
 76.48 211.001 76.48 211.001 121.382 442 c 2,23,-1
 123.325 452 l 1,24,-1
 -50.6748 452 l 1,0,-1
876.416 452 m 1,25,-1
 307.325 452 l 1,26,-1
 306.742 449 l 2,27,28
 275.836 290 275.836 290 322.285 210 c 0,29,30
 368.932 131 368.932 131 492.93 131 c 0,31,32
 641.931 131 641.931 131 747.396 226 c 0,33,34
 841.119 311.231 841.119 311.231 876.416 452 c 1,25,-1
EndSplineSet
EndChar
StartChar: uni028A
Encoding: 650 650 650
Width: 1233
Flags: W
TeX: 0 0 0 0
Fore
174.891 956 m 1,0,-1
 206.769 1120 l 1,1,-1
 648.769 1120 l 1,2,-1
 606.005 900 l 1,3,4
 483.593 831 483.593 831 400.183 726 c 128,-1,5
 312.606 615 312.606 615 286.365 480 c 0,6,7
 255.459 321 255.459 321 324.604 224 c 128,-1,8
 393.749 127 393.749 127 537.749 127 c 0,9,10
 681.749 127 681.749 127 788.604 224 c 128,-1,11
 895.653 322 895.653 322 926.365 480 c 0,12,13
 954.745 626 954.745 626 908.183 726 c 128,-1,14
 858.759 837 858.759 837 771.005 900 c 1,15,-1
 813.769 1120 l 1,16,-1
 1249.77 1120 l 1,17,-1
 1217.89 956 l 1,18,-1
 981.891 956 l 1,19,20
 1076.45 856 1076.45 856 1110.49 743 c 128,-1,21
 1143.11 633 1143.11 633 1116.67 497 c 0,22,23
 1070.99 262 1070.99 262 900.611 116 c 128,-1,24
 730.231 -30 730.231 -30 505.231 -30 c 0,25,26
 280.231 -30 280.231 -30 166.416 115 c 128,-1,27
 52.7959 261 52.7959 261 97.1143 489 c 0,28,29
 125.688 636 125.688 636 198.487 743 c 128,-1,30
 272.675 852 272.675 852 411.891 956 c 1,31,-1
 174.891 956 l 1,0,-1
EndSplineSet
EndChar
StartChar: uni028B
Encoding: 651 651 651
Width: 1233
Flags: W
TeX: 0 0 0 0
Fore
614.806 986 m 0,0,0
 936.806 986 l 1,18,-1
 936.806 986 l 1,19,20
 1031.37 886 1031.37 886 1065.4 773 c 128,-1,21
 1098.02 663 1098.02 663 1071.59 527 c 0,22,23
 1025.91 292 1025.91 292 855.526 146 c 128,-1,24
 685.147 0 685.147 0 460.147 0 c 0,25,26
 390.147 0 l 2,5,-1
 209.147 0 209.147 0 145.808 96 c 128,-1,4
 83.4678 192 83.4678 192 125.065 406 c 2,2,3
 263.853 1120 l 1,1,-1
 447.853 1120 l 1,0,-1
 309.065 406 l 2,11,-1
 279.325 253 279.325 253 307.801 204 c 128,-1,10
 338.082 154 338.082 154 441.471 156 c 2,8,9
 492.665 157 l 0,9,10
 636.665 157 636.665 157 743.52 254 c 128,-1,11
 850.569 352 850.569 352 881.281 510 c 0,12,13
 909.66 656 909.66 656 863.099 756 c 128,-1,14
 807.229 875 807.229 875 725.921 930 c 16,15,-1
 658.474 974 658.474 974 614.806 986 c 0,0,0
EndSplineSet
EndChar
StartChar: uni028C
Encoding: 652 652 652
Width: 1233
Flags: W
Fore
1052.65 0 m 1,0,-1
 857.647 0 l 1,1,-1
 690.364 940 l 1,2,-1
 157.647 0 l 1,3,-1
 -37.3525 0 l 1,4,-1
 600.353 1120 l 1,5,-1
 850.353 1120 l 1,6,-1
 1052.65 0 l 1,0,-1
EndSplineSet
EndChar
StartChar: uni028D
Encoding: 653 653 653
Width: 1233
Flags: W
Fore
1108.85 0 m 1,0,-1
 961.647 0 l 1,1,-1
 947.535 874 l 1,2,-1
 594.447 0 l 1,3,-1
 420.847 0 l 1,4,-1
 406.735 874 l 1,5,-1
 53.6475 0 l 1,6,-1
 -93.5527 0 l 1,7,-1
 358.553 1120 l 1,8,-1
 532.153 1120 l 1,9,-1
 546.512 202 l 1,10,-1
 918.553 1120 l 1,11,-1
 1092.15 1120 l 1,12,-1
 1108.85 0 l 1,0,-1
EndSplineSet
EndChar
StartChar: uni028E
Encoding: 654 654 654
Width: 1233
Flags: W
Fore
651.165 798 m 1,0,1
 768.042 998 768.042 998 853.898 1059 c 128,-1,2
 939.756 1120 939.756 1120 1063.76 1120 c 2,3,-1
 1210.76 1120 l 1,4,-1
 1180.82 966 l 1,5,-1
 1072.82 966 l 2,6,7
 996.821 966 996.821 966 947.823 930 c 128,-1,8
 898.826 894 898.826 894 821.779 760 c 1,9,-1
 772.451 676 l 1,10,-1
 1011.24 -426 l 1,11,-1
 816.244 -426 l 1,12,-1
 636.521 450 l 1,13,-1
 116.244 -426 l 1,14,-1
 -78.7559 -426 l 1,15,-1
 651.165 798 l 1,0,1
EndSplineSet
EndChar
StartChar: uni028F
Encoding: 655 655 655
Width: 1233
Flags: W
TeX: 0 0 0 0
Fore
213.672 1149 m 1,0,-1
 430.672 1149 l 1,1,-1
 635.034 693 l 1,2,-1
 1025.67 1149 l 1,3,-1
 1242.67 1149 l 1,4,-1
 702.378 525 l 1,5,-1
 600.328 0 l 1,6,-1
 397.328 0 l 1,7,-1
 499.378 525 l 1,8,-1
 213.672 1149 l 1,0,-1
EndSplineSet
EndChar
StartChar: uni0290
Encoding: 656 656 656
Width: 1233
Flags: W
TeX: 0 0 0 0
Fore
362.881 1120 m 1,0,-1
 1018.38 1120 l 1,1,-1
 985.725 952 l 1,2,-1
 310.249 147 l 1,3,-1
 829.249 147 l 1,4,-1
 800.675 0 l 1,5,-1
 799.175 0 l 1,6,-1
 795.287 -20 l 2,7,8
 765.547 -173.002 765.547 -173.002 784.522 -222 c 0,9,10
 803.693 -270 803.693 -270 882.447 -270 c 2,11,-1
 919.188 -270 l 1,12,-1
 888.864 -426 l 1,13,-1
 836.369 -426 l 2,14,15
 700.619 -426 700.619 -426 658.529 -330 c 0,16,17
 615.69 -233.999 615.69 -233.999 657.287 -20 c 2,18,-1
 661.175 0 l 1,19,-1
 126.425 0 l 1,20,-1
 159.081 168 l 1,21,-1
 834.557 973 l 1,22,-1
 334.307 973 l 1,23,-1
 362.881 1120 l 1,0,-1
EndSplineSet
EndChar
StartChar: uni0291
Encoding: 657 657 657
Width: 1233
Flags: W
TeX: 0 0 0 0
Fore
584.261 0 m 1,0,-1
 624.936 0 l 2,1,2
 958.936 0 958.936 0 994.673 189 c 0,3,4
 1041.49 435 1041.49 435 814.49 435 c 0,5,6
 595.155 435 595.155 435 479.137 147 c 1,7,-1
 304.509 147 l 1,8,-1
 1152.99 952 l 1,9,-1
 1185.64 1120 l 1,10,-1
 311.641 1120 l 1,11,-1
 283.067 973 l 1,12,-1
 950.067 973 l 1,13,-1
 101.591 168 l 1,14,-1
 68.9355 0 l 1,15,-1
 431.42 -0 l 1,16,17
 417.76 -52.3496 417.76 -52.3496 406.359 -111 c 1,18,-1
 559.359 -111 l 1,19,20
 571.014 -51.04 571.014 -51.04 584.261 0 c 1,0,-1
633.565 147 m 1,21,22
 697.014 290.209 697.014 290.209 785.694 292 c 0,23,24
 855.694 292 855.694 292 838.006 201 c 0,25,26
 827.509 147 827.509 147 653.509 147 c 2,27,-1
 633.565 147 l 1,21,22
EndSplineSet
EndChar
StartChar: uni0292
Encoding: 658 658 658
Width: 1233
Flags: W
TeX: 0 0 0 0
Fore
635.047 476 m 1,0,0
 1138.57 952 l 1,2,-1
 1171.23 1120 l 1,1,-1
 297.228 1120 l 1,0,-1
 268.654 973 l 1,9,-1
 935.654 973 l 1,8,-1
 408.658 474 l 1,0,0
 376.391 308 l 1,20,-1
 550.391 308 l 2,19,-1
 715.391 308 715.391 308 794.007 234 c 128,-1,18
 871.429 159 871.429 159 845.771 27 c 0,16,17
 817.974 -116 817.974 -116 703.396 -191 c 128,-1,15
 589.816 -266 589.816 -266 399.816 -266 c 0,13,14
 290.816 -266 290.816 -266 195.677 -241 c 128,-1,12
 100.536 -216 100.536 -216 26.0605 -167 c 1,10,11
 -11.8438 -362 l 1,9,-1
 86.9639 -399 86.9639 -399 183.271 -418 c 128,-1,8
 278.772 -436 278.772 -436 372.772 -436 c 0,6,7
 652.772 -436 652.772 -436 828.292 -315 c 128,-1,5
 1003.81 -194 1003.81 -194 1046.77 27 c 0,3,4
 1073.59 165 1073.59 165 1012.81 269 c 128,-1,2
 947.998 378 947.998 378 858.162 420 c 0,0,1
 741.047 476 741.047 476 635.047 476 c 1,0,0
EndSplineSet
EndChar
StartChar: uni0293
Encoding: 659 659 659
Width: 1233
Flags: W
TeX: 0 0 0 0
Fore
331.772 -436 m 0,0,1
 -2.72754 -436 -2.72754 -436 35.5098 -247 c 0,2,3
 85.7021 3.5 85.7021 3.5 383.327 -1 c 0,4,5
 628.905 -5.48047 628.905 -5.48047 775.082 -64 c 1,6,7
 795.245 -22 795.245 -22 804.771 27 c 0,8,9
 830.642 160.098 830.642 160.098 753.007 234 c 0,10,11
 673.758 308 673.758 308 509.391 308 c 2,12,-1
 335.391 308 l 1,13,-1
 367.658 474 l 1,14,-1
 894.654 973 l 1,15,-1
 227.654 973 l 1,16,-1
 256.228 1120 l 1,17,-1
 1130.23 1120 l 1,18,-1
 1097.57 952 l 1,19,-1
 594.047 476 l 1,20,21
 699.398 476 699.398 476 817.162 420 c 0,22,23
 908.417 377.098 908.417 377.098 971.811 269 c 0,24,25
 1032.69 165.5 1032.69 165.5 1005.77 27 c 0,26,27
 983.902 -85.5 983.902 -85.5 928.283 -171 c 1,28,29
 1008.55 -272.493 1008.55 -272.493 976.772 -436 c 1,30,-1
 823.772 -436 l 1,31,32
 839.653 -354.296 839.653 -354.296 810.597 -298 c 1,33,34
 787.292 -315 l 2,35,36
 612.896 -436 612.896 -436 331.772 -436 c 0,0,1
670.367 -186 m 1,37,38
 554.031 -144 554.031 -144 356.531 -144 c 0,39,40
 226.031 -144 226.031 -144 209.953 -219 c 0,41,42
 200.816 -266 200.816 -266 358.816 -266 c 0,43,44
 548.816 -266 548.816 -266 662.396 -191 c 2,45,-1
 670.367 -186 l 1,37,38
EndSplineSet
EndChar
StartChar: uni0294
Encoding: 660 660 660
Width: 1233
Flags: W
Fore
450.082 798 m 9,0,0
 513.082 798 l 1,10,11
 705.082 798 705.082 798 813.241 912 c 128,-1,9
 886.015 988 886.015 988 905.063 1086 c 0,7,8
 929.916 1219 929.916 1219 885.551 1284 c 128,-1,6
 808.71 1398 808.71 1398 629.71 1398 c 0,4,5
 549.71 1398 549.71 1398 466.434 1376 c 128,-1,3
 384.352 1355 384.352 1355 297.993 1312 c 1,1,2
 331.427 1484 l 1,0,-1
 414.23 1519 414.23 1519 498.534 1536 c 128,-1,25
 583.033 1554 583.033 1554 668.033 1554 c 0,23,24
 943.033 1554 943.033 1554 1050.52 1397 c 128,-1,22
 1135.22 1272 1135.22 1272 1099.06 1086 c 0,20,21
 1066.02 916 1066.02 916 935.665 801 c 128,-1,19
 800.534 682 800.534 682 624.702 652 c 1,0,0
 497.967 0 l 1,0,-1
 295.967 0 l 1,1,-1
 450.082 798 l 9,0,0
EndSplineSet
EndChar
StartChar: uni0295
Encoding: 661 661 661
Width: 1233
Flags: W
Fore
790.082 798 m 17,0,0
 634.967 0 l 1,1,-1
 432.967 0 l 1,0,-1
 559.702 652 l 1,0,0
 395.534 682 395.534 682 306.665 801 c 128,-1,19
 221.019 916 221.019 916 254.063 1086 c 0,20,21
 290.218 1272 290.218 1272 424.516 1397 c 128,-1,22
 592.033 1554 592.033 1554 867.033 1554 c 0,23,24
 952.033 1554 952.033 1554 1029.53 1536 c 128,-1,25
 1107.23 1519 1107.23 1519 1176.43 1484 c 1,0,-1
 1142.99 1312 l 1,1,2
 1073.35 1355 1073.35 1355 998.434 1376 c 128,-1,3
 924.71 1398 924.71 1398 844.71 1398 c 0,4,5
 665.71 1398 665.71 1398 544.551 1284 c 128,-1,6
 474.916 1219 474.916 1219 448.063 1086 c 0,7,8
 429.015 988 429.015 988 472.241 912 c 128,-1,9
 536.082 798 536.082 798 728.082 798 c 1,10,11
 790.082 798 l 17,0,0
EndSplineSet
EndChar
StartChar: uni0296
Encoding: 662 662 662
Width: 1233
Flags: W
Fore
441.918 756 m 17,0,0
 598.033 1554 l 1,1,-1
 800.033 1554 l 1,0,-1
 673.298 902 l 1,0,0
 837.466 872 837.466 872 926.335 753 c 128,-1,19
 1011.98 638 1011.98 638 978.937 468 c 0,20,21
 942.782 282 942.782 282 809.484 157 c 128,-1,22
 640.967 0 640.967 0 365.967 0 c 0,23,24
 280.967 0 280.967 0 203.466 18 c 128,-1,25
 125.77 35 125.77 35 56.5732 70 c 1,0,-1
 90.0068 242 l 1,1,2
 159.648 199 159.648 199 233.566 178 c 128,-1,3
 308.29 156 308.29 156 388.29 156 c 0,4,5
 567.29 156 567.29 156 688.449 270 c 128,-1,6
 758.084 335 758.084 335 784.937 468 c 0,7,8
 803.985 566 803.985 566 760.759 642 c 128,-1,9
 696.918 756 696.918 756 504.918 756 c 1,10,11
 441.918 756 l 17,0,0
EndSplineSet
EndChar
StartChar: uni0297
Encoding: 663 663 663
Width: 1233
Flags: W
TeX: 0 0 0 0
Fore
296.633 1086 m 17,0,0
 332.787 1272 332.787 1272 467.085 1397 c 128,-1,22
 634.603 1554 634.603 1554 909.603 1554 c 0,23,24
 994.603 1554 994.603 1554 1072.1 1536 c 128,-1,25
 1149.8 1519 1149.8 1519 1219 1484 c 1,0,-1
 1185.56 1312 l 1,1,2
 1115.92 1355 1115.92 1355 1041 1376 c 128,-1,3
 967.279 1398 967.279 1398 887.279 1398 c 0,4,5
 708.279 1398 708.279 1398 587.12 1284 c 128,-1,6
 517.485 1219 517.485 1219 490.633 1086 c 1,7,8
 285.367 30 l 17,0,0
 260.515 -103 260.515 -103 304.88 -168 c 128,-1,6
 381.721 -282 381.721 -282 560.721 -282 c 0,4,5
 640.721 -282 640.721 -282 722.997 -260 c 128,-1,3
 806.079 -239 806.079 -239 892.438 -196 c 1,1,2
 859.004 -368 l 1,0,-1
 776.2 -403 776.2 -403 691.896 -420 c 128,-1,25
 607.397 -438 607.397 -438 522.397 -438 c 0,23,24
 247.397 -438 247.397 -438 140.915 -281 c 128,-1,22
 55.2129 -156 55.2129 -156 91.3672 30 c 1,20,21
 296.633 1086 l 17,0,0
EndSplineSet
EndChar
StartChar: uni0298
Encoding: 664 664 664
Width: 1233
Flags: W
Fore
94.4531 565.2 m 0,14,15
 135.584 776.8 135.584 776.8 320.545 933.2 c 0,16,17
 504.586 1089.6 504.586 1089.6 720.786 1089.6 c 0,18,19
 932.386 1089.6 932.386 1089.6 1056.54 933.2 c 0,20,21
 1179.78 776.8 1179.78 776.8 1138.65 565.2 c 0,22,23
 1096.63 349 1096.63 349 915.321 197.2 c 128,-1,24
 734.014 45.4004 734.014 45.4004 517.814 45.4004 c 128,-1,25
 301.614 45.4004 301.614 45.4004 177.48 197.2 c 0,26,27
 52.4287 349 52.4287 349 94.4531 565.2 c 0,14,15
275.708 566 m 0,0,1
 248.301 425 248.301 425 330.057 326 c 128,-1,11
 410.813 227 410.813 227 551.813 227 c 0,9,10
 692.813 227 692.813 227 811.057 326 c 128,-1,8
 929.301 425 929.301 425 956.708 566 c 0,6,7
 983.533 704 983.533 704 903.359 806 c 128,-1,5
 822.187 908 822.187 908 684.187 908 c 0,3,4
 543.187 908 543.187 908 423.359 806 c 128,-1,2
 302.533 704 302.533 704 275.708 566 c 0,0,1
502.902 567 m 0,0,1
 511.845 613 511.845 613 552.453 647 c 128,-1,2
 592.062 681 592.062 681 639.062 681 c 0,3,4
 685.062 681 685.062 681 712.453 647 c 128,-1,5
 738.844 613 738.844 613 729.902 567 c 0,6,7
 720.767 520 720.767 520 681.353 487 c 128,-1,8
 641.938 454 641.938 454 594.938 454 c 0,9,10
 547.938 454 547.938 454 521.353 487 c 128,-1,11
 493.767 520 493.767 520 502.902 567 c 0,0,1
EndSplineSet
EndChar
StartChar: uni0299
Encoding: 665 665 665
Width: 1233
Flags: W
Fore
402.35 530 m 1,0,-1
 332.373 170 l 1,1,-1
 553.373 170 l 2,2,3
 646.373 170 646.373 170 702.286 221 c 128,-1,4
 761.783 275 761.783 275 774.029 338 c 0,5,6
 791.912 430 791.912 430 757.437 479 c 128,-1,7
 721.35 530 721.35 530 627.35 530 c 2,8,-1
 402.35 530 l 1,0,-1
488.821 980 m 1,9,-1
 435.395 700 l 1,10,-1
 645.395 700 l 2,11,12
 730.395 700 730.395 700 780.753 743 c 128,-1,13
 830.917 785 830.917 785 843.163 848 c 0,14,15
 852.104 894 852.104 894 818.463 937 c 128,-1,16
 784.821 980 784.821 980 698.821 980 c 2,17,-1
 488.821 980 l 1,9,-1
320.672 1149 m 1,18,-1
 717.672 1149 l 2,19,20
 895.672 1149 895.672 1149 977.287 1075 c 128,-1,21
 1058.9 1001 1058.9 1001 1032.47 865 c 0,22,23
 1012.06 760 1012.06 760 950.812 697 c 128,-1,24
 889.76 635 889.76 635 790.845 620 c 1,25,26
 900.984 595 900.984 595 949.823 517 c 128,-1,27
 997.661 439 997.661 439 974.919 322 c 0,28,29
 944.984 168 944.984 168 823.656 84 c 128,-1,30
 703.328 0 703.328 0 510.328 0 c 2,31,-1
 97.3281 0 l 1,32,-1
 320.672 1149 l 1,18,-1
EndSplineSet
EndChar
StartChar: uni029A
Encoding: 666 666 666
Width: 1233
Flags: W
TeX: 0 0 0 0
Fore
646.575 984 m 0,28,29
 531.075 984 531.075 984 463.579 930 c 128,-1,27
 387.972 869 387.972 869 373.005 792 c 0,25,26
 358.037 715 358.037 715 406.597 660 c 128,-1,24
 433.015 630 433.015 630 571.765 630 c 2,22,23
 708.265 630 l 1,21,-1
 677.747 473 l 17,0,0
 541.247 473 l 2,22,23
 402.497 473 402.497 473 364.416 443 c 128,-1,24
 294.669 389 294.669 389 279.508 311 c 0,25,26
 265.123 237 265.123 237 316.434 173 c 128,-1,27
 360.687 119 360.687 119 478.437 119 c 0,28,29
 817.631 120 817.631 120 905.074 566 c 1,0,0
 985.575 984 985.575 984 646.575 984 c 0,28,29
888.68 1099 m 0,32,33
 1134.58 948 1134.58 948 1058.38 556 c 0,0,0
 991.514 212 991.514 212 678.554 18 c 0,0,0
 580.253 -44 580.253 -44 433.642 -42 c 0,35,36
 261.142 -42 261.142 -42 177.553 45 c 128,-1,37
 93.7695 131 93.7695 131 122.537 279 c 0,38,39
 142.559 382 142.559 382 209.609 453 c 128,-1,40
 276.66 524 276.66 524 380.354 552 c 1,0,1
 287.352 579 287.352 579 247.902 650 c 128,-1,40
 208.453 721 208.453 721 228.475 824 c 0,38,39
 257.243 972 257.243 972 374.654 1059 c 128,-1,37
 491.871 1145 491.871 1145 664.371 1145 c 0,35,36
 814.371 1145 814.371 1145 888.68 1099 c 0,32,33
EndSplineSet
EndChar
StartChar: uni029B
Encoding: 667 667 667
Width: 1233
Flags: W
TeX: 0 0 0 0
Fore
601.566 178 m 1,0,-1
 656.382 460 l 1,1,-1
 540.382 460 l 1,2,-1
 567.595 600 l 1,3,-1
 808.595 600 l 1,4,-1
 705.962 72 l 1,5,6
 645.761 37.7871 645.761 37.7871 576.466 18 c 0,7,8
 514.467 0 514.467 0 362.967 0 c 0,9,10
 173.467 0 173.467 0 91.873 159 c 0,11,12
 11.0576 319.432 11.0576 319.432 63.2617 588 c 0,13,14
 116.425 861.5 116.425 861.5 261.04 1019 c 0,15,16
 403.701 1176 403.701 1176 600.558 1176 c 0,17,18
 646.558 1176 646.558 1176 721.059 1158 c 0,19,20
 743.893 1152 743.893 1152 755.921 1147 c 1,21,-1
 756.115 1148 l 2,22,23
 798.008 1363.52 798.008 1363.52 878.373 1458 c 1,24,25
 957.033 1554 957.033 1554 1093.03 1554 c 2,26,-1
 1283.03 1554 l 1,27,-1
 1252.71 1398 l 1,28,-1
 1078.71 1398 l 2,29,30
 1000.71 1398 1000.71 1398 961.38 1350 c 1,31,32
 923.402 1298.67 923.402 1298.67 894.115 1148 c 2,33,-1
 865.347 1000 l 1,34,-1
 863.347 1000 l 1,35,-1
 842.742 894 l 1,36,37
 766.315 971.821 766.315 971.821 689.958 998 c 0,38,39
 631.167 1020 631.167 1020 576.234 1020 c 0,40,41
 442.234 1020 442.234 1020 345.075 906 c 0,42,43
 249.059 792.735 249.059 792.735 209.262 588 c 0,44,45
 169.466 383.265 169.466 383.265 221.449 270 c 0,46,47
 274.29 156 274.29 156 408.29 156 c 0,48,49
 538.623 156 538.623 156 601.566 178 c 1,0,-1
EndSplineSet
EndChar
StartChar: uni029C
Encoding: 668 668 668
Width: 1233
Flags: W
Fore
255.478 1147 m 1,0,-1
 457.478 1147 l 1,1,-1
 370.589 700 l 1,2,-1
 911.589 700 l 1,3,-1
 998.478 1147 l 1,4,-1
 1200.48 1147 l 1,5,-1
 977.522 0 l 1,6,-1
 775.522 0 l 1,7,-1
 878.545 530 l 1,8,-1
 337.545 530 l 1,9,-1
 234.522 0 l 1,10,-1
 32.5225 0 l 1,11,-1
 255.478 1147 l 1,0,-1
EndSplineSet
EndChar
StartChar: uni029D
Encoding: 669 669 669
Width: 1233
Flags: W
TeX: 0 0 0 0
Fore
858.131 1556 m 1,0,-1
 1042.13 1556 l 1,1,-1
 996.84 1323 l 1,2,-1
 812.84 1323 l 1,3,-1
 858.131 1556 l 1,0,-1
312.869 -426 m 0,4,5
 494.177 -425.707 494.177 -425.707 594.029 -330 c 0,6,7
 659.334 -267.409 659.334 -267.409 699.743 -154.657 c 1,8,-1
 890.546 -155 l 1,9,-1
 920.675 0 l 1,10,-1
 739.675 -0 l 1,11,-1
 957.381 1120 l 1,12,-1
 773.381 1120 l 1,13,-1
 555.675 0 l 1,14,-1
 362.675 0 l 2,15,16
 92.6748 0 92.6748 0 52.8271 -205 c 0,17,18
 9.86914 -426 9.86914 -426 312.869 -426 c 0,4,5
514.69 -154.325 m 1,19,20
 496.545 -199.079 496.545 -199.079 474.62 -221.5 c 0,21,22
 427.192 -270 427.192 -270 322.192 -270 c 0,23,24
 198.764 -270 198.764 -270 207.827 -205 c 0,25,26
 214.987 -153.786 214.987 -153.786 333.74 -154 c 2,27,-1
 514.69 -154.325 l 1,19,20
EndSplineSet
EndChar
StartChar: uni029E
Encoding: 670 670 670
Width: 1233
Flags: W
Fore
962.272 -436 m 1,0,-1
 777.272 -436 l 1,1,-1
 955.907 483 l 1,2,-1
 313.021 0 l 1,3,-1
 78.0215 0 l 1,4,-1
 773.877 524 l 1,5,-1
 270.728 1120 l 1,6,-1
 510.728 1120 l 1,7,-1
 973.401 573 l 1,8,-1
 1079.73 1120 l 1,9,-1
 1264.73 1120 l 1,10,-1
 962.272 -436 l 1,0,-1
EndSplineSet
EndChar
StartChar: uni029F
Encoding: 671 671 671
Width: 1233
Flags: W
Fore
356.478 1147 m 1,0,-1
 558.478 1147 l 1,1,-1
 368.567 170 l 1,2,-1
 909.567 170 l 1,3,-1
 876.522 0 l 1,4,-1
 133.522 0 l 1,5,-1
 356.478 1147 l 1,0,-1
EndSplineSet
EndChar
StartChar: uni02A0
Encoding: 672 672 672
Width: 1233
Flags: W
TeX: 0 0 0 0
Fore
621.65 168 m 1,0,1
 558.714 68.001 558.714 68.001 483.382 20 c 0,2,3
 407.105 -29 407.105 -29 314.107 -29 c 0,4,5
 161.858 -29 161.858 -29 97.3467 133 c 0,6,7
 33.5869 295.001 33.5869 295.001 84.9033 559 c 0,8,9
 136.22 822.999 136.22 822.999 262.959 985 c 0,10,11
 390.45 1147 390.45 1147 542.698 1147 c 0,12,13
 635.696 1147 635.696 1147 692.924 1098 c 0,14,15
 749.595 1050 749.595 1050 773.656 950 c 1,16,-1
 783.375 1000 l 1,17,-1
 806.7 1120 l 1,18,-1
 812.144 1148 l 2,19,20
 853.74 1362 853.74 1362 933.901 1458 c 0,21,22
 1013.31 1554 1013.31 1554 1149.06 1554 c 2,23,-1
 1339.56 1554 l 1,24,-1
 1309.23 1398 l 1,25,-1
 1134.49 1398 l 2,26,27
 1055.74 1398 1055.74 1398 1017.91 1350 c 0,28,29
 979.883 1301 979.883 1301 950.144 1148 c 2,30,-1
 944.7 1120 l 1,31,-1
 921.375 1000 l 1,32,-1
 644.188 -426 l 1,33,-1
 506.188 -426 l 1,34,-1
 621.65 168 l 1,0,1
227.403 559 m 0,35,36
 187.944 356 187.944 356 227.646 240 c 0,37,38
 268.293 125 268.293 125 377.792 125 c 0,39,40
 487.291 125 487.291 125 572.646 240 c 0,41,42
 658.194 356.001 658.194 356.001 697.653 559 c 0,43,44
 737.112 761.999 737.112 761.999 696.66 878 c 0,45,46
 656.013 993 656.013 993 546.514 993 c 0,47,48
 437.016 993 437.016 993 351.66 878 c 0,49,50
 266.862 762 266.862 762 227.403 559 c 0,35,36
EndSplineSet
EndChar
StartChar: uni02A1
Encoding: 673 673 673
Width: 1233
Flags: W
Fore
450.082 798 m 1,0,-1
 513.082 798 l 2,1,2
 705.081 798 705.081 798 813.241 912 c 0,3,4
 886.015 988 886.015 988 905.063 1086 c 0,5,6
 929.917 1219 929.917 1219 885.551 1284 c 0,7,8
 808.71 1398 808.71 1398 629.71 1398 c 0,9,10
 549.713 1398 549.713 1398 466.434 1376 c 0,11,12
 384.354 1355 384.354 1355 297.993 1312 c 1,13,-1
 331.427 1484 l 1,14,15
 414.22 1519 414.22 1519 498.534 1536 c 0,16,17
 583.033 1554 583.033 1554 668.033 1554 c 0,18,19
 943.032 1554 943.032 1554 1050.52 1397 c 0,20,21
 1135.22 1272 1135.22 1272 1099.06 1086 c 0,22,23
 1066.02 915.999 1066.02 915.999 935.665 801 c 0,24,25
 800.536 682 800.536 682 624.702 652 c 1,26,-1
 583.494 440 l 1,27,-1
 814.494 440 l 1,28,-1
 782.615 276 l 1,29,-1
 551.615 276 l 1,30,-1
 497.967 0 l 1,31,-1
 295.967 0 l 1,32,-1
 349.27 276 l 1,33,-1
 120.615 276 l 1,34,-1
 152.494 440 l 1,35,-1
 380.942 440 l 1,36,-1
 450.082 798 l 1,0,-1
EndSplineSet
EndChar
StartChar: uni02A2
Encoding: 674 674 674
Width: 1233
Flags: W
Fore
518.494 440 m 1,0,-1
 559.702 652 l 1,1,2
 395.532 682 395.532 682 306.665 801 c 0,3,4
 221.019 915.999 221.019 915.999 254.063 1086 c 0,5,6
 290.218 1272 290.218 1272 424.516 1397 c 0,7,8
 592.035 1554 592.035 1554 867.033 1554 c 0,9,10
 952.033 1554 952.033 1554 1029.53 1536 c 0,11,12
 1107.24 1519 1107.24 1519 1176.43 1484 c 1,13,-1
 1142.99 1312 l 1,14,15
 1073.35 1355 1073.35 1355 998.434 1376 c 0,16,17
 924.707 1398 924.707 1398 844.71 1398 c 0,18,19
 665.71 1398 665.71 1398 544.551 1284 c 0,20,21
 474.915 1219 474.915 1219 448.063 1086 c 0,22,23
 429.015 988 429.015 988 472.241 912 c 0,24,25
 536.083 798 536.083 798 728.082 798 c 2,26,-1
 790.082 798 l 1,27,-1
 720.494 440 l 1,28,-1
 949.494 440 l 1,29,-1
 917.615 276 l 1,30,-1
 688.615 276 l 1,31,-1
 634.967 0 l 1,32,-1
 432.967 0 l 1,33,-1
 486.615 276 l 1,34,-1
 255.615 276 l 1,35,-1
 287.494 440 l 1,36,-1
 518.494 440 l 1,0,-1
EndSplineSet
EndChar
StartChar: uni02A3
Encoding: 675 675 675
Width: 1233
Flags: W
TeX: 0 0 0 0
Fore
127.948 559 m 0,0,1
 88.4893 356.002 88.4893 356.002 116.14 240.5 c 0,2,3
 143.786 125 143.786 125 231.388 125 c 0,4,5
 318.989 125 318.989 125 391.839 240.5 c 0,6,7
 464.69 356.002 464.69 356.002 504.149 559 c 0,8,9
 543.607 761.997 543.607 761.997 515.659 877.5 c 0,10,11
 487.711 993 487.711 993 400.11 993 c 0,12,13
 312.508 993 312.508 993 239.96 877.5 c 0,14,15
 167.407 761.998 167.407 761.998 127.948 559 c 0,0,1
580.152 950 m 1,16,-1
 697.946 1556 l 1,17,-1
 808.348 1556 l 1,18,-1
 723.598 1120 l 1,19,-1
 1246.6 1120 l 1,20,-1
 1213.94 952 l 1,21,-1
 642.265 147 l 1,22,-1
 1057.46 147 l 1,23,-1
 1028.89 0 l 1,24,-1
 505.892 0 l 1,25,-1
 489.49 0 l 1,26,-1
 395.49 0 l 1,27,-1
 428.146 168 l 1,28,29
 376.311 71.0811 376.311 71.0811 306.986 19.5 c 0,30,31
 241.804 -29 241.804 -29 163.684 -29 c 0,32,33
 35.793 -29 35.793 -29 -13.043 133 c 0,34,35
 -61.8779 295.002 -61.8779 295.002 -10.5596 559 c 0,36,37
 40.7578 823.004 40.7578 823.004 152.569 985 c 0,38,39
 264.384 1147 264.384 1147 392.274 1147 c 0,40,41
 470.395 1147 470.395 1147 516.723 1098.5 c 0,42,43
 565.543 1050 565.543 1050 580.152 950 c 1,16,-1
695.023 973 m 1,44,-1
 544.729 199.798 l 1,45,-1
 1093.82 973 l 1,46,-1
 695.023 973 l 1,44,-1
EndSplineSet
EndChar
StartChar: uni02A4
Encoding: 676 676 676
Width: 1233
Flags: W
TeX: 0 0 0 0
Fore
140.806 559 m 0,0,1
 101.347 356 101.347 356 128.798 240 c 0,2,3
 156.444 125 156.444 125 244.444 125 c 0,4,5
 331.444 125 331.444 125 404.798 240 c 0,6,7
 477.347 356 477.347 356 516.806 559 c 0,8,9
 556.265 762 556.265 762 528.812 878 c 0,10,11
 500.167 993 500.167 993 413.167 993 c 0,12,13
 325.167 993 325.167 993 252.812 878 c 0,14,15
 180.265 762 180.265 762 140.806 559 c 0,0,1
707.279 973 m 1,16,-1
 519.147 0 l 1,17,-1
 408.147 0 l 1,18,-1
 440.803 168 l 1,19,20
 386.365 68 386.365 68 324.034 20 c 0,21,22
 261.51 -29 261.51 -29 187.51 -29 c 0,23,24
 65.5098 -29 65.5098 -29 21 133 c 0,25,26
 -24.5107 295 -24.5107 295 26.8057 559 c 0,27,28
 78.1221 823 78.1221 823 186.611 985 c 0,29,30
 294.102 1147 294.102 1147 416.102 1147 c 0,31,32
 490.102 1147 490.102 1147 533.576 1098 c 0,33,34
 577.246 1050 577.246 1050 592.809 950 c 1,35,-1
 710.603 1556 l 1,36,-1
 821.603 1556 l 1,37,-1
 735.853 1120 l 1,38,-1
 1259.85 1120 l 1,39,-1
 1227.2 952 l 1,40,-1
 888.672 476 l 1,41,42
 951.672 476 951.672 476 1017.79 420 c 0,43,44
 1068.62 378 1068.62 378 1098.44 269 c 0,45,46
 1127.22 165 1127.22 165 1100.4 27 c 0,47,48
 1057.44 -194 1057.44 -194 942.917 -315 c 0,49,50
 828.397 -436 828.397 -436 660.397 -436 c 0,51,52
 603.397 -436 603.397 -436 547.896 -418 c 0,53,54
 491.589 -399 491.589 -399 434.781 -362 c 1,55,-1
 472.686 -167 l 1,56,57
 514.161 -216 514.161 -216 569.302 -241 c 0,58,59
 624.441 -266 624.441 -266 689.441 -266 c 0,60,61
 803.441 -266 803.441 -266 877.021 -191 c 0,62,63
 951.599 -116 951.599 -116 979.396 27 c 0,64,65
 1005.05 159 1005.05 159 964.632 234 c 0,66,67
 923.017 308 923.017 308 824.017 308 c 2,68,-1
 720.017 308 l 1,69,-1
 752.283 474 l 1,70,-1
 1107.28 973 l 1,71,-1
 708.279 973 l 1,72,-1
 707.279 973 l 1,16,-1
EndSplineSet
EndChar
StartChar: uni02A5
Encoding: 677 677 677
Width: 1233
Flags: W
TeX: 0 0 0 0
Fore
136.818 559 m 0,0,1
 97.3604 356.005 97.3604 356.005 125.008 240.5 c 0,2,3
 152.658 125 152.658 125 240.258 125 c 0,4,5
 327.858 125 327.858 125 400.709 240.5 c 0,6,7
 473.561 356.002 473.561 356.002 513.02 559 c 0,8,9
 552.479 761.998 552.479 761.998 524.529 877.5 c 0,10,11
 496.581 993 496.581 993 408.979 993 c 0,12,13
 321.38 993 321.38 993 248.828 877.5 c 0,14,15
 176.277 761.995 176.277 761.995 136.818 559 c 0,0,1
700.692 973 m 1,16,-1
 554.273 203.285 l 1,17,-1
 1100.89 973 l 1,18,-1
 703.892 973 l 1,19,-1
 700.692 973 l 1,16,-1
732.465 1120 m 1,20,-1
 1253.67 1120 l 1,21,-1
 1221.01 952 l 1,22,-1
 649.333 147 l 1,23,-1
 754.111 147 l 1,24,25
 846.115 435 846.115 435 977.716 435 c 0,26,27
 1113.92 435 1113.92 435 1066.7 189 c 0,28,29
 1030.56 0 1030.56 0 830.16 0 c 2,30,-1
 805.755 -0 l 1,31,32
 793.838 -51.04 793.838 -51.04 782.183 -111 c 1,33,-1
 690.384 -111 l 1,34,35
 706.456 -28.3184 706.456 -28.3184 712.856 -1 c 1,36,-1
 496.561 0 l 1,37,-1
 404.361 0 l 1,38,-1
 437.018 168 l 1,39,40
 382.775 67.998 382.775 67.998 320.251 19.5 c 0,41,42
 257.725 -29 257.725 -29 183.323 -29 c 0,43,44
 61.5234 -29 61.5234 -29 16.5127 133 c 0,45,46
 -28.498 295 -28.498 295 22.8184 559 c 0,47,48
 74.1348 823 74.1348 823 182.125 985 c 0,49,50
 290.114 1147 290.114 1147 411.914 1147 c 0,51,52
 486.315 1147 486.315 1147 529.987 1098.5 c 0,53,54
 573.657 1050 573.657 1050 589.022 950 c 1,55,-1
 706.817 1556 l 1,56,-1
 817.215 1556 l 1,57,-1
 732.465 1120 l 1,20,-1
846.768 147 m 1,58,-1
 858.734 147 l 2,59,60
 963.134 147 963.134 147 973.631 201 c 0,61,62
 991.319 292 991.319 292 949.319 292 c 0,63,64
 895.972 290.209 895.972 290.209 846.768 147 c 1,58,-1
EndSplineSet
EndChar
StartChar: uni02A6
Encoding: 678 678 678
Width: 1233
Flags: W
TeX: 0 0 0 0
Fore
1118.35 1087 m 1,0,-1
 1084.53 913 l 1,1,2
 1045.5 952.998 1045.5 952.998 998.992 973 c 0,3,4
 952.479 993 952.479 993 898.479 993 c 0,5,6
 816.278 993 816.278 993 767.015 951 c 0,7,8
 717.751 909.001 717.751 909.001 701.423 825 c 0,9,10
 688.982 761.002 688.982 761.002 711.288 724.5 c 0,11,12
 733.687 687.843 733.687 687.843 815.979 655 c 2,13,-1
 851.057 641 l 2,14,15
 961.423 596.954 961.423 596.954 995.123 522.5 c 0,16,17
 1029.75 446 1029.75 446 1003.12 309 c 0,18,19
 972.799 152.998 972.799 152.998 881.011 62 c 0,20,21
 789.221 -29 789.221 -29 659.621 -29 c 0,22,23
 605.624 -29 605.624 -29 550.522 -11.5 c 0,24,25
 497.981 5.1875 497.981 5.1875 442.805 37.7891 c 1,26,-1
 435.459 0 l 1,27,-1
 322.059 0 l 2,28,29
 194.259 0 194.259 0 161.112 79.5 c 0,30,31
 127.965 158.998 127.965 158.998 168.785 369 c 2,32,-1
 286.969 977 l 1,33,-1
 205.969 977 l 1,34,-1
 233.765 1120 l 1,35,-1
 314.765 1120 l 1,36,-1
 376.578 1438 l 1,37,-1
 487.578 1438 l 1,38,-1
 425.765 1120 l 1,39,-1
 653.165 1120 l 1,40,-1
 625.369 977 l 1,41,-1
 397.969 977 l 1,42,-1
 279.785 369 l 2,43,44
 253.155 232 253.155 232 268.074 193 c 0,45,46
 282.993 154 282.993 154 351.993 154 c 2,47,-1
 459.394 154 l 1,48,-1
 474.361 231 l 1,49,50
 525.256 178.001 525.256 178.001 579.508 151.5 c 0,51,52
 633.759 125 633.759 125 691.957 125 c 0,53,54
 769.956 125 769.956 125 820.606 169.5 c 0,55,56
 871.256 213.999 871.256 213.999 887.001 295 c 0,57,58
 901.58 370.001 901.58 370.001 879.056 410 c 0,59,60
 858.992 445.63 858.992 445.63 761.122 487 c 2,61,-1
 725.638 502 l 1,62,63
 630.035 538 630.035 538 598.918 612.5 c 0,64,65
 567.798 687.001 567.798 687.001 593.066 817 c 0,66,67
 623.778 974.999 623.778 974.999 707.696 1061 c 0,68,69
 791.611 1147 791.611 1147 915.212 1147 c 0,70,71
 976.413 1147 976.413 1147 1027.5 1132 c 0,72,73
 1078.58 1117 1078.58 1117 1118.35 1087 c 1,0,-1
EndSplineSet
EndChar
StartChar: uni02A7
Encoding: 679 679 679
Width: 1233
Flags: W
TeX: 0 0 0 0
Fore
562.694 1438 m 1,0,-1
 500.881 1120 l 1,1,-1
 781.881 1120 l 1,2,-1
 797.043 1198 l 2,3,4
 832.398 1379.89 832.398 1379.89 914.914 1470 c 0,5,6
 991.982 1556 991.982 1556 1138.63 1556 c 2,7,-1
 1268.63 1556 l 1,8,-1
 1238.89 1403 l 1,9,-1
 1106.89 1403 l 2,10,11
 1033.04 1403 1033.04 1403 997.115 1363 c 0,12,13
 959.243 1322.5 959.243 1322.5 939.125 1219 c 1,14,-1
 700.287 -20 l 1,15,16
 658.538 -234.78 658.538 -234.78 579.029 -330 c 0,17,18
 498.869 -426 498.869 -426 363.369 -426 c 2,19,-1
 310.369 -426 l 1,20,-1
 340.692 -270 l 1,21,-1
 377.692 -270 l 2,22,23
 456.192 -270 456.192 -270 494.022 -222 c 0,24,25
 532.813 -171.632 532.813 -171.632 562.287 -20 c 2,26,-1
 566.175 0 l 1,27,-1
 425.175 0 l 2,28,29
 264.435 0 264.435 0 220.726 80 c 1,30,31
 174.764 157.366 174.764 157.366 215.901 369 c 2,32,-1
 334.085 977 l 1,33,-1
 233.085 977 l 1,34,-1
 260.881 1120 l 1,35,-1
 361.881 1120 l 1,36,-1
 423.694 1438 l 1,37,-1
 562.694 1438 l 1,0,-1
595.109 154 m 1,38,39
 648.342 433 648.342 433 754.085 977 c 1,40,-1
 473.085 977 l 1,41,-1
 354.901 369 l 2,42,43
 328.139 231.316 328.139 231.316 348.69 193 c 0,44,45
 369.609 154 369.609 154 455.109 154 c 2,46,-1
 595.109 154 l 1,38,39
EndSplineSet
EndChar
StartChar: uni02A8
Encoding: 680 680 680
Width: 1233
Flags: W
TeX: 0 0 0 0
Fore
526.954 1438 m 1,0,-1
 465.141 1120 l 1,1,-1
 692.542 1120 l 1,2,-1
 667.204 989.651 l 1,3,4
 787.99 1147 787.99 1147 945.19 1147 c 0,5,6
 996.184 1147 996.184 1147 1041.49 1130 c 0,7,8
 1086.58 1112 1086.58 1112 1125.38 1077 c 1,9,-1
 1091.95 905 l 1,10,11
 1053.52 947.994 1053.52 947.994 1010.38 970 c 0,12,13
 967.665 991 967.665 991 919.668 991 c 0,14,15
 812.267 991 812.267 991 730.901 878 c 0,16,17
 649.343 764.004 649.343 764.004 609.494 559 c 0,18,19
 569.646 353.996 569.646 353.996 606.888 240 c 0,20,21
 609.218 232.965 609.218 232.965 611.819 226.368 c 1,22,23
 696.775 402 696.775 402 814.178 402 c 0,24,25
 993.577 402 993.577 402 946.359 156 c 0,26,27
 910.222 -33 910.222 -33 709.821 -33 c 0,28,29
 660.578 -33 660.578 -33 621.109 -15.8477 c 1,30,31
 606.729 -72.5703 606.729 -72.5703 593.429 -141 c 1,32,-1
 501.046 -144 l 1,33,34
 521.233 -40.1475 521.233 -40.1475 545.069 43.9521 c 1,35,36
 518.024 78.3799 518.024 78.3799 499.757 128.209 c 1,37,-1
 474.836 0 l 1,38,-1
 361.435 0 l 2,39,40
 233.634 0 233.634 0 200.49 79.5 c 0,41,42
 167.341 158.997 167.341 158.997 208.161 369 c 2,43,-1
 326.345 977 l 1,44,-1
 245.345 977 l 1,45,-1
 273.141 1120 l 1,46,-1
 354.141 1120 l 1,47,-1
 415.954 1438 l 1,48,-1
 526.954 1438 l 1,0,-1
674.586 146.488 m 1,49,50
 707.121 127 707.121 127 751.724 127 c 0,51,52
 839.32 127 839.32 127 850.4 184 c 0,53,54
 864.382 259 864.382 259 785.779 259 c 0,55,56
 725.001 259 725.001 259 674.586 146.488 c 1,49,50
491.231 154 m 1,57,58
 444.791 310.503 444.791 310.503 493.094 559 c 0,59,60
 544.182 821.828 544.182 821.828 657.707 977 c 1,61,-1
 437.345 977 l 1,62,-1
 319.161 369 l 2,63,64
 292.531 232 292.531 232 307.45 193 c 0,65,66
 322.369 154 322.369 154 391.369 154 c 2,67,-1
 491.231 154 l 1,57,58
EndSplineSet
EndChar
StartChar: uni02A9
Encoding: 681 681 681
Width: 1233
Flags: W
TeX: 0 0 0 0
Fore
1116.68 676 m 2,0,-1
 981.388 -20 l 2,1,2
 939.79 -233.998 939.79 -233.998 871.93 -330 c 0,3,4
 804.669 -426 804.669 -426 696.068 -426 c 2,5,-1
 543.67 -426 l 1,6,-1
 573.993 -270 l 1,7,-1
 713.792 -270 l 2,8,9
 776.791 -270 776.791 -270 808.923 -222 c 0,10,11
 841.247 -172.998 841.247 -172.998 870.986 -20 c 2,12,-1
 1005.11 670 l 2,13,14
 1036.02 829.002 1036.02 829.002 1014.17 908 c 0,15,16
 992.328 987 992.328 987 917.929 987 c 0,17,18
 828.53 987 828.53 987 758.462 892 c 0,19,20
 688.398 797.004 688.398 797.004 656.519 633 c 2,21,-1
 533.477 0 l 1,22,-1
 422.477 0 l 1,23,-1
 612.386 977 l 1,24,-1
 432.585 977 l 1,25,-1
 242.675 0 l 1,26,-1
 131.675 0 l 1,27,-1
 321.585 977 l 1,28,-1
 215.984 977 l 1,29,-1
 243.781 1120 l 1,30,-1
 349.381 1120 l 1,31,-1
 364.543 1198 l 2,32,33
 400.892 1385 400.892 1385 469.71 1470.5 c 0,34,35
 538.531 1556 538.531 1556 651.932 1556 c 2,36,-1
 756.33 1556 l 1,37,-1
 726.59 1403 l 1,38,-1
 620.99 1403 l 2,39,40
 561.592 1403 561.592 1403 530.716 1363 c 0,41,42
 499.84 1323 499.84 1323 479.625 1219 c 2,43,-1
 460.381 1120 l 1,44,-1
 640.182 1120 l 1,45,-1
 642.182 1120 l 1,46,-1
 751.182 1120 l 1,47,-1
 717.36 946 l 1,48,49
 776.592 1047 776.592 1047 839.711 1097 c 0,50,51
 903.433 1147 903.433 1147 973.629 1147 c 0,52,53
 1089.43 1147 1089.43 1147 1125.7 1028 c 0,54,55
 1161.77 908.004 1161.77 908.004 1116.68 676 c 2,0,-1
EndSplineSet
EndChar
